<svg width="227" height="71" viewBox="0 0 227 71" fill="none" xmlns="http://www.w3.org/2000/svg">
<rect width="227" height="71" fill="white"/>
<path d="M51.928 40.808H45.256L44.152 44H40.624L46.648 27.224H50.56L56.584 44H53.032L51.928 40.808ZM51.016 38.12L48.592 31.112L46.168 38.12H51.016ZM62.1957 32.624C62.6277 32.016 63.2197 31.512 63.9717 31.112C64.7397 30.696 65.6117 30.488 66.5877 30.488C67.7237 30.488 68.7477 30.768 69.6597 31.328C70.5877 31.888 71.3157 32.688 71.8437 33.728C72.3877 34.752 72.6597 35.944 72.6597 37.304C72.6597 38.664 72.3877 39.872 71.8437 40.928C71.3157 41.968 70.5877 42.776 69.6597 43.352C68.7477 43.928 67.7237 44.216 66.5877 44.216C65.6117 44.216 64.7477 44.016 63.9957 43.616C63.2597 43.216 62.6597 42.712 62.1957 42.104V50.336H58.8357V30.704H62.1957V32.624ZM69.2277 37.304C69.2277 36.504 69.0597 35.816 68.7237 35.24C68.4037 34.648 67.9717 34.2 67.4277 33.896C66.8997 33.592 66.3237 33.44 65.6997 33.44C65.0917 33.44 64.5157 33.6 63.9717 33.92C63.4437 34.224 63.0117 34.672 62.6757 35.264C62.3557 35.856 62.1957 36.552 62.1957 37.352C62.1957 38.152 62.3557 38.848 62.6757 39.44C63.0117 40.032 63.4437 40.488 63.9717 40.808C64.5157 41.112 65.0917 41.264 65.6997 41.264C66.3237 41.264 66.8997 41.104 67.4277 40.784C67.9717 40.464 68.4037 40.008 68.7237 39.416C69.0597 38.824 69.2277 38.12 69.2277 37.304ZM78.4613 32.624C78.8933 32.016 79.4853 31.512 80.2373 31.112C81.0053 30.696 81.8773 30.488 82.8533 30.488C83.9893 30.488 85.0133 30.768 85.9253 31.328C86.8533 31.888 87.5813 32.688 88.1093 33.728C88.6533 34.752 88.9253 35.944 88.9253 37.304C88.9253 38.664 88.6533 39.872 88.1093 40.928C87.5813 41.968 86.8533 42.776 85.9253 43.352C85.0133 43.928 83.9893 44.216 82.8533 44.216C81.8773 44.216 81.0133 44.016 80.2613 43.616C79.5253 43.216 78.9253 42.712 78.4613 42.104V50.336H75.1013V30.704H78.4613V32.624ZM85.4933 37.304C85.4933 36.504 85.3253 35.816 84.9893 35.24C84.6693 34.648 84.2373 34.2 83.6933 33.896C83.1653 33.592 82.5893 33.44 81.9653 33.44C81.3573 33.44 80.7813 33.6 80.2373 33.92C79.7093 34.224 79.2773 34.672 78.9413 35.264C78.6213 35.856 78.4613 36.552 78.4613 37.352C78.4613 38.152 78.6213 38.848 78.9413 39.44C79.2773 40.032 79.7093 40.488 80.2373 40.808C80.7813 41.112 81.3573 41.264 81.9653 41.264C82.5893 41.264 83.1653 41.104 83.6933 40.784C84.2373 40.464 84.6693 40.008 84.9893 39.416C85.3253 38.824 85.4933 38.12 85.4933 37.304ZM94.7269 26.24V44H91.3669V26.24H94.7269ZM110.767 30.704L102.535 50.288H98.9586L101.839 43.664L96.5106 30.704H100.279L103.711 39.992L107.191 30.704H110.767ZM124.242 32.288C123.858 31.584 123.33 31.048 122.658 30.68C121.986 30.312 121.202 30.128 120.306 30.128C119.314 30.128 118.434 30.352 117.666 30.8C116.898 31.248 116.298 31.888 115.866 32.72C115.434 33.552 115.218 34.512 115.218 35.6C115.218 36.72 115.434 37.696 115.866 38.528C116.314 39.36 116.93 40 117.714 40.448C118.498 40.896 119.41 41.12 120.45 41.12C121.73 41.12 122.778 40.784 123.594 40.112C124.41 39.424 124.946 38.472 125.202 37.256H119.442V34.688H128.514V37.616C128.29 38.784 127.81 39.864 127.074 40.856C126.338 41.848 125.386 42.648 124.218 43.256C123.066 43.848 121.77 44.144 120.33 44.144C118.714 44.144 117.25 43.784 115.938 43.064C114.642 42.328 113.618 41.312 112.866 40.016C112.13 38.72 111.762 37.248 111.762 35.6C111.762 33.952 112.13 32.48 112.866 31.184C113.618 29.872 114.642 28.856 115.938 28.136C117.25 27.4 118.706 27.032 120.306 27.032C122.194 27.032 123.834 27.496 125.226 28.424C126.618 29.336 127.578 30.624 128.106 32.288H124.242ZM143.36 37.064C143.36 37.544 143.328 37.976 143.264 38.36H133.544C133.624 39.32 133.96 40.072 134.552 40.616C135.144 41.16 135.872 41.432 136.736 41.432C137.984 41.432 138.872 40.896 139.4 39.824H143.024C142.64 41.104 141.904 42.16 140.816 42.992C139.728 43.808 138.392 44.216 136.808 44.216C135.528 44.216 134.376 43.936 133.352 43.376C132.344 42.8 131.552 41.992 130.976 40.952C130.416 39.912 130.136 38.712 130.136 37.352C130.136 35.976 130.416 34.768 130.976 33.728C131.536 32.688 132.32 31.888 133.328 31.328C134.336 30.768 135.496 30.488 136.808 30.488C138.072 30.488 139.2 30.76 140.192 31.304C141.2 31.848 141.976 32.624 142.52 33.632C143.08 34.624 143.36 35.768 143.36 37.064ZM139.88 36.104C139.864 35.24 139.552 34.552 138.944 34.04C138.336 33.512 137.592 33.248 136.712 33.248C135.88 33.248 135.176 33.504 134.6 34.016C134.04 34.512 133.696 35.208 133.568 36.104H139.88ZM153.18 30.512C154.764 30.512 156.044 31.016 157.02 32.024C157.996 33.016 158.484 34.408 158.484 36.2V44H155.124V36.656C155.124 35.6 154.86 34.792 154.332 34.232C153.804 33.656 153.084 33.368 152.172 33.368C151.244 33.368 150.508 33.656 149.964 34.232C149.436 34.792 149.172 35.6 149.172 36.656V44H145.812V30.704H149.172V32.36C149.62 31.784 150.188 31.336 150.876 31.016C151.58 30.68 152.348 30.512 153.18 30.512ZM163.383 29.12C162.791 29.12 162.295 28.936 161.895 28.568C161.511 28.184 161.319 27.712 161.319 27.152C161.319 26.592 161.511 26.128 161.895 25.76C162.295 25.376 162.791 25.184 163.383 25.184C163.975 25.184 164.463 25.376 164.847 25.76C165.247 26.128 165.447 26.592 165.447 27.152C165.447 27.712 165.247 28.184 164.847 28.568C164.463 28.936 163.975 29.12 163.383 29.12ZM165.039 30.704V44H161.679V30.704H165.039ZM180.911 30.704V44H177.527V42.32C177.095 42.896 176.527 43.352 175.823 43.688C175.135 44.008 174.383 44.168 173.567 44.168C172.527 44.168 171.607 43.952 170.807 43.52C170.007 43.072 169.375 42.424 168.911 41.576C168.463 40.712 168.239 39.688 168.239 38.504V30.704H171.599V38.024C171.599 39.08 171.863 39.896 172.391 40.472C172.919 41.032 173.639 41.312 174.551 41.312C175.479 41.312 176.207 41.032 176.735 40.472C177.263 39.896 177.527 39.08 177.527 38.024V30.704H180.911ZM189.314 44.216C188.226 44.216 187.25 44.024 186.386 43.64C185.522 43.24 184.834 42.704 184.322 42.032C183.826 41.36 183.554 40.616 183.506 39.8H186.89C186.954 40.312 187.202 40.736 187.634 41.072C188.082 41.408 188.634 41.576 189.29 41.576C189.93 41.576 190.426 41.448 190.778 41.192C191.146 40.936 191.33 40.608 191.33 40.208C191.33 39.776 191.106 39.456 190.658 39.248C190.226 39.024 189.53 38.784 188.57 38.528C187.578 38.288 186.762 38.04 186.122 37.784C185.498 37.528 184.954 37.136 184.49 36.608C184.042 36.08 183.818 35.368 183.818 34.472C183.818 33.736 184.026 33.064 184.442 32.456C184.874 31.848 185.482 31.368 186.266 31.016C187.066 30.664 188.002 30.488 189.074 30.488C190.658 30.488 191.922 30.888 192.866 31.688C193.81 32.472 194.33 33.536 194.426 34.88H191.21C191.162 34.352 190.938 33.936 190.538 33.632C190.154 33.312 189.634 33.152 188.978 33.152C188.37 33.152 187.898 33.264 187.562 33.488C187.242 33.712 187.082 34.024 187.082 34.424C187.082 34.872 187.306 35.216 187.754 35.456C188.202 35.68 188.898 35.912 189.842 36.152C190.802 36.392 191.594 36.64 192.218 36.896C192.842 37.152 193.378 37.552 193.826 38.096C194.29 38.624 194.53 39.328 194.546 40.208C194.546 40.976 194.33 41.664 193.898 42.272C193.482 42.88 192.874 43.36 192.074 43.712C191.29 44.048 190.37 44.216 189.314 44.216Z" fill="#222222"/>
<path d="M198.792 44.168C198.184 44.168 197.68 43.984 197.28 43.616C196.896 43.232 196.704 42.76 196.704 42.2C196.704 41.64 196.896 41.176 197.28 40.808C197.68 40.424 198.184 40.232 198.792 40.232C199.384 40.232 199.872 40.424 200.256 40.808C200.64 41.176 200.832 41.64 200.832 42.2C200.832 42.76 200.64 43.232 200.256 43.616C199.872 43.984 199.384 44.168 198.792 44.168ZM202.675 37.304C202.675 35.96 202.939 34.768 203.467 33.728C204.011 32.688 204.739 31.888 205.651 31.328C206.579 30.768 207.611 30.488 208.747 30.488C209.739 30.488 210.603 30.688 211.339 31.088C212.091 31.488 212.691 31.992 213.139 32.6V30.704H216.523V44H213.139V42.056C212.707 42.68 212.107 43.2 211.339 43.616C210.587 44.016 209.715 44.216 208.723 44.216C207.603 44.216 206.579 43.928 205.651 43.352C204.739 42.776 204.011 41.968 203.467 40.928C202.939 39.872 202.675 38.664 202.675 37.304ZM213.139 37.352C213.139 36.536 212.979 35.84 212.659 35.264C212.339 34.672 211.907 34.224 211.363 33.92C210.819 33.6 210.235 33.44 209.611 33.44C208.987 33.44 208.411 33.592 207.883 33.896C207.355 34.2 206.923 34.648 206.587 35.24C206.267 35.816 206.107 36.504 206.107 37.304C206.107 38.104 206.267 38.808 206.587 39.416C206.923 40.008 207.355 40.464 207.883 40.784C208.427 41.104 209.003 41.264 209.611 41.264C210.235 41.264 210.819 41.112 211.363 40.808C211.907 40.488 212.339 40.04 212.659 39.464C212.979 38.872 213.139 38.168 213.139 37.352ZM221.508 29.12C220.916 29.12 220.42 28.936 220.02 28.568C219.636 28.184 219.444 27.712 219.444 27.152C219.444 26.592 219.636 26.128 220.02 25.76C220.42 25.376 220.916 25.184 221.508 25.184C222.1 25.184 222.588 25.376 222.972 25.76C223.372 26.128 223.572 26.592 223.572 27.152C223.572 27.712 223.372 28.184 222.972 28.568C222.588 28.936 222.1 29.12 221.508 29.12ZM223.164 30.704V44H219.804V30.704H223.164Z" fill="black"/>
<circle cx="19" cy="36" r="15" stroke="black" stroke-width="2"/>
<circle cx="19" cy="36" r="10" stroke="black" stroke-width="2"/>
<circle cx="19" cy="36" r="5" stroke="black" stroke-width="2"/>
</svg>
