<svg width="227" height="71" viewBox="0 0 227 71" fill="none" xmlns="http://www.w3.org/2000/svg">
<rect width="227" height="71" fill="white"/>
<path d="M35.96 41.32C33.6133 41.32 31.5973 40.8507 29.912 39.912C28.248 38.952 26.968 37.608 26.072 35.88C25.176 34.1307 24.728 32.072 24.728 29.704C24.728 27.336 25.176 25.288 26.072 23.56C26.968 21.832 28.248 20.4987 29.912 19.56C31.5973 18.6 33.6133 18.12 35.96 18.12C37.4747 18.12 38.904 18.3547 40.248 18.824C41.6133 19.2933 42.7333 19.9653 43.608 20.84L42.264 24.104C41.304 23.2933 40.3227 22.7067 39.32 22.344C38.3173 21.96 37.24 21.768 36.088 21.768C33.8053 21.768 32.0667 22.4613 30.872 23.848C29.6773 25.2133 29.08 27.1653 29.08 29.704C29.08 32.2427 29.6773 34.2053 30.872 35.592C32.0667 36.9787 33.8053 37.672 36.088 37.672C37.24 37.672 38.3173 37.4907 39.32 37.128C40.3227 36.744 41.304 36.1467 42.264 35.336L43.608 38.6C42.7333 39.4533 41.6133 40.1253 40.248 40.616C38.904 41.0853 37.4747 41.32 35.96 41.32ZM47.4255 46.76L50.6895 39.56V41.224L43.8095 25.352H48.0655L52.9295 37.48H51.9695L56.9295 25.352H60.9615L51.5535 46.76H47.4255ZM71.8853 41.32C70.5626 41.32 69.3999 40.9893 68.3973 40.328C67.4159 39.6667 66.7653 38.7813 66.4453 37.672H66.7653V41H62.8613V18.44H66.8613V28.52H66.4773C66.8186 27.4747 67.4799 26.632 68.4613 25.992C69.4426 25.352 70.5839 25.032 71.8853 25.032C73.2719 25.032 74.4773 25.3627 75.5013 26.024C76.5253 26.6853 77.3253 27.624 77.9013 28.84C78.4773 30.0347 78.7653 31.4747 78.7653 33.16C78.7653 34.824 78.4773 36.2747 77.9013 37.512C77.3253 38.728 76.5146 39.6667 75.4693 40.328C74.4453 40.9893 73.2506 41.32 71.8853 41.32ZM70.7653 38.28C71.9599 38.28 72.9199 37.8533 73.6453 37C74.3706 36.1253 74.7333 34.8453 74.7333 33.16C74.7333 31.4533 74.3706 30.184 73.6453 29.352C72.9199 28.4987 71.9599 28.072 70.7653 28.072C69.5706 28.072 68.6106 28.4987 67.8853 29.352C67.1599 30.184 66.7973 31.4533 66.7973 33.16C66.7973 34.8453 67.1599 36.1253 67.8853 37C68.6106 37.8533 69.5706 38.28 70.7653 38.28ZM89.7608 41.32C87.9901 41.32 86.4648 40.9893 85.1848 40.328C83.9048 39.6667 82.9128 38.728 82.2088 37.512C81.5261 36.296 81.1848 34.856 81.1848 33.192C81.1848 31.5707 81.5154 30.152 82.1768 28.936C82.8594 27.72 83.7874 26.7707 84.9608 26.088C86.1554 25.384 87.5101 25.032 89.0248 25.032C90.5181 25.032 91.7981 25.352 92.8648 25.992C93.9314 26.632 94.7528 27.5387 95.3288 28.712C95.9261 29.8853 96.2248 31.2827 96.2248 32.904V34.088H84.4168V31.784H93.4088L92.8968 32.264C92.8968 30.8133 92.5768 29.704 91.9368 28.936C91.2968 28.1467 90.3794 27.752 89.1848 27.752C88.2888 27.752 87.5208 27.9653 86.8808 28.392C86.2621 28.7973 85.7821 29.384 85.4408 30.152C85.1208 30.8987 84.9608 31.7947 84.9608 32.84V33.064C84.9608 34.2373 85.1421 35.208 85.5048 35.976C85.8674 36.744 86.4114 37.32 87.1368 37.704C87.8621 38.088 88.7581 38.28 89.8248 38.28C90.6994 38.28 91.5741 38.152 92.4488 37.896C93.3234 37.6187 94.1234 37.192 94.8488 36.616L95.9688 39.304C95.2221 39.9227 94.2834 40.4133 93.1528 40.776C92.0221 41.1387 90.8914 41.32 89.7608 41.32ZM99.3925 41V25.352H103.297V29.128H102.977C103.275 27.848 103.862 26.8773 104.737 26.216C105.611 25.5333 106.774 25.1387 108.225 25.032L109.441 24.936L109.697 28.328L107.393 28.552C106.091 28.68 105.11 29.0853 104.449 29.768C103.787 30.4293 103.457 31.368 103.457 32.584V41H99.3925Z" fill="black"/>
<path d="M152.232 52.32C151.101 52.32 150.088 52.1067 149.192 51.68C148.317 51.232 147.624 50.6347 147.112 49.888C146.621 49.1413 146.376 48.2987 146.376 47.36C146.376 46.208 146.675 45.3013 147.272 44.64C147.869 43.9573 148.84 43.4667 150.184 43.168C151.528 42.8693 153.331 42.72 155.592 42.72H157.192V45.024H155.624C154.621 45.024 153.779 45.0667 153.096 45.152C152.413 45.216 151.859 45.3333 151.432 45.504C151.027 45.6533 150.728 45.8667 150.536 46.144C150.365 46.4213 150.28 46.7627 150.28 47.168C150.28 47.872 150.525 48.448 151.016 48.896C151.507 49.344 152.189 49.568 153.064 49.568C153.768 49.568 154.387 49.408 154.92 49.088C155.475 48.7467 155.912 48.288 156.232 47.712C156.552 47.136 156.712 46.4747 156.712 45.728V42.048C156.712 40.9813 156.477 40.2133 156.008 39.744C155.539 39.2747 154.749 39.04 153.64 39.04C152.765 39.04 151.869 39.1787 150.952 39.456C150.035 39.712 149.107 40.1173 148.168 40.672L147.016 37.952C147.571 37.568 148.221 37.2373 148.968 36.96C149.736 36.6613 150.536 36.4373 151.368 36.288C152.221 36.1173 153.021 36.032 153.768 36.032C155.304 36.032 156.563 36.2667 157.544 36.736C158.547 37.2053 159.293 37.92 159.784 38.88C160.275 39.8187 160.52 41.0347 160.52 42.528V52H156.776V48.672H157.032C156.883 49.4187 156.584 50.0693 156.136 50.624C155.709 51.1573 155.165 51.5733 154.504 51.872C153.843 52.1707 153.085 52.32 152.232 52.32ZM170.244 52.32C168.943 52.32 167.865 52.0853 167.012 51.616C166.159 51.1253 165.519 50.4 165.092 49.44C164.687 48.48 164.484 47.2853 164.484 45.856V36.352H168.484V45.92C168.484 46.6453 168.58 47.2533 168.772 47.744C168.985 48.2347 169.295 48.5973 169.7 48.832C170.127 49.0667 170.66 49.184 171.3 49.184C172.025 49.184 172.655 49.024 173.188 48.704C173.743 48.3627 174.169 47.8933 174.468 47.296C174.788 46.6773 174.948 45.9627 174.948 45.152V36.352H178.948V52H175.044V48.736H175.492C175.044 49.888 174.361 50.7733 173.444 51.392C172.548 52.0107 171.481 52.32 170.244 52.32ZM188.551 52.32C186.695 52.32 185.319 51.8187 184.423 50.816C183.549 49.792 183.111 48.2987 183.111 46.336V29.44H187.111V46.144C187.111 46.7627 187.197 47.296 187.367 47.744C187.559 48.1707 187.837 48.4907 188.199 48.704C188.562 48.9173 189.01 49.024 189.543 49.024C189.778 49.024 190.013 49.0133 190.247 48.992C190.482 48.9707 190.706 48.928 190.919 48.864L190.855 52.032C190.471 52.1173 190.087 52.1813 189.703 52.224C189.341 52.288 188.957 52.32 188.551 52.32ZM200.092 52.32C198.001 52.32 196.444 51.7973 195.42 50.752C194.396 49.7067 193.884 48.1813 193.884 46.176V39.36H190.876V36.352H193.884V31.68H197.884V36.352H202.62V39.36H197.884V45.952C197.884 46.976 198.108 47.744 198.556 48.256C199.004 48.768 199.729 49.024 200.732 49.024C201.03 49.024 201.34 48.992 201.66 48.928C201.98 48.8427 202.31 48.7573 202.652 48.672L203.26 51.616C202.876 51.8293 202.385 52 201.788 52.128C201.212 52.256 200.646 52.32 200.092 52.32Z" fill="black"/>
<path d="M129.2 52C129.2 52 142.4 45.4 142.4 35.5V23.95L129.2 19L116 23.95V35.5C116 45.4 129.2 52 129.2 52Z" stroke="#1E1E1E" stroke-width="3" stroke-linecap="round" stroke-linejoin="round"/>
<path d="M126.867 36.0442L123.045 29.7013C122.216 30.926 121.773 32.3716 121.775 33.8508C121.775 34.614 121.891 35.3507 122.106 36.0442H126.867ZM128.473 30.7026H135.922C134.965 28.6677 133.112 27.1361 130.873 26.6184L128.473 30.7026ZM126.081 33.0014L129.925 26.4617C129.684 26.4379 129.442 26.426 129.2 26.4258C126.986 26.4258 124.997 27.4008 123.635 28.9426L126.081 33.0014ZM127.63 41.0422L129.981 36.9415H122.451C123.439 39.0892 125.421 40.6872 127.805 41.1427L127.63 41.0422ZM131.521 31.5999L135.274 38.1127C136.154 36.8658 136.626 35.3769 136.625 33.8508C136.625 33.0869 136.507 32.3276 136.275 31.5999H131.521ZM132.286 34.725L128.547 41.2456C128.763 41.2644 128.98 41.2758 129.2 41.2758C131.363 41.2758 133.313 40.3453 134.671 38.864L132.286 34.725Z" fill="black"/>
</svg>
