<svg xmlns="http://www.w3.org/2000/svg" xmlns:xlink="http://www.w3.org/1999/xlink" width="100" zoomAndPan="magnify" viewBox="0 0 75 74.999997" height="100" preserveAspectRatio="xMidYMid meet" version="1.0"><defs><clipPath id="7af96e5abf"><path d="M 7.5 51 L 34 51 L 34 59 L 7.5 59 Z M 7.5 51 " clip-rule="nonzero"/></clipPath><clipPath id="5f6d2b81e4"><path d="M 45 46 L 75 46 L 75 63.75 L 45 63.75 Z M 45 46 " clip-rule="nonzero"/></clipPath><clipPath id="67244e250c"><path d="M 24 7.5 L 58 7.5 L 58 35 L 24 35 Z M 24 7.5 " clip-rule="nonzero"/></clipPath></defs><rect x="-7.5" width="90" fill="#ffffff" y="-7.5" height="89.999996" fill-opacity="1"/><rect x="-7.5" width="90" fill="#ffffff" y="-7.5" height="89.999996" fill-opacity="1"/><rect x="-7.5" width="90" fill="#d7f8bf" y="-7.5" height="89.999996" fill-opacity="1"/><path fill="#43a670" d="M 50.539062 36.785156 C 49.9375 44.578125 43.664062 50.804688 35.816406 51.402344 L 35.816406 58.769531 C 42.765625 58.414062 49.089844 55.085938 53.3125 49.503906 C 56.125 45.789062 57.707031 41.410156 57.945312 36.785156 L 50.539062 36.785156 " fill-opacity="1" fill-rule="nonzero"/><g clip-path="url(#7af96e5abf)"><path fill="#43a670" d="M 7.476562 52.6875 L 7.476562 57.578125 C 7.476562 58.253906 8.03125 58.800781 8.707031 58.800781 L 33.351562 58.800781 L 33.351562 51.464844 L 8.707031 51.464844 C 8.03125 51.464844 7.476562 52.011719 7.476562 52.6875 " fill-opacity="1" fill-rule="nonzero"/></g><path fill="#43a670" d="M 26.082031 49.015625 C 21.90625 46.402344 19.027344 41.941406 18.628906 36.785156 L 11.222656 36.785156 C 11.453125 41.210938 12.917969 45.40625 15.515625 49.015625 L 26.082031 49.015625 " fill-opacity="1" fill-rule="nonzero"/><path fill="#43a670" d="M 22.285156 15.792969 C 15.832031 19.75 11.625 26.652344 11.222656 34.339844 L 18.613281 34.339844 C 19.027344 28.964844 22.132812 24.210938 26.878906 21.640625 L 23.003906 17.777344 C 22.460938 17.230469 22.226562 16.5 22.285156 15.792969 " fill-opacity="1" fill-rule="nonzero"/><g clip-path="url(#5f6d2b81e4)"><path fill="#43a670" d="M 66.617188 51.464844 L 54.890625 51.464844 C 52.359375 54.648438 49.195312 57.132812 45.632812 58.800781 L 66.617188 58.800781 C 67.296875 58.800781 67.851562 59.351562 67.851562 60.023438 L 67.851562 63.621094 L 76.457031 55.183594 C 76.484375 55.15625 76.484375 55.109375 76.449219 55.070312 L 67.953125 46.589844 L 67.851562 50.242188 C 67.851562 50.914062 67.296875 51.464844 66.617188 51.464844 " fill-opacity="1" fill-rule="nonzero"/></g><g clip-path="url(#67244e250c)"><path fill="#43a670" d="M 24.75 15.953125 L 29.851562 21.136719 C 29.851562 21.140625 29.851562 21.140625 29.851562 21.140625 L 33.25 24.539062 L 33.351562 20.886719 C 33.351562 20.214844 33.90625 19.664062 34.582031 19.664062 C 43 19.664062 49.902344 26.140625 50.539062 34.339844 L 57.929688 34.339844 C 57.285156 22.097656 47.078125 12.324219 34.582031 12.324219 C 33.90625 12.324219 33.351562 11.777344 33.351562 11.101562 L 33.351562 7.503906 L 24.75 15.953125 " fill-opacity="1" fill-rule="nonzero"/></g></svg>