<svg width="216" height="61" viewBox="0 0 216 61" fill="none" xmlns="http://www.w3.org/2000/svg">
<rect width="216" height="61" fill="white"/>
<path d="M48.464 42V19.44H52.56V42H48.464ZM57.08 42V26.352H60.984V29.488H60.632C61.1013 28.3573 61.8267 27.504 62.808 26.928C63.8107 26.3307 64.9413 26.032 66.2 26.032C67.4587 26.032 68.4933 26.2667 69.304 26.736C70.1147 27.2053 70.7227 27.92 71.128 28.88C71.5333 29.8187 71.736 31.0133 71.736 32.464V42H67.736V32.656C67.736 31.8453 67.6293 31.184 67.416 30.672C67.224 30.16 66.9147 29.7867 66.488 29.552C66.0827 29.296 65.56 29.168 64.92 29.168C64.152 29.168 63.48 29.3387 62.904 29.68C62.328 30 61.88 30.4693 61.56 31.088C61.24 31.6853 61.08 32.3893 61.08 33.2V42H57.08ZM82.9668 42.32C80.8761 42.32 79.3188 41.7973 78.2948 40.752C77.2708 39.7067 76.7588 38.1813 76.7588 36.176V29.36H73.7508V26.352H76.7588V21.68H80.7588V26.352H85.4948V29.36H80.7588V35.952C80.7588 36.976 80.9828 37.744 81.4308 38.256C81.8788 38.768 82.6041 39.024 83.6068 39.024C83.9054 39.024 84.2148 38.992 84.5348 38.928C84.8548 38.8427 85.1854 38.7573 85.5268 38.672L86.1348 41.616C85.7508 41.8293 85.2601 42 84.6628 42.128C84.0868 42.256 83.5214 42.32 82.9668 42.32ZM95.0598 42.32C93.4384 42.32 92.0304 41.9893 90.8358 41.328C89.6411 40.6667 88.7131 39.728 88.0518 38.512C87.3904 37.2747 87.0598 35.824 87.0598 34.16C87.0598 32.496 87.3904 31.056 88.0518 29.84C88.7131 28.624 89.6411 27.6853 90.8358 27.024C92.0304 26.3627 93.4384 26.032 95.0598 26.032C96.6811 26.032 98.0891 26.3627 99.2838 27.024C100.478 27.6853 101.406 28.624 102.068 29.84C102.729 31.056 103.06 32.496 103.06 34.16C103.06 35.824 102.729 37.2747 102.068 38.512C101.406 39.728 100.478 40.6667 99.2838 41.328C98.0891 41.9893 96.6811 42.32 95.0598 42.32ZM95.0598 39.28C96.2544 39.28 97.2144 38.8533 97.9398 38C98.6651 37.1253 99.0278 35.8453 99.0278 34.16C99.0278 32.4533 98.6651 31.184 97.9398 30.352C97.2144 29.4987 96.2544 29.072 95.0598 29.072C93.8651 29.072 92.9051 29.4987 92.1798 30.352C91.4544 31.184 91.0918 32.4533 91.0918 34.16C91.0918 35.8453 91.4544 37.1253 92.1798 38C92.9051 38.8533 93.8651 39.28 95.0598 39.28ZM106.745 42V19.44H110.841V38.512H121.657V42H106.745ZM131.886 42.32C130.115 42.32 128.59 41.9893 127.31 41.328C126.03 40.6667 125.038 39.728 124.334 38.512C123.651 37.296 123.31 35.856 123.31 34.192C123.31 32.5707 123.64 31.152 124.302 29.936C124.984 28.72 125.912 27.7707 127.086 27.088C128.28 26.384 129.635 26.032 131.15 26.032C132.643 26.032 133.923 26.352 134.99 26.992C136.056 27.632 136.878 28.5387 137.454 29.712C138.051 30.8853 138.35 32.2827 138.35 33.904V35.088H126.542V32.784H135.534L135.022 33.264C135.022 31.8133 134.702 30.704 134.062 29.936C133.422 29.1467 132.504 28.752 131.31 28.752C130.414 28.752 129.646 28.9653 129.006 29.392C128.387 29.7973 127.907 30.384 127.566 31.152C127.246 31.8987 127.086 32.7947 127.086 33.84V34.064C127.086 35.2373 127.267 36.208 127.63 36.976C127.992 37.744 128.536 38.32 129.262 38.704C129.987 39.088 130.883 39.28 131.95 39.28C132.824 39.28 133.699 39.152 134.574 38.896C135.448 38.6187 136.248 38.192 136.974 37.616L138.094 40.304C137.347 40.9227 136.408 41.4133 135.278 41.776C134.147 42.1387 133.016 42.32 131.886 42.32ZM146.67 42.32C145.539 42.32 144.526 42.1067 143.63 41.68C142.755 41.232 142.062 40.6347 141.549 39.888C141.059 39.1413 140.814 38.2987 140.814 37.36C140.814 36.208 141.112 35.3013 141.71 34.64C142.307 33.9573 143.278 33.4667 144.622 33.168C145.966 32.8693 147.768 32.72 150.03 32.72H151.63V35.024H150.062C149.059 35.024 148.216 35.0667 147.534 35.152C146.851 35.216 146.296 35.3333 145.87 35.504C145.464 35.6533 145.166 35.8667 144.974 36.144C144.803 36.4213 144.718 36.7627 144.718 37.168C144.718 37.872 144.963 38.448 145.454 38.896C145.944 39.344 146.627 39.568 147.502 39.568C148.206 39.568 148.824 39.408 149.358 39.088C149.912 38.7467 150.35 38.288 150.67 37.712C150.99 37.136 151.15 36.4747 151.15 35.728V32.048C151.15 30.9813 150.915 30.2133 150.446 29.744C149.976 29.2747 149.187 29.04 148.078 29.04C147.203 29.04 146.307 29.1787 145.39 29.456C144.472 29.712 143.544 30.1173 142.606 30.672L141.454 27.952C142.008 27.568 142.659 27.2373 143.406 26.96C144.174 26.6613 144.974 26.4373 145.806 26.288C146.659 26.1173 147.459 26.032 148.206 26.032C149.742 26.032 151 26.2667 151.982 26.736C152.984 27.2053 153.731 27.92 154.222 28.88C154.712 29.8187 154.958 31.0347 154.958 32.528V42H151.214V38.672H151.47C151.32 39.4187 151.022 40.0693 150.574 40.624C150.147 41.1573 149.603 41.5733 148.942 41.872C148.28 42.1707 147.523 42.32 146.67 42.32ZM165.034 42.32C163.668 42.32 162.463 41.9893 161.418 41.328C160.394 40.6667 159.594 39.728 159.018 38.512C158.442 37.2747 158.154 35.824 158.154 34.16C158.154 32.4747 158.442 31.0347 159.018 29.84C159.594 28.624 160.394 27.6853 161.418 27.024C162.463 26.3627 163.668 26.032 165.034 26.032C166.335 26.032 167.466 26.352 168.426 26.992C169.407 27.632 170.068 28.4747 170.41 29.52H170.058V19.44H174.058V42H170.154V38.672H170.442C170.122 39.7813 169.471 40.6667 168.49 41.328C167.508 41.9893 166.356 42.32 165.034 42.32ZM166.154 39.28C167.348 39.28 168.308 38.8533 169.034 38C169.759 37.1253 170.122 35.8453 170.122 34.16C170.122 32.4533 169.759 31.184 169.034 30.352C168.308 29.4987 167.348 29.072 166.154 29.072C164.959 29.072 163.999 29.4987 163.274 30.352C162.548 31.184 162.186 32.4533 162.186 34.16C162.186 35.8453 162.548 37.1253 163.274 38C163.999 38.8533 164.959 39.28 166.154 39.28ZM183.933 42.32C183.058 42.32 182.205 42.2453 181.373 42.096C180.562 41.9467 179.816 41.744 179.133 41.488C178.45 41.2107 177.853 40.8693 177.341 40.464L178.365 37.84C178.898 38.1813 179.474 38.48 180.093 38.736C180.712 38.992 181.352 39.184 182.013 39.312C182.674 39.44 183.325 39.504 183.965 39.504C184.989 39.504 185.746 39.3333 186.237 38.992C186.749 38.6293 187.005 38.16 187.005 37.584C187.005 37.0933 186.834 36.72 186.493 36.464C186.173 36.1867 185.682 35.984 185.021 35.856L181.821 35.248C180.498 34.992 179.485 34.512 178.781 33.808C178.098 33.0827 177.757 32.1547 177.757 31.024C177.757 30 178.034 29.1147 178.589 28.368C179.165 27.6213 179.954 27.0453 180.957 26.64C181.96 26.2347 183.112 26.032 184.413 26.032C185.16 26.032 185.885 26.1067 186.589 26.256C187.293 26.384 187.954 26.5867 188.573 26.864C189.213 27.12 189.768 27.4613 190.237 27.888L189.149 30.512C188.744 30.1707 188.274 29.8827 187.741 29.648C187.208 29.392 186.653 29.2 186.077 29.072C185.522 28.9227 184.978 28.848 184.445 28.848C183.4 28.848 182.621 29.0293 182.109 29.392C181.618 29.7547 181.373 30.2347 181.373 30.832C181.373 31.28 181.522 31.6533 181.821 31.952C182.12 32.2507 182.578 32.4533 183.197 32.56L186.397 33.168C187.784 33.424 188.829 33.8933 189.533 34.576C190.258 35.2587 190.621 36.176 190.621 37.328C190.621 38.3733 190.344 39.2693 189.789 40.016C189.234 40.7627 188.456 41.3387 187.453 41.744C186.45 42.128 185.277 42.32 183.933 42.32Z" fill="black"/>
<path d="M18.5858 37.1424C17.8047 37.9235 17.8047 39.1898 18.5858 39.9709C19.3668 40.7519 20.6332 40.7519 21.4142 39.9709L18.5858 37.1424ZM37.5563 23.0003C37.5563 21.8957 36.6609 21.0003 35.5563 21.0003H17.5563C16.4518 21.0003 15.5563 21.8957 15.5563 23.0003C15.5563 24.1049 16.4518 25.0003 17.5563 25.0003H33.5563V41.0003C33.5563 42.1049 34.4518 43.0003 35.5563 43.0003C36.6609 43.0003 37.5563 42.1049 37.5563 41.0003V23.0003ZM21.4142 39.9709L36.9706 24.4145L34.1421 21.5861L18.5858 37.1424L21.4142 39.9709Z" fill="black"/>
<path d="M27.2406 27.3353L25.4645 29.0947L28.9834 32.6468L30.7594 30.8874L27.2406 27.3353ZM32.8907 28.776C33.8716 27.8043 33.879 26.2214 32.9073 25.2405C31.9356 24.2597 30.3527 24.2522 29.3718 25.2239L32.8907 28.776ZM30.7594 30.8874L32.8907 28.776L29.3718 25.2239L27.2406 27.3353L30.7594 30.8874Z" fill="white"/>
</svg>
