<svg width="227" height="71" viewBox="0 0 227 71" fill="none" xmlns="http://www.w3.org/2000/svg">
<rect width="227" height="71" fill="white"/>
<path d="M55.464 47V24.44H59.56V47H55.464ZM64.08 47V31.352H67.984V34.488H67.632C68.1013 33.3573 68.8267 32.504 69.808 31.928C70.8107 31.3307 71.9413 31.032 73.2 31.032C74.4587 31.032 75.4933 31.2667 76.304 31.736C77.1147 32.2053 77.7227 32.92 78.128 33.88C78.5333 34.8187 78.736 36.0133 78.736 37.464V47H74.736V37.656C74.736 36.8453 74.6293 36.184 74.416 35.672C74.224 35.16 73.9147 34.7867 73.488 34.552C73.0827 34.296 72.56 34.168 71.92 34.168C71.152 34.168 70.48 34.3387 69.904 34.68C69.328 35 68.88 35.4693 68.56 36.088C68.24 36.6853 68.08 37.3893 68.08 38.2V47H64.08ZM89.9668 47.32C87.8761 47.32 86.3188 46.7973 85.2948 45.752C84.2708 44.7067 83.7588 43.1813 83.7588 41.176V34.36H80.7508V31.352H83.7588V26.68H87.7588V31.352H92.4948V34.36H87.7588V40.952C87.7588 41.976 87.9828 42.744 88.4308 43.256C88.8788 43.768 89.6041 44.024 90.6068 44.024C90.9054 44.024 91.2148 43.992 91.5348 43.928C91.8548 43.8427 92.1854 43.7573 92.5268 43.672L93.1348 46.616C92.7508 46.8293 92.2601 47 91.6628 47.128C91.0868 47.256 90.5214 47.32 89.9668 47.32ZM102.06 47.32C100.438 47.32 99.0304 46.9893 97.8358 46.328C96.6411 45.6667 95.7131 44.728 95.0518 43.512C94.3904 42.2747 94.0598 40.824 94.0598 39.16C94.0598 37.496 94.3904 36.056 95.0518 34.84C95.7131 33.624 96.6411 32.6853 97.8358 32.024C99.0304 31.3627 100.438 31.032 102.06 31.032C103.681 31.032 105.089 31.3627 106.284 32.024C107.478 32.6853 108.406 33.624 109.068 34.84C109.729 36.056 110.06 37.496 110.06 39.16C110.06 40.824 109.729 42.2747 109.068 43.512C108.406 44.728 107.478 45.6667 106.284 46.328C105.089 46.9893 103.681 47.32 102.06 47.32ZM102.06 44.28C103.254 44.28 104.214 43.8533 104.94 43C105.665 42.1253 106.028 40.8453 106.028 39.16C106.028 37.4533 105.665 36.184 104.94 35.352C104.214 34.4987 103.254 34.072 102.06 34.072C100.865 34.072 99.9051 34.4987 99.1798 35.352C98.4544 36.184 98.0918 37.4533 98.0918 39.16C98.0918 40.8453 98.4544 42.1253 99.1798 43C99.9051 43.8533 100.865 44.28 102.06 44.28ZM113.745 47V24.44H117.841V43.512H128.657V47H113.745ZM138.886 47.32C137.115 47.32 135.59 46.9893 134.31 46.328C133.03 45.6667 132.038 44.728 131.334 43.512C130.651 42.296 130.31 40.856 130.31 39.192C130.31 37.5707 130.64 36.152 131.302 34.936C131.984 33.72 132.912 32.7707 134.086 32.088C135.28 31.384 136.635 31.032 138.15 31.032C139.643 31.032 140.923 31.352 141.99 31.992C143.056 32.632 143.878 33.5387 144.454 34.712C145.051 35.8853 145.35 37.2827 145.35 38.904V40.088H133.542V37.784H142.534L142.022 38.264C142.022 36.8133 141.702 35.704 141.062 34.936C140.422 34.1467 139.504 33.752 138.31 33.752C137.414 33.752 136.646 33.9653 136.006 34.392C135.387 34.7973 134.907 35.384 134.566 36.152C134.246 36.8987 134.086 37.7947 134.086 38.84V39.064C134.086 40.2373 134.267 41.208 134.63 41.976C134.992 42.744 135.536 43.32 136.262 43.704C136.987 44.088 137.883 44.28 138.95 44.28C139.824 44.28 140.699 44.152 141.574 43.896C142.448 43.6187 143.248 43.192 143.974 42.616L145.094 45.304C144.347 45.9227 143.408 46.4133 142.278 46.776C141.147 47.1387 140.016 47.32 138.886 47.32ZM153.67 47.32C152.539 47.32 151.526 47.1067 150.63 46.68C149.755 46.232 149.062 45.6347 148.549 44.888C148.059 44.1413 147.814 43.2987 147.814 42.36C147.814 41.208 148.112 40.3013 148.71 39.64C149.307 38.9573 150.278 38.4667 151.622 38.168C152.966 37.8693 154.768 37.72 157.03 37.72H158.63V40.024H157.062C156.059 40.024 155.216 40.0667 154.534 40.152C153.851 40.216 153.296 40.3333 152.87 40.504C152.464 40.6533 152.166 40.8667 151.974 41.144C151.803 41.4213 151.718 41.7627 151.718 42.168C151.718 42.872 151.963 43.448 152.454 43.896C152.944 44.344 153.627 44.568 154.502 44.568C155.206 44.568 155.824 44.408 156.358 44.088C156.912 43.7467 157.35 43.288 157.67 42.712C157.99 42.136 158.15 41.4747 158.15 40.728V37.048C158.15 35.9813 157.915 35.2133 157.446 34.744C156.976 34.2747 156.187 34.04 155.078 34.04C154.203 34.04 153.307 34.1787 152.39 34.456C151.472 34.712 150.544 35.1173 149.606 35.672L148.454 32.952C149.008 32.568 149.659 32.2373 150.406 31.96C151.174 31.6613 151.974 31.4373 152.806 31.288C153.659 31.1173 154.459 31.032 155.206 31.032C156.742 31.032 158 31.2667 158.982 31.736C159.984 32.2053 160.731 32.92 161.222 33.88C161.712 34.8187 161.958 36.0347 161.958 37.528V47H158.214V43.672H158.47C158.32 44.4187 158.022 45.0693 157.574 45.624C157.147 46.1573 156.603 46.5733 155.942 46.872C155.28 47.1707 154.523 47.32 153.67 47.32ZM172.034 47.32C170.668 47.32 169.463 46.9893 168.418 46.328C167.394 45.6667 166.594 44.728 166.018 43.512C165.442 42.2747 165.154 40.824 165.154 39.16C165.154 37.4747 165.442 36.0347 166.018 34.84C166.594 33.624 167.394 32.6853 168.418 32.024C169.463 31.3627 170.668 31.032 172.034 31.032C173.335 31.032 174.466 31.352 175.426 31.992C176.407 32.632 177.068 33.4747 177.41 34.52H177.058V24.44H181.058V47H177.154V43.672H177.442C177.122 44.7813 176.471 45.6667 175.49 46.328C174.508 46.9893 173.356 47.32 172.034 47.32ZM173.154 44.28C174.348 44.28 175.308 43.8533 176.034 43C176.759 42.1253 177.122 40.8453 177.122 39.16C177.122 37.4533 176.759 36.184 176.034 35.352C175.308 34.4987 174.348 34.072 173.154 34.072C171.959 34.072 170.999 34.4987 170.274 35.352C169.548 36.184 169.186 37.4533 169.186 39.16C169.186 40.8453 169.548 42.1253 170.274 43C170.999 43.8533 171.959 44.28 173.154 44.28ZM190.933 47.32C190.058 47.32 189.205 47.2453 188.373 47.096C187.562 46.9467 186.816 46.744 186.133 46.488C185.45 46.2107 184.853 45.8693 184.341 45.464L185.365 42.84C185.898 43.1813 186.474 43.48 187.093 43.736C187.712 43.992 188.352 44.184 189.013 44.312C189.674 44.44 190.325 44.504 190.965 44.504C191.989 44.504 192.746 44.3333 193.237 43.992C193.749 43.6293 194.005 43.16 194.005 42.584C194.005 42.0933 193.834 41.72 193.493 41.464C193.173 41.1867 192.682 40.984 192.021 40.856L188.821 40.248C187.498 39.992 186.485 39.512 185.781 38.808C185.098 38.0827 184.757 37.1547 184.757 36.024C184.757 35 185.034 34.1147 185.589 33.368C186.165 32.6213 186.954 32.0453 187.957 31.64C188.96 31.2347 190.112 31.032 191.413 31.032C192.16 31.032 192.885 31.1067 193.589 31.256C194.293 31.384 194.954 31.5867 195.573 31.864C196.213 32.12 196.768 32.4613 197.237 32.888L196.149 35.512C195.744 35.1707 195.274 34.8827 194.741 34.648C194.208 34.392 193.653 34.2 193.077 34.072C192.522 33.9227 191.978 33.848 191.445 33.848C190.4 33.848 189.621 34.0293 189.109 34.392C188.618 34.7547 188.373 35.2347 188.373 35.832C188.373 36.28 188.522 36.6533 188.821 36.952C189.12 37.2507 189.578 37.4533 190.197 37.56L193.397 38.168C194.784 38.424 195.829 38.8933 196.533 39.576C197.258 40.2587 197.621 41.176 197.621 42.328C197.621 43.3733 197.344 44.2693 196.789 45.016C196.234 45.7627 195.456 46.3387 194.453 46.744C193.45 47.128 192.277 47.32 190.933 47.32Z" fill="black"/>
<path d="M25.5858 42.1424C24.8047 42.9235 24.8047 44.1898 25.5858 44.9709C26.3668 45.7519 27.6332 45.7519 28.4142 44.9709L25.5858 42.1424ZM44.5563 28.0003C44.5563 26.8957 43.6609 26.0003 42.5563 26.0003L24.5563 26.0003C23.4518 26.0003 22.5563 26.8957 22.5563 28.0003C22.5563 29.1049 23.4518 30.0003 24.5563 30.0003L40.5563 30.0003L40.5563 46.0003C40.5563 47.1049 41.4518 48.0003 42.5563 48.0003C43.6609 48.0003 44.5563 47.1049 44.5563 46.0003L44.5563 28.0003ZM28.4142 44.9709L43.9706 29.4145L41.1421 26.5861L25.5858 42.1424L28.4142 44.9709Z" fill="black"/>
<path d="M34.2406 32.3353L32.4645 34.0947L35.9834 37.6468L37.7594 35.8874L34.2406 32.3353ZM39.8907 33.776C40.8716 32.8043 40.879 31.2214 39.9073 30.2405C38.9356 29.2597 37.3527 29.2522 36.3718 30.2239L39.8907 33.776ZM37.7594 35.8874L39.8907 33.776L36.3718 30.2239L34.2406 32.3353L37.7594 35.8874Z" fill="white"/>
</svg>
