<svg width="609" height="536" viewBox="0 0 609 536" fill="none" xmlns="http://www.w3.org/2000/svg">
<rect width="609" height="536" rx="16" fill="white"/>
<rect x="0.5" y="0.5" width="608" height="535" rx="15.5" stroke="black" stroke-opacity="0.2"/>
<circle cx="95" cy="61.5" r="4" fill="#C3F7DE"/>
<path d="M108.81 65.12C108.123 65.12 107.53 64.97 107.03 64.67C106.537 64.3633 106.153 63.94 105.88 63.4C105.607 62.8533 105.47 62.22 105.47 61.5C105.47 60.7867 105.607 60.16 105.88 59.62C106.153 59.0733 106.537 58.6467 107.03 58.34C107.53 58.0333 108.123 57.88 108.81 57.88C109.61 57.88 110.26 58.0733 110.76 58.46C111.267 58.84 111.59 59.3733 111.73 60.06H110.8C110.693 59.6267 110.473 59.28 110.14 59.02C109.813 58.7533 109.37 58.62 108.81 58.62C108.31 58.62 107.873 58.7367 107.5 58.97C107.127 59.1967 106.837 59.5267 106.63 59.96C106.43 60.3867 106.33 60.9 106.33 61.5C106.33 62.1 106.43 62.6167 106.63 63.05C106.837 63.4767 107.127 63.8067 107.5 64.04C107.873 64.2667 108.31 64.38 108.81 64.38C109.37 64.38 109.813 64.2533 110.14 64C110.473 63.74 110.693 63.3967 110.8 62.97H111.73C111.59 63.6433 111.267 64.17 110.76 64.55C110.26 64.93 109.61 65.12 108.81 65.12ZM115.147 65.12C114.681 65.12 114.261 65.0133 113.887 64.8C113.514 64.5867 113.217 64.2867 112.997 63.9C112.784 63.5067 112.677 63.0467 112.677 62.52C112.677 61.9933 112.787 61.5367 113.007 61.15C113.227 60.7567 113.524 60.4533 113.897 60.24C114.277 60.0267 114.701 59.92 115.167 59.92C115.634 59.92 116.054 60.0267 116.427 60.24C116.801 60.4533 117.094 60.7567 117.307 61.15C117.527 61.5367 117.637 61.9933 117.637 62.52C117.637 63.0467 117.527 63.5067 117.307 63.9C117.087 64.2867 116.787 64.5867 116.407 64.8C116.034 65.0133 115.614 65.12 115.147 65.12ZM115.147 64.4C115.434 64.4 115.701 64.33 115.947 64.19C116.194 64.05 116.394 63.84 116.547 63.56C116.701 63.28 116.777 62.9333 116.777 62.52C116.777 62.1067 116.701 61.76 116.547 61.48C116.401 61.2 116.204 60.99 115.957 60.85C115.711 60.71 115.447 60.64 115.167 60.64C114.881 60.64 114.614 60.71 114.367 60.85C114.121 60.99 113.921 61.2 113.767 61.48C113.614 61.76 113.537 62.1067 113.537 62.52C113.537 62.9333 113.614 63.28 113.767 63.56C113.921 63.84 114.117 64.05 114.357 64.19C114.604 64.33 114.867 64.4 115.147 64.4ZM118.805 65V60.04H119.565L119.625 60.76C119.785 60.4933 119.999 60.2867 120.265 60.14C120.532 59.9933 120.832 59.92 121.165 59.92C121.559 59.92 121.895 60 122.175 60.16C122.462 60.32 122.682 60.5633 122.835 60.89C123.009 60.59 123.245 60.3533 123.545 60.18C123.852 60.0067 124.182 59.92 124.535 59.92C125.129 59.92 125.602 60.1 125.955 60.46C126.309 60.8133 126.485 61.36 126.485 62.1V65H125.655V62.19C125.655 61.6767 125.552 61.29 125.345 61.03C125.139 60.77 124.842 60.64 124.455 60.64C124.055 60.64 123.722 60.7967 123.455 61.11C123.195 61.4167 123.065 61.8567 123.065 62.43V65H122.225V62.19C122.225 61.6767 122.122 61.29 121.915 61.03C121.709 60.77 121.412 60.64 121.025 60.64C120.632 60.64 120.302 60.7967 120.035 61.11C119.775 61.4167 119.645 61.8567 119.645 62.43V65H118.805ZM127.751 65V60.04H128.511L128.571 60.76C128.731 60.4933 128.944 60.2867 129.211 60.14C129.477 59.9933 129.777 59.92 130.111 59.92C130.504 59.92 130.841 60 131.121 60.16C131.407 60.32 131.627 60.5633 131.781 60.89C131.954 60.59 132.191 60.3533 132.491 60.18C132.797 60.0067 133.127 59.92 133.481 59.92C134.074 59.92 134.547 60.1 134.901 60.46C135.254 60.8133 135.431 61.36 135.431 62.1V65H134.601V62.19C134.601 61.6767 134.497 61.29 134.291 61.03C134.084 60.77 133.787 60.64 133.401 60.64C133.001 60.64 132.667 60.7967 132.401 61.11C132.141 61.4167 132.011 61.8567 132.011 62.43V65H131.171V62.19C131.171 61.6767 131.067 61.29 130.861 61.03C130.654 60.77 130.357 60.64 129.971 60.64C129.577 60.64 129.247 60.7967 128.981 61.11C128.721 61.4167 128.591 61.8567 128.591 62.43V65H127.751ZM137.206 58.94C137.039 58.94 136.899 58.8867 136.786 58.78C136.679 58.6667 136.626 58.5267 136.626 58.36C136.626 58.2 136.679 58.0667 136.786 57.96C136.899 57.8533 137.039 57.8 137.206 57.8C137.366 57.8 137.503 57.8533 137.616 57.96C137.729 58.0667 137.786 58.2 137.786 58.36C137.786 58.5267 137.729 58.6667 137.616 58.78C137.503 58.8867 137.366 58.94 137.206 58.94ZM136.786 65V60.04H137.626V65H136.786ZM141.048 65C140.595 65 140.238 64.89 139.978 64.67C139.718 64.45 139.588 64.0533 139.588 63.48V60.75H138.728V60.04H139.588L139.698 58.85H140.428V60.04H141.888V60.75H140.428V63.48C140.428 63.7933 140.492 64.0067 140.618 64.12C140.745 64.2267 140.968 64.28 141.288 64.28H141.808V65H141.048ZM144.916 65C144.462 65 144.106 64.89 143.846 64.67C143.586 64.45 143.456 64.0533 143.456 63.48V60.75H142.596V60.04H143.456L143.566 58.85H144.296V60.04H145.756V60.75H144.296V63.48C144.296 63.7933 144.359 64.0067 144.486 64.12C144.612 64.2267 144.836 64.28 145.156 64.28H145.676V65H144.916ZM148.916 65.12C148.443 65.12 148.023 65.0133 147.656 64.8C147.289 64.58 146.999 64.2767 146.786 63.89C146.579 63.5033 146.476 63.0467 146.476 62.52C146.476 62 146.579 61.5467 146.786 61.16C146.993 60.7667 147.279 60.4633 147.646 60.25C148.019 60.03 148.449 59.92 148.936 59.92C149.416 59.92 149.829 60.03 150.176 60.25C150.529 60.4633 150.799 60.7467 150.986 61.1C151.173 61.4533 151.266 61.8333 151.266 62.24C151.266 62.3133 151.263 62.3867 151.256 62.46C151.256 62.5333 151.256 62.6167 151.256 62.71H147.306C147.326 63.09 147.413 63.4067 147.566 63.66C147.726 63.9067 147.923 64.0933 148.156 64.22C148.396 64.3467 148.649 64.41 148.916 64.41C149.263 64.41 149.553 64.33 149.786 64.17C150.019 64.01 150.189 63.7933 150.296 63.52H151.126C150.993 63.98 150.736 64.3633 150.356 64.67C149.983 64.97 149.503 65.12 148.916 65.12ZM148.916 60.63C148.516 60.63 148.159 60.7533 147.846 61C147.539 61.24 147.363 61.5933 147.316 62.06H150.436C150.416 61.6133 150.263 61.2633 149.976 61.01C149.689 60.7567 149.336 60.63 148.916 60.63ZM154.629 65.12C154.136 65.12 153.703 65.0067 153.329 64.78C152.963 64.5533 152.676 64.2433 152.469 63.85C152.269 63.4567 152.169 63.01 152.169 62.51C152.169 62.01 152.273 61.5667 152.479 61.18C152.686 60.7867 152.973 60.48 153.339 60.26C153.706 60.0333 154.139 59.92 154.639 59.92C155.046 59.92 155.406 60.0033 155.719 60.17C156.033 60.3367 156.276 60.57 156.449 60.87V57.8H157.289V65H156.529L156.449 64.18C156.289 64.42 156.059 64.6367 155.759 64.83C155.459 65.0233 155.083 65.12 154.629 65.12ZM154.719 64.39C155.053 64.39 155.346 64.3133 155.599 64.16C155.859 64 156.059 63.78 156.199 63.5C156.346 63.22 156.419 62.8933 156.419 62.52C156.419 62.1467 156.346 61.82 156.199 61.54C156.059 61.26 155.859 61.0433 155.599 60.89C155.346 60.73 155.053 60.65 154.719 60.65C154.393 60.65 154.099 60.73 153.839 60.89C153.586 61.0433 153.386 61.26 153.239 61.54C153.099 61.82 153.029 62.1467 153.029 62.52C153.029 62.8933 153.099 63.22 153.239 63.5C153.386 63.78 153.586 64 153.839 64.16C154.099 64.3133 154.393 64.39 154.719 64.39ZM163.265 65C162.812 65 162.455 64.89 162.195 64.67C161.935 64.45 161.805 64.0533 161.805 63.48V60.75H160.945V60.04H161.805L161.915 58.85H162.645V60.04H164.105V60.75H162.645V63.48C162.645 63.7933 162.709 64.0067 162.835 64.12C162.962 64.2267 163.185 64.28 163.505 64.28H164.025V65H163.265ZM166.822 65.12C166.409 65.12 166.066 65.05 165.792 64.91C165.519 64.77 165.316 64.5833 165.182 64.35C165.049 64.1167 164.982 63.8633 164.982 63.59C164.982 63.0833 165.176 62.6933 165.562 62.42C165.949 62.1467 166.476 62.01 167.142 62.01H168.482V61.95C168.482 61.5167 168.369 61.19 168.142 60.97C167.916 60.7433 167.612 60.63 167.232 60.63C166.906 60.63 166.622 60.7133 166.382 60.88C166.149 61.04 166.002 61.2767 165.942 61.59H165.082C165.116 61.23 165.236 60.9267 165.442 60.68C165.656 60.4333 165.919 60.2467 166.232 60.12C166.546 59.9867 166.879 59.92 167.232 59.92C167.926 59.92 168.446 60.1067 168.792 60.48C169.146 60.8467 169.322 61.3367 169.322 61.95V65H168.572L168.522 64.11C168.382 64.39 168.176 64.63 167.902 64.83C167.636 65.0233 167.276 65.12 166.822 65.12ZM166.952 64.41C167.272 64.41 167.546 64.3267 167.772 64.16C168.006 63.9933 168.182 63.7767 168.302 63.51C168.422 63.2433 168.482 62.9633 168.482 62.67V62.66H167.212C166.719 62.66 166.369 62.7467 166.162 62.92C165.962 63.0867 165.862 63.2967 165.862 63.55C165.862 63.81 165.956 64.02 166.142 64.18C166.336 64.3333 166.606 64.41 166.952 64.41ZM172.483 65.12C171.889 65.12 171.396 64.97 171.003 64.67C170.609 64.37 170.379 63.9633 170.313 63.45H171.173C171.226 63.71 171.363 63.9367 171.583 64.13C171.809 64.3167 172.113 64.41 172.493 64.41C172.846 64.41 173.106 64.3367 173.273 64.19C173.439 64.0367 173.523 63.8567 173.523 63.65C173.523 63.35 173.413 63.15 173.193 63.05C172.979 62.95 172.676 62.86 172.283 62.78C172.016 62.7267 171.749 62.65 171.483 62.55C171.216 62.45 170.993 62.31 170.813 62.13C170.633 61.9433 170.543 61.7 170.543 61.4C170.543 60.9667 170.703 60.6133 171.023 60.34C171.349 60.06 171.789 59.92 172.343 59.92C172.869 59.92 173.299 60.0533 173.633 60.32C173.973 60.58 174.169 60.9533 174.223 61.44H173.393C173.359 61.1867 173.249 60.99 173.063 60.85C172.883 60.7033 172.639 60.63 172.333 60.63C172.033 60.63 171.799 60.6933 171.633 60.82C171.473 60.9467 171.393 61.1133 171.393 61.32C171.393 61.52 171.496 61.6767 171.703 61.79C171.916 61.9033 172.203 62 172.563 62.08C172.869 62.1467 173.159 62.23 173.433 62.33C173.713 62.4233 173.939 62.5667 174.113 62.76C174.293 62.9467 174.383 63.22 174.383 63.58C174.389 64.0267 174.219 64.3967 173.873 64.69C173.533 64.9767 173.069 65.12 172.483 65.12ZM175.583 65V57.8H176.423V62.13L178.453 60.04H179.483L177.283 62.28L179.763 65H178.693L176.423 62.43V65H175.583Z" fill="#787486"/>
<circle cx="204" cy="61.5" r="4" fill="#FEDEBC"/>
<path d="M217.81 65.12C217.123 65.12 216.53 64.97 216.03 64.67C215.537 64.3633 215.153 63.94 214.88 63.4C214.607 62.8533 214.47 62.22 214.47 61.5C214.47 60.7867 214.607 60.16 214.88 59.62C215.153 59.0733 215.537 58.6467 216.03 58.34C216.53 58.0333 217.123 57.88 217.81 57.88C218.61 57.88 219.26 58.0733 219.76 58.46C220.267 58.84 220.59 59.3733 220.73 60.06H219.8C219.693 59.6267 219.473 59.28 219.14 59.02C218.813 58.7533 218.37 58.62 217.81 58.62C217.31 58.62 216.873 58.7367 216.5 58.97C216.127 59.1967 215.837 59.5267 215.63 59.96C215.43 60.3867 215.33 60.9 215.33 61.5C215.33 62.1 215.43 62.6167 215.63 63.05C215.837 63.4767 216.127 63.8067 216.5 64.04C216.873 64.2667 217.31 64.38 217.81 64.38C218.37 64.38 218.813 64.2533 219.14 64C219.473 63.74 219.693 63.3967 219.8 62.97H220.73C220.59 63.6433 220.267 64.17 219.76 64.55C219.26 64.93 218.61 65.12 217.81 65.12ZM224.147 65.12C223.681 65.12 223.261 65.0133 222.887 64.8C222.514 64.5867 222.217 64.2867 221.997 63.9C221.784 63.5067 221.677 63.0467 221.677 62.52C221.677 61.9933 221.787 61.5367 222.007 61.15C222.227 60.7567 222.524 60.4533 222.897 60.24C223.277 60.0267 223.701 59.92 224.167 59.92C224.634 59.92 225.054 60.0267 225.427 60.24C225.801 60.4533 226.094 60.7567 226.307 61.15C226.527 61.5367 226.637 61.9933 226.637 62.52C226.637 63.0467 226.527 63.5067 226.307 63.9C226.087 64.2867 225.787 64.5867 225.407 64.8C225.034 65.0133 224.614 65.12 224.147 65.12ZM224.147 64.4C224.434 64.4 224.701 64.33 224.947 64.19C225.194 64.05 225.394 63.84 225.547 63.56C225.701 63.28 225.777 62.9333 225.777 62.52C225.777 62.1067 225.701 61.76 225.547 61.48C225.401 61.2 225.204 60.99 224.957 60.85C224.711 60.71 224.447 60.64 224.167 60.64C223.881 60.64 223.614 60.71 223.367 60.85C223.121 60.99 222.921 61.2 222.767 61.48C222.614 61.76 222.537 62.1067 222.537 62.52C222.537 62.9333 222.614 63.28 222.767 63.56C222.921 63.84 223.117 64.05 223.357 64.19C223.604 64.33 223.867 64.4 224.147 64.4ZM227.805 65V60.04H228.565L228.625 60.76C228.785 60.4933 228.999 60.2867 229.265 60.14C229.532 59.9933 229.832 59.92 230.165 59.92C230.559 59.92 230.895 60 231.175 60.16C231.462 60.32 231.682 60.5633 231.835 60.89C232.009 60.59 232.245 60.3533 232.545 60.18C232.852 60.0067 233.182 59.92 233.535 59.92C234.129 59.92 234.602 60.1 234.955 60.46C235.309 60.8133 235.485 61.36 235.485 62.1V65H234.655V62.19C234.655 61.6767 234.552 61.29 234.345 61.03C234.139 60.77 233.842 60.64 233.455 60.64C233.055 60.64 232.722 60.7967 232.455 61.11C232.195 61.4167 232.065 61.8567 232.065 62.43V65H231.225V62.19C231.225 61.6767 231.122 61.29 230.915 61.03C230.709 60.77 230.412 60.64 230.025 60.64C229.632 60.64 229.302 60.7967 229.035 61.11C228.775 61.4167 228.645 61.8567 228.645 62.43V65H227.805ZM236.751 65V60.04H237.511L237.571 60.76C237.731 60.4933 237.944 60.2867 238.211 60.14C238.477 59.9933 238.777 59.92 239.111 59.92C239.504 59.92 239.841 60 240.121 60.16C240.407 60.32 240.627 60.5633 240.781 60.89C240.954 60.59 241.191 60.3533 241.491 60.18C241.797 60.0067 242.127 59.92 242.481 59.92C243.074 59.92 243.547 60.1 243.901 60.46C244.254 60.8133 244.431 61.36 244.431 62.1V65H243.601V62.19C243.601 61.6767 243.497 61.29 243.291 61.03C243.084 60.77 242.787 60.64 242.401 60.64C242.001 60.64 241.667 60.7967 241.401 61.11C241.141 61.4167 241.011 61.8567 241.011 62.43V65H240.171V62.19C240.171 61.6767 240.067 61.29 239.861 61.03C239.654 60.77 239.357 60.64 238.971 60.64C238.577 60.64 238.247 60.7967 237.981 61.11C237.721 61.4167 237.591 61.8567 237.591 62.43V65H236.751ZM246.206 58.94C246.039 58.94 245.899 58.8867 245.786 58.78C245.679 58.6667 245.626 58.5267 245.626 58.36C245.626 58.2 245.679 58.0667 245.786 57.96C245.899 57.8533 246.039 57.8 246.206 57.8C246.366 57.8 246.503 57.8533 246.616 57.96C246.729 58.0667 246.786 58.2 246.786 58.36C246.786 58.5267 246.729 58.6667 246.616 58.78C246.503 58.8867 246.366 58.94 246.206 58.94ZM245.786 65V60.04H246.626V65H245.786ZM250.048 65C249.595 65 249.238 64.89 248.978 64.67C248.718 64.45 248.588 64.0533 248.588 63.48V60.75H247.728V60.04H248.588L248.698 58.85H249.428V60.04H250.888V60.75H249.428V63.48C249.428 63.7933 249.492 64.0067 249.618 64.12C249.745 64.2267 249.968 64.28 250.288 64.28H250.808V65H250.048ZM253.916 65C253.462 65 253.106 64.89 252.846 64.67C252.586 64.45 252.456 64.0533 252.456 63.48V60.75H251.596V60.04H252.456L252.566 58.85H253.296V60.04H254.756V60.75H253.296V63.48C253.296 63.7933 253.359 64.0067 253.486 64.12C253.612 64.2267 253.836 64.28 254.156 64.28H254.676V65H253.916ZM257.916 65.12C257.443 65.12 257.023 65.0133 256.656 64.8C256.289 64.58 255.999 64.2767 255.786 63.89C255.579 63.5033 255.476 63.0467 255.476 62.52C255.476 62 255.579 61.5467 255.786 61.16C255.993 60.7667 256.279 60.4633 256.646 60.25C257.019 60.03 257.449 59.92 257.936 59.92C258.416 59.92 258.829 60.03 259.176 60.25C259.529 60.4633 259.799 60.7467 259.986 61.1C260.173 61.4533 260.266 61.8333 260.266 62.24C260.266 62.3133 260.263 62.3867 260.256 62.46C260.256 62.5333 260.256 62.6167 260.256 62.71H256.306C256.326 63.09 256.413 63.4067 256.566 63.66C256.726 63.9067 256.923 64.0933 257.156 64.22C257.396 64.3467 257.649 64.41 257.916 64.41C258.263 64.41 258.553 64.33 258.786 64.17C259.019 64.01 259.189 63.7933 259.296 63.52H260.126C259.993 63.98 259.736 64.3633 259.356 64.67C258.983 64.97 258.503 65.12 257.916 65.12ZM257.916 60.63C257.516 60.63 257.159 60.7533 256.846 61C256.539 61.24 256.363 61.5933 256.316 62.06H259.436C259.416 61.6133 259.263 61.2633 258.976 61.01C258.689 60.7567 258.336 60.63 257.916 60.63ZM263.629 65.12C263.136 65.12 262.703 65.0067 262.329 64.78C261.963 64.5533 261.676 64.2433 261.469 63.85C261.269 63.4567 261.169 63.01 261.169 62.51C261.169 62.01 261.273 61.5667 261.479 61.18C261.686 60.7867 261.973 60.48 262.339 60.26C262.706 60.0333 263.139 59.92 263.639 59.92C264.046 59.92 264.406 60.0033 264.719 60.17C265.033 60.3367 265.276 60.57 265.449 60.87V57.8H266.289V65H265.529L265.449 64.18C265.289 64.42 265.059 64.6367 264.759 64.83C264.459 65.0233 264.083 65.12 263.629 65.12ZM263.719 64.39C264.053 64.39 264.346 64.3133 264.599 64.16C264.859 64 265.059 63.78 265.199 63.5C265.346 63.22 265.419 62.8933 265.419 62.52C265.419 62.1467 265.346 61.82 265.199 61.54C265.059 61.26 264.859 61.0433 264.599 60.89C264.346 60.73 264.053 60.65 263.719 60.65C263.393 60.65 263.099 60.73 262.839 60.89C262.586 61.0433 262.386 61.26 262.239 61.54C262.099 61.82 262.029 62.1467 262.029 62.52C262.029 62.8933 262.099 63.22 262.239 63.5C262.386 63.78 262.586 64 262.839 64.16C263.099 64.3133 263.393 64.39 263.719 64.39ZM272.955 65.12C272.549 65.12 272.185 65.0367 271.865 64.87C271.552 64.7033 271.312 64.47 271.145 64.17L271.065 65H270.305V57.8H271.145V60.86C271.305 60.62 271.532 60.4033 271.825 60.21C272.125 60.0167 272.505 59.92 272.965 59.92C273.459 59.92 273.889 60.0333 274.255 60.26C274.622 60.4867 274.905 60.7967 275.105 61.19C275.312 61.5833 275.415 62.03 275.415 62.53C275.415 63.03 275.312 63.4767 275.105 63.87C274.905 64.2567 274.619 64.5633 274.245 64.79C273.879 65.01 273.449 65.12 272.955 65.12ZM272.865 64.39C273.199 64.39 273.492 64.3133 273.745 64.16C273.999 64 274.199 63.78 274.345 63.5C274.492 63.22 274.565 62.8933 274.565 62.52C274.565 62.1467 274.492 61.82 274.345 61.54C274.199 61.26 273.999 61.0433 273.745 60.89C273.492 60.73 273.199 60.65 272.865 60.65C272.532 60.65 272.239 60.73 271.985 60.89C271.732 61.0433 271.532 61.26 271.385 61.54C271.239 61.82 271.165 62.1467 271.165 62.52C271.165 62.8933 271.239 63.22 271.385 63.5C271.532 63.78 271.732 64 271.985 64.16C272.239 64.3133 272.532 64.39 272.865 64.39ZM278.395 65.12C277.808 65.12 277.341 64.9433 276.995 64.59C276.648 64.23 276.475 63.68 276.475 62.94V60.04H277.315V62.85C277.315 63.8833 277.738 64.4 278.585 64.4C279.018 64.4 279.375 64.2467 279.655 63.94C279.941 63.6267 280.085 63.1833 280.085 62.61V60.04H280.925V65H280.165L280.105 64.11C279.951 64.4233 279.721 64.67 279.415 64.85C279.115 65.03 278.775 65.12 278.395 65.12ZM284.267 63.44C283.987 63.44 283.731 63.4033 283.497 63.33L282.997 63.8C283.071 63.8533 283.161 63.9 283.267 63.94C283.381 63.9733 283.541 64.0067 283.747 64.04C283.954 64.0667 284.244 64.0967 284.617 64.13C285.284 64.1767 285.761 64.33 286.047 64.59C286.334 64.85 286.477 65.19 286.477 65.61C286.477 65.8967 286.397 66.17 286.237 66.43C286.084 66.69 285.844 66.9033 285.517 67.07C285.197 67.2367 284.784 67.32 284.277 67.32C283.831 67.32 283.434 67.26 283.087 67.14C282.741 67.0267 282.471 66.85 282.277 66.61C282.084 66.3767 281.987 66.08 281.987 65.72C281.987 65.5333 282.037 65.33 282.137 65.11C282.237 64.8967 282.424 64.6933 282.697 64.5C282.551 64.44 282.424 64.3767 282.317 64.31C282.217 64.2367 282.124 64.1567 282.037 64.07V63.84L282.887 63C282.494 62.6667 282.297 62.2267 282.297 61.68C282.297 61.3533 282.374 61.0567 282.527 60.79C282.681 60.5233 282.904 60.3133 283.197 60.16C283.491 60 283.847 59.92 284.267 59.92C284.554 59.92 284.814 59.96 285.047 60.04H286.877V60.67L285.947 60.71C286.141 60.99 286.237 61.3133 286.237 61.68C286.237 62.0067 286.157 62.3033 285.997 62.57C285.844 62.8367 285.621 63.05 285.327 63.21C285.041 63.3633 284.687 63.44 284.267 63.44ZM284.267 62.75C284.621 62.75 284.901 62.66 285.107 62.48C285.321 62.2933 285.427 62.0267 285.427 61.68C285.427 61.34 285.321 61.08 285.107 60.9C284.901 60.7133 284.621 60.62 284.267 60.62C283.907 60.62 283.621 60.7133 283.407 60.9C283.201 61.08 283.097 61.34 283.097 61.68C283.097 62.0267 283.201 62.2933 283.407 62.48C283.621 62.66 283.907 62.75 284.267 62.75ZM282.807 65.64C282.807 65.9733 282.947 66.22 283.227 66.38C283.507 66.5467 283.857 66.63 284.277 66.63C284.691 66.63 285.021 66.54 285.267 66.36C285.521 66.18 285.647 65.94 285.647 65.64C285.647 65.4267 285.561 65.24 285.387 65.08C285.214 64.9267 284.894 64.8367 284.427 64.81C284.061 64.7833 283.744 64.75 283.477 64.71C283.204 64.8567 283.024 65.0133 282.937 65.18C282.851 65.3533 282.807 65.5067 282.807 65.64Z" fill="#787486"/>
<circle cx="312" cy="61.5" r="4" fill="#AEC9FE"/>
<path d="M325.81 65.12C325.123 65.12 324.53 64.97 324.03 64.67C323.537 64.3633 323.153 63.94 322.88 63.4C322.607 62.8533 322.47 62.22 322.47 61.5C322.47 60.7867 322.607 60.16 322.88 59.62C323.153 59.0733 323.537 58.6467 324.03 58.34C324.53 58.0333 325.123 57.88 325.81 57.88C326.61 57.88 327.26 58.0733 327.76 58.46C328.267 58.84 328.59 59.3733 328.73 60.06H327.8C327.693 59.6267 327.473 59.28 327.14 59.02C326.813 58.7533 326.37 58.62 325.81 58.62C325.31 58.62 324.873 58.7367 324.5 58.97C324.127 59.1967 323.837 59.5267 323.63 59.96C323.43 60.3867 323.33 60.9 323.33 61.5C323.33 62.1 323.43 62.6167 323.63 63.05C323.837 63.4767 324.127 63.8067 324.5 64.04C324.873 64.2667 325.31 64.38 325.81 64.38C326.37 64.38 326.813 64.2533 327.14 64C327.473 63.74 327.693 63.3967 327.8 62.97H328.73C328.59 63.6433 328.267 64.17 327.76 64.55C327.26 64.93 326.61 65.12 325.81 65.12ZM332.147 65.12C331.681 65.12 331.261 65.0133 330.887 64.8C330.514 64.5867 330.217 64.2867 329.997 63.9C329.784 63.5067 329.677 63.0467 329.677 62.52C329.677 61.9933 329.787 61.5367 330.007 61.15C330.227 60.7567 330.524 60.4533 330.897 60.24C331.277 60.0267 331.701 59.92 332.167 59.92C332.634 59.92 333.054 60.0267 333.427 60.24C333.801 60.4533 334.094 60.7567 334.307 61.15C334.527 61.5367 334.637 61.9933 334.637 62.52C334.637 63.0467 334.527 63.5067 334.307 63.9C334.087 64.2867 333.787 64.5867 333.407 64.8C333.034 65.0133 332.614 65.12 332.147 65.12ZM332.147 64.4C332.434 64.4 332.701 64.33 332.947 64.19C333.194 64.05 333.394 63.84 333.547 63.56C333.701 63.28 333.777 62.9333 333.777 62.52C333.777 62.1067 333.701 61.76 333.547 61.48C333.401 61.2 333.204 60.99 332.957 60.85C332.711 60.71 332.447 60.64 332.167 60.64C331.881 60.64 331.614 60.71 331.367 60.85C331.121 60.99 330.921 61.2 330.767 61.48C330.614 61.76 330.537 62.1067 330.537 62.52C330.537 62.9333 330.614 63.28 330.767 63.56C330.921 63.84 331.117 64.05 331.357 64.19C331.604 64.33 331.867 64.4 332.147 64.4ZM335.805 65V60.04H336.565L336.625 60.76C336.785 60.4933 336.999 60.2867 337.265 60.14C337.532 59.9933 337.832 59.92 338.165 59.92C338.559 59.92 338.895 60 339.175 60.16C339.462 60.32 339.682 60.5633 339.835 60.89C340.009 60.59 340.245 60.3533 340.545 60.18C340.852 60.0067 341.182 59.92 341.535 59.92C342.129 59.92 342.602 60.1 342.955 60.46C343.309 60.8133 343.485 61.36 343.485 62.1V65H342.655V62.19C342.655 61.6767 342.552 61.29 342.345 61.03C342.139 60.77 341.842 60.64 341.455 60.64C341.055 60.64 340.722 60.7967 340.455 61.11C340.195 61.4167 340.065 61.8567 340.065 62.43V65H339.225V62.19C339.225 61.6767 339.122 61.29 338.915 61.03C338.709 60.77 338.412 60.64 338.025 60.64C337.632 60.64 337.302 60.7967 337.035 61.11C336.775 61.4167 336.645 61.8567 336.645 62.43V65H335.805ZM344.751 67.2V60.04H345.511L345.591 60.86C345.751 60.62 345.977 60.4033 346.271 60.21C346.571 60.0167 346.951 59.92 347.411 59.92C347.904 59.92 348.334 60.0333 348.701 60.26C349.067 60.4867 349.351 60.7967 349.551 61.19C349.757 61.5833 349.861 62.03 349.861 62.53C349.861 63.03 349.757 63.4767 349.551 63.87C349.351 64.2567 349.064 64.5633 348.691 64.79C348.324 65.01 347.894 65.12 347.401 65.12C346.994 65.12 346.631 65.0367 346.311 64.87C345.997 64.7033 345.757 64.47 345.591 64.17V67.2H344.751ZM347.311 64.39C347.644 64.39 347.937 64.3133 348.191 64.16C348.444 64 348.644 63.78 348.791 63.5C348.937 63.22 349.011 62.8933 349.011 62.52C349.011 62.1467 348.937 61.82 348.791 61.54C348.644 61.26 348.444 61.0433 348.191 60.89C347.937 60.73 347.644 60.65 347.311 60.65C346.977 60.65 346.684 60.73 346.431 60.89C346.177 61.0433 345.977 61.26 345.831 61.54C345.684 61.82 345.611 62.1467 345.611 62.52C345.611 62.8933 345.684 63.22 345.831 63.5C345.977 63.78 346.177 64 346.431 64.16C346.684 64.3133 346.977 64.39 347.311 64.39ZM351.03 65V57.8H351.87V65H351.03ZM355.477 65.12C355.003 65.12 354.583 65.0133 354.217 64.8C353.85 64.58 353.56 64.2767 353.347 63.89C353.14 63.5033 353.037 63.0467 353.037 62.52C353.037 62 353.14 61.5467 353.347 61.16C353.553 60.7667 353.84 60.4633 354.207 60.25C354.58 60.03 355.01 59.92 355.497 59.92C355.977 59.92 356.39 60.03 356.737 60.25C357.09 60.4633 357.36 60.7467 357.547 61.1C357.733 61.4533 357.827 61.8333 357.827 62.24C357.827 62.3133 357.823 62.3867 357.817 62.46C357.817 62.5333 357.817 62.6167 357.817 62.71H353.867C353.887 63.09 353.973 63.4067 354.127 63.66C354.287 63.9067 354.483 64.0933 354.717 64.22C354.957 64.3467 355.21 64.41 355.477 64.41C355.823 64.41 356.113 64.33 356.347 64.17C356.58 64.01 356.75 63.7933 356.857 63.52H357.687C357.553 63.98 357.297 64.3633 356.917 64.67C356.543 64.97 356.063 65.12 355.477 65.12ZM355.477 60.63C355.077 60.63 354.72 60.7533 354.407 61C354.1 61.24 353.923 61.5933 353.877 62.06H356.997C356.977 61.6133 356.823 61.2633 356.537 61.01C356.25 60.7567 355.897 60.63 355.477 60.63ZM360.734 65C360.281 65 359.924 64.89 359.664 64.67C359.404 64.45 359.274 64.0533 359.274 63.48V60.75H358.414V60.04H359.274L359.384 58.85H360.114V60.04H361.574V60.75H360.114V63.48C360.114 63.7933 360.177 64.0067 360.304 64.12C360.431 64.2267 360.654 64.28 360.974 64.28H361.494V65H360.734ZM364.734 65.12C364.261 65.12 363.841 65.0133 363.474 64.8C363.108 64.58 362.818 64.2767 362.604 63.89C362.398 63.5033 362.294 63.0467 362.294 62.52C362.294 62 362.398 61.5467 362.604 61.16C362.811 60.7667 363.098 60.4633 363.464 60.25C363.838 60.03 364.268 59.92 364.754 59.92C365.234 59.92 365.648 60.03 365.994 60.25C366.348 60.4633 366.618 60.7467 366.804 61.1C366.991 61.4533 367.084 61.8333 367.084 62.24C367.084 62.3133 367.081 62.3867 367.074 62.46C367.074 62.5333 367.074 62.6167 367.074 62.71H363.124C363.144 63.09 363.231 63.4067 363.384 63.66C363.544 63.9067 363.741 64.0933 363.974 64.22C364.214 64.3467 364.468 64.41 364.734 64.41C365.081 64.41 365.371 64.33 365.604 64.17C365.838 64.01 366.008 63.7933 366.114 63.52H366.944C366.811 63.98 366.554 64.3633 366.174 64.67C365.801 64.97 365.321 65.12 364.734 65.12ZM364.734 60.63C364.334 60.63 363.978 60.7533 363.664 61C363.358 61.24 363.181 61.5933 363.134 62.06H366.254C366.234 61.6133 366.081 61.2633 365.794 61.01C365.508 60.7567 365.154 60.63 364.734 60.63ZM370.448 65.12C369.954 65.12 369.521 65.0067 369.148 64.78C368.781 64.5533 368.494 64.2433 368.288 63.85C368.088 63.4567 367.988 63.01 367.988 62.51C367.988 62.01 368.091 61.5667 368.298 61.18C368.504 60.7867 368.791 60.48 369.158 60.26C369.524 60.0333 369.958 59.92 370.458 59.92C370.864 59.92 371.224 60.0033 371.538 60.17C371.851 60.3367 372.094 60.57 372.268 60.87V57.8H373.108V65H372.348L372.268 64.18C372.108 64.42 371.878 64.6367 371.578 64.83C371.278 65.0233 370.901 65.12 370.448 65.12ZM370.538 64.39C370.871 64.39 371.164 64.3133 371.418 64.16C371.678 64 371.878 63.78 372.018 63.5C372.164 63.22 372.238 62.8933 372.238 62.52C372.238 62.1467 372.164 61.82 372.018 61.54C371.878 61.26 371.678 61.0433 371.418 60.89C371.164 60.73 370.871 60.65 370.538 60.65C370.211 60.65 369.918 60.73 369.658 60.89C369.404 61.0433 369.204 61.26 369.058 61.54C368.918 61.82 368.848 62.1467 368.848 62.52C368.848 62.8933 368.918 63.22 369.058 63.5C369.204 63.78 369.404 64 369.658 64.16C369.918 64.3133 370.211 64.39 370.538 64.39ZM379.084 65C378.63 65 378.274 64.89 378.014 64.67C377.754 64.45 377.624 64.0533 377.624 63.48V60.75H376.764V60.04H377.624L377.734 58.85H378.464V60.04H379.924V60.75H378.464V63.48C378.464 63.7933 378.527 64.0067 378.654 64.12C378.78 64.2267 379.004 64.28 379.324 64.28H379.844V65H379.084ZM382.641 65.12C382.227 65.12 381.884 65.05 381.611 64.91C381.337 64.77 381.134 64.5833 381.001 64.35C380.867 64.1167 380.801 63.8633 380.801 63.59C380.801 63.0833 380.994 62.6933 381.381 62.42C381.767 62.1467 382.294 62.01 382.961 62.01H384.301V61.95C384.301 61.5167 384.187 61.19 383.961 60.97C383.734 60.7433 383.431 60.63 383.051 60.63C382.724 60.63 382.441 60.7133 382.201 60.88C381.967 61.04 381.821 61.2767 381.761 61.59H380.901C380.934 61.23 381.054 60.9267 381.261 60.68C381.474 60.4333 381.737 60.2467 382.051 60.12C382.364 59.9867 382.697 59.92 383.051 59.92C383.744 59.92 384.264 60.1067 384.611 60.48C384.964 60.8467 385.141 61.3367 385.141 61.95V65H384.391L384.341 64.11C384.201 64.39 383.994 64.63 383.721 64.83C383.454 65.0233 383.094 65.12 382.641 65.12ZM382.771 64.41C383.091 64.41 383.364 64.3267 383.591 64.16C383.824 63.9933 384.001 63.7767 384.121 63.51C384.241 63.2433 384.301 62.9633 384.301 62.67V62.66H383.031C382.537 62.66 382.187 62.7467 381.981 62.92C381.781 63.0867 381.681 63.2967 381.681 63.55C381.681 63.81 381.774 64.02 381.961 64.18C382.154 64.3333 382.424 64.41 382.771 64.41ZM388.301 65.12C387.708 65.12 387.214 64.97 386.821 64.67C386.428 64.37 386.198 63.9633 386.131 63.45H386.991C387.044 63.71 387.181 63.9367 387.401 64.13C387.628 64.3167 387.931 64.41 388.311 64.41C388.664 64.41 388.924 64.3367 389.091 64.19C389.258 64.0367 389.341 63.8567 389.341 63.65C389.341 63.35 389.231 63.15 389.011 63.05C388.798 62.95 388.494 62.86 388.101 62.78C387.834 62.7267 387.568 62.65 387.301 62.55C387.034 62.45 386.811 62.31 386.631 62.13C386.451 61.9433 386.361 61.7 386.361 61.4C386.361 60.9667 386.521 60.6133 386.841 60.34C387.168 60.06 387.608 59.92 388.161 59.92C388.688 59.92 389.118 60.0533 389.451 60.32C389.791 60.58 389.988 60.9533 390.041 61.44H389.211C389.178 61.1867 389.068 60.99 388.881 60.85C388.701 60.7033 388.458 60.63 388.151 60.63C387.851 60.63 387.618 60.6933 387.451 60.82C387.291 60.9467 387.211 61.1133 387.211 61.32C387.211 61.52 387.314 61.6767 387.521 61.79C387.734 61.9033 388.021 62 388.381 62.08C388.688 62.1467 388.978 62.23 389.251 62.33C389.531 62.4233 389.758 62.5667 389.931 62.76C390.111 62.9467 390.201 63.22 390.201 63.58C390.208 64.0267 390.038 64.3967 389.691 64.69C389.351 64.9767 388.888 65.12 388.301 65.12ZM391.401 65V57.8H392.241V62.13L394.271 60.04H395.301L393.101 62.28L395.581 65H394.511L392.241 62.43V65H391.401Z" fill="#787486"/>
<circle cx="420" cy="61.5" r="4" fill="#FFA3A3"/>
<path d="M433.81 65.12C433.123 65.12 432.53 64.97 432.03 64.67C431.537 64.3633 431.153 63.94 430.88 63.4C430.607 62.8533 430.47 62.22 430.47 61.5C430.47 60.7867 430.607 60.16 430.88 59.62C431.153 59.0733 431.537 58.6467 432.03 58.34C432.53 58.0333 433.123 57.88 433.81 57.88C434.61 57.88 435.26 58.0733 435.76 58.46C436.267 58.84 436.59 59.3733 436.73 60.06H435.8C435.693 59.6267 435.473 59.28 435.14 59.02C434.813 58.7533 434.37 58.62 433.81 58.62C433.31 58.62 432.873 58.7367 432.5 58.97C432.127 59.1967 431.837 59.5267 431.63 59.96C431.43 60.3867 431.33 60.9 431.33 61.5C431.33 62.1 431.43 62.6167 431.63 63.05C431.837 63.4767 432.127 63.8067 432.5 64.04C432.873 64.2667 433.31 64.38 433.81 64.38C434.37 64.38 434.813 64.2533 435.14 64C435.473 63.74 435.693 63.3967 435.8 62.97H436.73C436.59 63.6433 436.267 64.17 435.76 64.55C435.26 64.93 434.61 65.12 433.81 65.12ZM440.147 65.12C439.681 65.12 439.261 65.0133 438.887 64.8C438.514 64.5867 438.217 64.2867 437.997 63.9C437.784 63.5067 437.677 63.0467 437.677 62.52C437.677 61.9933 437.787 61.5367 438.007 61.15C438.227 60.7567 438.524 60.4533 438.897 60.24C439.277 60.0267 439.701 59.92 440.167 59.92C440.634 59.92 441.054 60.0267 441.427 60.24C441.801 60.4533 442.094 60.7567 442.307 61.15C442.527 61.5367 442.637 61.9933 442.637 62.52C442.637 63.0467 442.527 63.5067 442.307 63.9C442.087 64.2867 441.787 64.5867 441.407 64.8C441.034 65.0133 440.614 65.12 440.147 65.12ZM440.147 64.4C440.434 64.4 440.701 64.33 440.947 64.19C441.194 64.05 441.394 63.84 441.547 63.56C441.701 63.28 441.777 62.9333 441.777 62.52C441.777 62.1067 441.701 61.76 441.547 61.48C441.401 61.2 441.204 60.99 440.957 60.85C440.711 60.71 440.447 60.64 440.167 60.64C439.881 60.64 439.614 60.71 439.367 60.85C439.121 60.99 438.921 61.2 438.767 61.48C438.614 61.76 438.537 62.1067 438.537 62.52C438.537 62.9333 438.614 63.28 438.767 63.56C438.921 63.84 439.117 64.05 439.357 64.19C439.604 64.33 439.867 64.4 440.147 64.4ZM443.805 65V60.04H444.565L444.625 60.76C444.785 60.4933 444.999 60.2867 445.265 60.14C445.532 59.9933 445.832 59.92 446.165 59.92C446.559 59.92 446.895 60 447.175 60.16C447.462 60.32 447.682 60.5633 447.835 60.89C448.009 60.59 448.245 60.3533 448.545 60.18C448.852 60.0067 449.182 59.92 449.535 59.92C450.129 59.92 450.602 60.1 450.955 60.46C451.309 60.8133 451.485 61.36 451.485 62.1V65H450.655V62.19C450.655 61.6767 450.552 61.29 450.345 61.03C450.139 60.77 449.842 60.64 449.455 60.64C449.055 60.64 448.722 60.7967 448.455 61.11C448.195 61.4167 448.065 61.8567 448.065 62.43V65H447.225V62.19C447.225 61.6767 447.122 61.29 446.915 61.03C446.709 60.77 446.412 60.64 446.025 60.64C445.632 60.64 445.302 60.7967 445.035 61.11C444.775 61.4167 444.645 61.8567 444.645 62.43V65H443.805ZM452.751 67.2V60.04H453.511L453.591 60.86C453.751 60.62 453.977 60.4033 454.271 60.21C454.571 60.0167 454.951 59.92 455.411 59.92C455.904 59.92 456.334 60.0333 456.701 60.26C457.067 60.4867 457.351 60.7967 457.551 61.19C457.757 61.5833 457.861 62.03 457.861 62.53C457.861 63.03 457.757 63.4767 457.551 63.87C457.351 64.2567 457.064 64.5633 456.691 64.79C456.324 65.01 455.894 65.12 455.401 65.12C454.994 65.12 454.631 65.0367 454.311 64.87C453.997 64.7033 453.757 64.47 453.591 64.17V67.2H452.751ZM455.311 64.39C455.644 64.39 455.937 64.3133 456.191 64.16C456.444 64 456.644 63.78 456.791 63.5C456.937 63.22 457.011 62.8933 457.011 62.52C457.011 62.1467 456.937 61.82 456.791 61.54C456.644 61.26 456.444 61.0433 456.191 60.89C455.937 60.73 455.644 60.65 455.311 60.65C454.977 60.65 454.684 60.73 454.431 60.89C454.177 61.0433 453.977 61.26 453.831 61.54C453.684 61.82 453.611 62.1467 453.611 62.52C453.611 62.8933 453.684 63.22 453.831 63.5C453.977 63.78 454.177 64 454.431 64.16C454.684 64.3133 454.977 64.39 455.311 64.39ZM459.03 65V57.8H459.87V65H459.03ZM463.477 65.12C463.003 65.12 462.583 65.0133 462.217 64.8C461.85 64.58 461.56 64.2767 461.347 63.89C461.14 63.5033 461.037 63.0467 461.037 62.52C461.037 62 461.14 61.5467 461.347 61.16C461.553 60.7667 461.84 60.4633 462.207 60.25C462.58 60.03 463.01 59.92 463.497 59.92C463.977 59.92 464.39 60.03 464.737 60.25C465.09 60.4633 465.36 60.7467 465.547 61.1C465.733 61.4533 465.827 61.8333 465.827 62.24C465.827 62.3133 465.823 62.3867 465.817 62.46C465.817 62.5333 465.817 62.6167 465.817 62.71H461.867C461.887 63.09 461.973 63.4067 462.127 63.66C462.287 63.9067 462.483 64.0933 462.717 64.22C462.957 64.3467 463.21 64.41 463.477 64.41C463.823 64.41 464.113 64.33 464.347 64.17C464.58 64.01 464.75 63.7933 464.857 63.52H465.687C465.553 63.98 465.297 64.3633 464.917 64.67C464.543 64.97 464.063 65.12 463.477 65.12ZM463.477 60.63C463.077 60.63 462.72 60.7533 462.407 61C462.1 61.24 461.923 61.5933 461.877 62.06H464.997C464.977 61.6133 464.823 61.2633 464.537 61.01C464.25 60.7567 463.897 60.63 463.477 60.63ZM468.734 65C468.281 65 467.924 64.89 467.664 64.67C467.404 64.45 467.274 64.0533 467.274 63.48V60.75H466.414V60.04H467.274L467.384 58.85H468.114V60.04H469.574V60.75H468.114V63.48C468.114 63.7933 468.177 64.0067 468.304 64.12C468.431 64.2267 468.654 64.28 468.974 64.28H469.494V65H468.734ZM472.734 65.12C472.261 65.12 471.841 65.0133 471.474 64.8C471.108 64.58 470.818 64.2767 470.604 63.89C470.398 63.5033 470.294 63.0467 470.294 62.52C470.294 62 470.398 61.5467 470.604 61.16C470.811 60.7667 471.098 60.4633 471.464 60.25C471.838 60.03 472.268 59.92 472.754 59.92C473.234 59.92 473.648 60.03 473.994 60.25C474.348 60.4633 474.618 60.7467 474.804 61.1C474.991 61.4533 475.084 61.8333 475.084 62.24C475.084 62.3133 475.081 62.3867 475.074 62.46C475.074 62.5333 475.074 62.6167 475.074 62.71H471.124C471.144 63.09 471.231 63.4067 471.384 63.66C471.544 63.9067 471.741 64.0933 471.974 64.22C472.214 64.3467 472.468 64.41 472.734 64.41C473.081 64.41 473.371 64.33 473.604 64.17C473.838 64.01 474.008 63.7933 474.114 63.52H474.944C474.811 63.98 474.554 64.3633 474.174 64.67C473.801 64.97 473.321 65.12 472.734 65.12ZM472.734 60.63C472.334 60.63 471.978 60.7533 471.664 61C471.358 61.24 471.181 61.5933 471.134 62.06H474.254C474.234 61.6133 474.081 61.2633 473.794 61.01C473.508 60.7567 473.154 60.63 472.734 60.63ZM478.448 65.12C477.954 65.12 477.521 65.0067 477.148 64.78C476.781 64.5533 476.494 64.2433 476.288 63.85C476.088 63.4567 475.988 63.01 475.988 62.51C475.988 62.01 476.091 61.5667 476.298 61.18C476.504 60.7867 476.791 60.48 477.158 60.26C477.524 60.0333 477.958 59.92 478.458 59.92C478.864 59.92 479.224 60.0033 479.538 60.17C479.851 60.3367 480.094 60.57 480.268 60.87V57.8H481.108V65H480.348L480.268 64.18C480.108 64.42 479.878 64.6367 479.578 64.83C479.278 65.0233 478.901 65.12 478.448 65.12ZM478.538 64.39C478.871 64.39 479.164 64.3133 479.418 64.16C479.678 64 479.878 63.78 480.018 63.5C480.164 63.22 480.238 62.8933 480.238 62.52C480.238 62.1467 480.164 61.82 480.018 61.54C479.878 61.26 479.678 61.0433 479.418 60.89C479.164 60.73 478.871 60.65 478.538 60.65C478.211 60.65 477.918 60.73 477.658 60.89C477.404 61.0433 477.204 61.26 477.058 61.54C476.918 61.82 476.848 62.1467 476.848 62.52C476.848 62.8933 476.918 63.22 477.058 63.5C477.204 63.78 477.404 64 477.658 64.16C477.918 64.3133 478.211 64.39 478.538 64.39ZM487.774 65.12C487.367 65.12 487.004 65.0367 486.684 64.87C486.37 64.7033 486.13 64.47 485.964 64.17L485.884 65H485.124V57.8H485.964V60.86C486.124 60.62 486.35 60.4033 486.644 60.21C486.944 60.0167 487.324 59.92 487.784 59.92C488.277 59.92 488.707 60.0333 489.074 60.26C489.44 60.4867 489.724 60.7967 489.924 61.19C490.13 61.5833 490.234 62.03 490.234 62.53C490.234 63.03 490.13 63.4767 489.924 63.87C489.724 64.2567 489.437 64.5633 489.064 64.79C488.697 65.01 488.267 65.12 487.774 65.12ZM487.684 64.39C488.017 64.39 488.31 64.3133 488.564 64.16C488.817 64 489.017 63.78 489.164 63.5C489.31 63.22 489.384 62.8933 489.384 62.52C489.384 62.1467 489.31 61.82 489.164 61.54C489.017 61.26 488.817 61.0433 488.564 60.89C488.31 60.73 488.017 60.65 487.684 60.65C487.35 60.65 487.057 60.73 486.804 60.89C486.55 61.0433 486.35 61.26 486.204 61.54C486.057 61.82 485.984 62.1467 485.984 62.52C485.984 62.8933 486.057 63.22 486.204 63.5C486.35 63.78 486.55 64 486.804 64.16C487.057 64.3133 487.35 64.39 487.684 64.39ZM493.213 65.12C492.626 65.12 492.16 64.9433 491.813 64.59C491.466 64.23 491.293 63.68 491.293 62.94V60.04H492.133V62.85C492.133 63.8833 492.556 64.4 493.403 64.4C493.836 64.4 494.193 64.2467 494.473 63.94C494.76 63.6267 494.903 63.1833 494.903 62.61V60.04H495.743V65H494.983L494.923 64.11C494.77 64.4233 494.54 64.67 494.233 64.85C493.933 65.03 493.593 65.12 493.213 65.12ZM499.086 63.44C498.806 63.44 498.549 63.4033 498.316 63.33L497.816 63.8C497.889 63.8533 497.979 63.9 498.086 63.94C498.199 63.9733 498.359 64.0067 498.566 64.04C498.772 64.0667 499.062 64.0967 499.436 64.13C500.102 64.1767 500.579 64.33 500.866 64.59C501.152 64.85 501.296 65.19 501.296 65.61C501.296 65.8967 501.216 66.17 501.056 66.43C500.902 66.69 500.662 66.9033 500.336 67.07C500.016 67.2367 499.602 67.32 499.096 67.32C498.649 67.32 498.252 67.26 497.906 67.14C497.559 67.0267 497.289 66.85 497.096 66.61C496.902 66.3767 496.806 66.08 496.806 65.72C496.806 65.5333 496.856 65.33 496.956 65.11C497.056 64.8967 497.242 64.6933 497.516 64.5C497.369 64.44 497.242 64.3767 497.136 64.31C497.036 64.2367 496.942 64.1567 496.856 64.07V63.84L497.706 63C497.312 62.6667 497.116 62.2267 497.116 61.68C497.116 61.3533 497.192 61.0567 497.346 60.79C497.499 60.5233 497.722 60.3133 498.016 60.16C498.309 60 498.666 59.92 499.086 59.92C499.372 59.92 499.632 59.96 499.866 60.04H501.696V60.67L500.766 60.71C500.959 60.99 501.056 61.3133 501.056 61.68C501.056 62.0067 500.976 62.3033 500.816 62.57C500.662 62.8367 500.439 63.05 500.146 63.21C499.859 63.3633 499.506 63.44 499.086 63.44ZM499.086 62.75C499.439 62.75 499.719 62.66 499.926 62.48C500.139 62.2933 500.246 62.0267 500.246 61.68C500.246 61.34 500.139 61.08 499.926 60.9C499.719 60.7133 499.439 60.62 499.086 60.62C498.726 60.62 498.439 60.7133 498.226 60.9C498.019 61.08 497.916 61.34 497.916 61.68C497.916 62.0267 498.019 62.2933 498.226 62.48C498.439 62.66 498.726 62.75 499.086 62.75ZM497.626 65.64C497.626 65.9733 497.766 66.22 498.046 66.38C498.326 66.5467 498.676 66.63 499.096 66.63C499.509 66.63 499.839 66.54 500.086 66.36C500.339 66.18 500.466 65.94 500.466 65.64C500.466 65.4267 500.379 65.24 500.206 65.08C500.032 64.9267 499.712 64.8367 499.246 64.81C498.879 64.7833 498.562 64.75 498.296 64.71C498.022 64.8567 497.842 65.0133 497.756 65.18C497.669 65.3533 497.626 65.5067 497.626 65.64Z" fill="#787486"/>
<path d="M25.224 84.4717V93.199H24.1671V85.5797H24.116L21.9853 86.9944V85.9206L24.1671 84.4717H25.224ZM27.7339 93.199V92.4319L30.6146 89.2785C30.9526 88.9092 31.2311 88.5882 31.4498 88.3155C31.6686 88.0399 31.8305 87.7814 31.9356 87.5399C32.0436 87.2956 32.0975 87.0399 32.0975 86.7728C32.0975 86.466 32.0237 86.2004 31.8759 85.976C31.7311 85.7515 31.5322 85.5782 31.2794 85.4561C31.0265 85.3339 30.7424 85.2728 30.4271 85.2728C30.0919 85.2728 29.7992 85.3424 29.5492 85.4816C29.3021 85.618 29.1103 85.8098 28.974 86.0569C28.8404 86.3041 28.7737 86.5939 28.7737 86.9262H27.768C27.768 86.4149 27.8859 85.966 28.1217 85.5797C28.3575 85.1933 28.6785 84.8922 29.0848 84.6762C29.4938 84.4603 29.9526 84.3524 30.4612 84.3524C30.9725 84.3524 31.4257 84.4603 31.8205 84.6762C32.2154 84.8922 32.5251 85.1833 32.7495 85.5498C32.974 85.9163 33.0862 86.324 33.0862 86.7728C33.0862 87.0939 33.0279 87.4078 32.9115 87.7146C32.7978 88.0186 32.599 88.3581 32.3149 88.7331C32.0336 89.1052 31.643 89.5598 31.143 90.0967L29.1828 92.1933V92.2615H33.2396V93.199H27.7339Z" fill="#6B7280"/>
<path d="M24.9895 140.236V148.963H23.9327V141.344H23.8815L21.7509 142.758V141.684L23.9327 140.236H24.9895ZM30.346 149.082C29.704 149.082 29.1571 148.907 28.7054 148.558C28.2537 148.206 27.9085 147.696 27.6699 147.028C27.4313 146.358 27.3119 145.548 27.3119 144.599C27.3119 143.656 27.4313 142.851 27.6699 142.183C27.9114 141.513 28.258 141.001 28.7097 140.649C29.1642 140.294 29.7097 140.116 30.346 140.116C30.9824 140.116 31.5264 140.294 31.9781 140.649C32.4327 141.001 32.7793 141.513 33.0179 142.183C33.2594 142.851 33.3801 143.656 33.3801 144.599C33.3801 145.548 33.2608 146.358 33.0222 147.028C32.7835 147.696 32.4384 148.206 31.9867 148.558C31.535 148.907 30.9881 149.082 30.346 149.082ZM30.346 148.145C30.9824 148.145 31.4767 147.838 31.829 147.224C32.1813 146.611 32.3574 145.736 32.3574 144.599C32.3574 143.844 32.2764 143.2 32.1145 142.669C31.9554 142.138 31.7253 141.733 31.4242 141.454C31.1259 141.176 30.7665 141.037 30.346 141.037C29.7154 141.037 29.2225 141.348 28.8673 141.97C28.5122 142.589 28.3347 143.466 28.3347 144.599C28.3347 145.355 28.4142 145.997 28.5733 146.525C28.7324 147.054 28.9611 147.456 29.2594 147.731C29.5605 148.007 29.9227 148.145 30.346 148.145Z" fill="#6B7280"/>
<path d="M30.4004 204.846C29.8151 204.846 29.2981 204.742 28.8492 204.535C28.4032 204.325 28.0552 204.036 27.8052 203.67C27.5552 203.301 27.4316 202.88 27.4345 202.409C27.4316 202.039 27.5041 201.698 27.6518 201.386C27.7995 201.071 28.0012 200.808 28.2569 200.598C28.5154 200.384 28.8038 200.25 29.122 200.193V200.142C28.7043 200.034 28.372 199.799 28.1248 199.438C27.8776 199.075 27.7555 198.661 27.7583 198.198C27.7555 197.755 27.8677 197.359 28.095 197.009C28.3222 196.66 28.6347 196.384 29.0325 196.183C29.433 195.981 29.889 195.88 30.4004 195.88C30.906 195.88 31.3578 195.981 31.7555 196.183C32.1532 196.384 32.4657 196.66 32.693 197.009C32.9231 197.359 33.0396 197.755 33.0424 198.198C33.0396 198.661 32.9131 199.075 32.6631 199.438C32.416 199.799 32.0879 200.034 31.6788 200.142V200.193C31.9941 200.25 32.2782 200.384 32.531 200.598C32.7839 200.808 32.9856 201.071 33.1362 201.386C33.2867 201.698 33.3634 202.039 33.3663 202.409C33.3634 202.88 33.2356 203.301 32.9828 203.67C32.7328 204.036 32.3847 204.325 31.9387 204.535C31.4955 204.742 30.9828 204.846 30.4004 204.846ZM30.4004 203.909C30.7953 203.909 31.1362 203.845 31.4231 203.717C31.71 203.589 31.9316 203.409 32.0879 203.176C32.2441 202.943 32.3237 202.67 32.3265 202.357C32.3237 202.028 32.2384 201.737 32.0708 201.484C31.9032 201.231 31.6745 201.032 31.3847 200.887C31.0978 200.742 30.7697 200.67 30.4004 200.67C30.0282 200.67 29.6958 200.742 29.4032 200.887C29.1134 201.032 28.8847 201.231 28.7171 201.484C28.5524 201.737 28.4714 202.028 28.4742 202.357C28.4714 202.67 28.5467 202.943 28.7001 203.176C28.8563 203.409 29.0793 203.589 29.3691 203.717C29.6589 203.845 30.0026 203.909 30.4004 203.909ZM30.4004 199.767C30.7129 199.767 30.9899 199.704 31.2313 199.579C31.4756 199.454 31.6674 199.279 31.8066 199.055C31.9458 198.83 32.0168 198.568 32.0197 198.267C32.0168 197.971 31.9472 197.714 31.8109 197.495C31.6745 197.274 31.4856 197.103 31.2441 196.984C31.0026 196.862 30.7214 196.801 30.4004 196.801C30.0737 196.801 29.7881 196.862 29.5438 196.984C29.2995 197.103 29.1106 197.274 28.9771 197.495C28.8435 197.714 28.7782 197.971 28.781 198.267C28.7782 198.568 28.845 198.83 28.9813 199.055C29.1205 199.279 29.3123 199.454 29.5566 199.579C29.8009 199.704 30.0822 199.767 30.4004 199.767Z" fill="#6B7280"/>
<path d="M30.4089 260.61C30.0509 260.604 29.693 260.536 29.335 260.405C28.9771 260.275 28.6504 260.055 28.3549 259.745C28.0595 259.432 27.8222 259.011 27.6433 258.479C27.4643 257.945 27.3748 257.275 27.3748 256.468C27.3748 255.695 27.4472 255.011 27.5921 254.414C27.737 253.815 27.9472 253.31 28.2228 252.901C28.4984 252.489 28.8308 252.177 29.22 251.964C29.612 251.751 30.0538 251.644 30.5453 251.644C31.0339 251.644 31.4685 251.742 31.8492 251.938C32.2328 252.131 32.5453 252.401 32.7867 252.748C33.0282 253.094 33.1845 253.494 33.2555 253.945H32.2157C32.1191 253.553 31.9316 253.228 31.6532 252.969C31.3748 252.711 31.0055 252.582 30.5453 252.582C29.8691 252.582 29.3364 252.876 28.9472 253.464C28.5609 254.052 28.3663 254.877 28.3634 255.94H28.4316C28.5907 255.698 28.7796 255.492 28.9984 255.322C29.22 255.148 29.4643 255.015 29.7313 254.921C29.9984 254.827 30.281 254.78 30.5793 254.78C31.0793 254.78 31.5367 254.905 31.9515 255.155C32.3663 255.403 32.6987 255.745 32.9487 256.182C33.1987 256.617 33.3237 257.116 33.3237 257.678C33.3237 258.218 33.2029 258.712 32.9614 259.161C32.72 259.607 32.3805 259.962 31.943 260.227C31.5083 260.488 30.997 260.616 30.4089 260.61ZM30.4089 259.673C30.7668 259.673 31.0879 259.583 31.372 259.404C31.6589 259.225 31.8847 258.985 32.0495 258.684C32.2171 258.383 32.3009 258.048 32.3009 257.678C32.3009 257.317 32.22 256.989 32.058 256.694C31.8989 256.396 31.6788 256.158 31.3975 255.982C31.1191 255.806 30.8009 255.718 30.443 255.718C30.1731 255.718 29.9217 255.772 29.6887 255.88C29.4558 255.985 29.2512 256.13 29.0751 256.315C28.9018 256.499 28.7654 256.711 28.666 256.95C28.5666 257.185 28.5168 257.434 28.5168 257.695C28.5168 258.042 28.5978 258.366 28.7597 258.667C28.9245 258.968 29.1489 259.211 29.433 259.396C29.72 259.58 30.0453 259.673 30.4089 259.673Z" fill="#6B7280"/>
<path d="M27.0957 314.465V313.596L30.9309 307.528H31.5616V308.874H31.1354L28.2377 313.459V313.528H33.4025V314.465H27.0957ZM31.2036 316.255V314.201V313.796V307.528H32.2093V316.255H31.2036Z" fill="#6B7280"/>
<path d="M27.7338 372.019V371.252L30.6145 368.098C30.9526 367.729 31.231 367.408 31.4497 367.135C31.6685 366.86 31.8304 366.601 31.9355 366.36C32.0435 366.115 32.0975 365.86 32.0975 365.593C32.0975 365.286 32.0236 365.02 31.8759 364.796C31.731 364.571 31.5321 364.398 31.2793 364.276C31.0264 364.154 30.7423 364.093 30.427 364.093C30.0918 364.093 29.7992 364.162 29.5492 364.301C29.302 364.438 29.1102 364.63 28.9739 364.877C28.8404 365.124 28.7736 365.414 28.7736 365.746H27.7679C27.7679 365.235 27.8858 364.786 28.1216 364.399C28.3574 364.013 28.6784 363.712 29.0847 363.496C29.4938 363.28 29.9526 363.172 30.4611 363.172C30.9725 363.172 31.4256 363.28 31.8205 363.496C32.2154 363.712 32.525 364.003 32.7494 364.37C32.9739 364.736 33.0861 365.144 33.0861 365.593C33.0861 365.914 33.0279 366.228 32.9114 366.534C32.7977 366.838 32.5989 367.178 32.3148 367.553C32.0335 367.925 31.6429 368.38 31.1429 368.917L29.1827 371.013V371.081H33.2395V372.019H27.7338Z" fill="#6B7280"/>
<path d="M30.346 427.902C29.704 427.902 29.1571 427.727 28.7054 427.378C28.2537 427.026 27.9085 426.516 27.6699 425.848C27.4313 425.178 27.3119 424.368 27.3119 423.419C27.3119 422.476 27.4313 421.67 27.6699 421.003C27.9114 420.332 28.258 419.821 28.7097 419.469C29.1642 419.114 29.7097 418.936 30.346 418.936C30.9824 418.936 31.5264 419.114 31.9781 419.469C32.4327 419.821 32.7793 420.332 33.0179 421.003C33.2594 421.67 33.3801 422.476 33.3801 423.419C33.3801 424.368 33.2608 425.178 33.0222 425.848C32.7835 426.516 32.4384 427.026 31.9867 427.378C31.535 427.727 30.9881 427.902 30.346 427.902ZM30.346 426.965C30.9824 426.965 31.4767 426.658 31.829 426.044C32.1813 425.43 32.3574 424.555 32.3574 423.419C32.3574 422.663 32.2764 422.02 32.1145 421.489C31.9554 420.957 31.7253 420.553 31.4242 420.274C31.1259 419.996 30.7665 419.857 30.346 419.857C29.7154 419.857 29.2225 420.168 28.8673 420.79C28.5122 421.409 28.3347 422.286 28.3347 423.419C28.3347 424.175 28.4142 424.817 28.5733 425.345C28.7324 425.874 28.9611 426.276 29.2594 426.551C29.5605 426.827 29.9227 426.965 30.346 426.965Z" fill="#6B7280"/>
<line x1="77.313" y1="97.1401" x2="590.838" y2="97.1401" stroke="#F3F4F6"/>
<line x1="77.9951" y1="152.532" x2="593" y2="152.532" stroke="#F3F4F6"/>
<line x1="77.9951" y1="208.296" x2="593" y2="208.296" stroke="#F3F4F6"/>
<line x1="77.9951" y1="264.06" x2="593" y2="264.06" stroke="#F3F4F6"/>
<line x1="77.9951" y1="319.823" x2="593" y2="319.823" stroke="#F3F4F6"/>
<line x1="77.9951" y1="375.587" x2="593" y2="375.587" stroke="#F3F4F6"/>
<line x1="77.9951" y1="431.351" x2="593" y2="431.351" stroke="#F3F4F6"/>
<rect x="146.07" y="214.106" width="44.397" height="265.543" fill="#FEDEBC"/>
<rect x="89.8345" y="439.818" width="44.397" height="39.8314" fill="#FFA3A3"/>
<rect x="408.013" y="439.818" width="44.397" height="39.8314" fill="#FFA3A3"/>
<rect x="351.776" y="160.998" width="44.397" height="318.651" fill="#AEC9FE"/>
<rect x="529.364" y="299.08" width="44.397" height="180.569" fill="#FFA3A3"/>
<rect x="473.128" y="439.818" width="44.397" height="39.8314" fill="#AEC9FE"/>
<rect x="273.342" y="384.054" width="44.397" height="95.5953" fill="#FEDEBC"/>
<rect x="215.626" y="311.03" width="44.397" height="168.62" fill="#B6FDDB"/>
<line x1="77.9951" y1="479.149" x2="591.52" y2="479.149" stroke="#F3F4F6"/>
<path d="M93.0797 507.768V501.458H90.9897V500.768H96.0097V501.458H93.9197V507.768H93.0797ZM98.317 507.888C97.8436 507.888 97.4236 507.781 97.057 507.568C96.6903 507.348 96.4003 507.044 96.187 506.658C95.9803 506.271 95.877 505.814 95.877 505.288C95.877 504.768 95.9803 504.314 96.187 503.928C96.3936 503.534 96.6803 503.231 97.047 503.018C97.4203 502.798 97.8503 502.688 98.337 502.688C98.817 502.688 99.2303 502.798 99.577 503.018C99.9303 503.231 100.2 503.514 100.387 503.868C100.574 504.221 100.667 504.601 100.667 505.008C100.667 505.081 100.664 505.154 100.657 505.228C100.657 505.301 100.657 505.384 100.657 505.478H96.707C96.727 505.858 96.8136 506.174 96.967 506.428C97.127 506.674 97.3236 506.861 97.557 506.988C97.797 507.114 98.0503 507.178 98.317 507.178C98.6636 507.178 98.9536 507.098 99.187 506.938C99.4203 506.778 99.5903 506.561 99.697 506.288H100.527C100.394 506.748 100.137 507.131 99.757 507.438C99.3836 507.738 98.9036 507.888 98.317 507.888ZM98.317 503.398C97.917 503.398 97.5603 503.521 97.247 503.768C96.9403 504.008 96.7636 504.361 96.717 504.828H99.837C99.817 504.381 99.6636 504.031 99.377 503.778C99.0903 503.524 98.737 503.398 98.317 503.398ZM103.68 507.888C103.087 507.888 102.594 507.738 102.2 507.438C101.807 507.138 101.577 506.731 101.51 506.218H102.37C102.424 506.478 102.56 506.704 102.78 506.898C103.007 507.084 103.31 507.178 103.69 507.178C104.044 507.178 104.304 507.104 104.47 506.958C104.637 506.804 104.72 506.624 104.72 506.418C104.72 506.118 104.61 505.918 104.39 505.818C104.177 505.718 103.874 505.628 103.48 505.548C103.214 505.494 102.947 505.418 102.68 505.318C102.414 505.218 102.19 505.078 102.01 504.898C101.83 504.711 101.74 504.468 101.74 504.168C101.74 503.734 101.9 503.381 102.22 503.108C102.547 502.828 102.987 502.688 103.54 502.688C104.067 502.688 104.497 502.821 104.83 503.088C105.17 503.348 105.367 503.721 105.42 504.208H104.59C104.557 503.954 104.447 503.758 104.26 503.618C104.08 503.471 103.837 503.398 103.53 503.398C103.23 503.398 102.997 503.461 102.83 503.588C102.67 503.714 102.59 503.881 102.59 504.088C102.59 504.288 102.694 504.444 102.9 504.558C103.114 504.671 103.4 504.768 103.76 504.848C104.067 504.914 104.357 504.998 104.63 505.098C104.91 505.191 105.137 505.334 105.31 505.528C105.49 505.714 105.58 505.988 105.58 506.348C105.587 506.794 105.417 507.164 105.07 507.458C104.73 507.744 104.267 507.888 103.68 507.888ZM108.516 507.768C108.062 507.768 107.706 507.658 107.446 507.438C107.186 507.218 107.056 506.821 107.056 506.248V503.518H106.196V502.808H107.056L107.166 501.618H107.896V502.808H109.356V503.518H107.896V506.248C107.896 506.561 107.959 506.774 108.086 506.888C108.212 506.994 108.436 507.048 108.756 507.048H109.276V507.768H108.516ZM114.969 507.888C114.376 507.888 113.883 507.738 113.489 507.438C113.096 507.138 112.866 506.731 112.799 506.218H113.659C113.713 506.478 113.849 506.704 114.069 506.898C114.296 507.084 114.599 507.178 114.979 507.178C115.333 507.178 115.593 507.104 115.759 506.958C115.926 506.804 116.009 506.624 116.009 506.418C116.009 506.118 115.899 505.918 115.679 505.818C115.466 505.718 115.163 505.628 114.769 505.548C114.503 505.494 114.236 505.418 113.969 505.318C113.703 505.218 113.479 505.078 113.299 504.898C113.119 504.711 113.029 504.468 113.029 504.168C113.029 503.734 113.189 503.381 113.509 503.108C113.836 502.828 114.276 502.688 114.829 502.688C115.356 502.688 115.786 502.821 116.119 503.088C116.459 503.348 116.656 503.721 116.709 504.208H115.879C115.846 503.954 115.736 503.758 115.549 503.618C115.369 503.471 115.126 503.398 114.819 503.398C114.519 503.398 114.286 503.461 114.119 503.588C113.959 503.714 113.879 503.881 113.879 504.088C113.879 504.288 113.983 504.444 114.189 504.558C114.403 504.671 114.689 504.768 115.049 504.848C115.356 504.914 115.646 504.998 115.919 505.098C116.199 505.191 116.426 505.334 116.599 505.528C116.779 505.714 116.869 505.988 116.869 506.348C116.876 506.794 116.706 507.164 116.359 507.458C116.019 507.744 115.556 507.888 114.969 507.888ZM118.069 509.968V502.808H118.829L118.909 503.628C119.069 503.388 119.296 503.171 119.589 502.978C119.889 502.784 120.269 502.688 120.729 502.688C121.223 502.688 121.653 502.801 122.019 503.028C122.386 503.254 122.669 503.564 122.869 503.958C123.076 504.351 123.179 504.798 123.179 505.298C123.179 505.798 123.076 506.244 122.869 506.638C122.669 507.024 122.383 507.331 122.009 507.558C121.643 507.778 121.213 507.888 120.719 507.888C120.313 507.888 119.949 507.804 119.629 507.638C119.316 507.471 119.076 507.238 118.909 506.938V509.968H118.069ZM120.629 507.158C120.963 507.158 121.256 507.081 121.509 506.928C121.763 506.768 121.963 506.548 122.109 506.268C122.256 505.988 122.329 505.661 122.329 505.288C122.329 504.914 122.256 504.588 122.109 504.308C121.963 504.028 121.763 503.811 121.509 503.658C121.256 503.498 120.963 503.418 120.629 503.418C120.296 503.418 120.003 503.498 119.749 503.658C119.496 503.811 119.296 504.028 119.149 504.308C119.003 504.588 118.929 504.914 118.929 505.288C118.929 505.661 119.003 505.988 119.149 506.268C119.296 506.548 119.496 506.768 119.749 506.928C120.003 507.081 120.296 507.158 120.629 507.158ZM124.349 507.768V502.808H125.109L125.179 503.758C125.332 503.431 125.565 503.171 125.879 502.978C126.192 502.784 126.579 502.688 127.039 502.688V503.568H126.809C126.515 503.568 126.245 503.621 125.999 503.728C125.752 503.828 125.555 504.001 125.409 504.248C125.262 504.494 125.189 504.834 125.189 505.268V507.768H124.349ZM128.492 501.708C128.325 501.708 128.185 501.654 128.072 501.548C127.965 501.434 127.912 501.294 127.912 501.128C127.912 500.968 127.965 500.834 128.072 500.728C128.185 500.621 128.325 500.568 128.492 500.568C128.652 500.568 128.788 500.621 128.902 500.728C129.015 500.834 129.072 500.968 129.072 501.128C129.072 501.294 129.015 501.434 128.902 501.548C128.788 501.654 128.652 501.708 128.492 501.708ZM128.072 507.768V502.808H128.912V507.768H128.072ZM130.374 507.768V502.808H131.134L131.184 503.698C131.344 503.384 131.574 503.138 131.874 502.958C132.174 502.778 132.514 502.688 132.894 502.688C133.481 502.688 133.947 502.868 134.294 503.228C134.647 503.581 134.824 504.128 134.824 504.868V507.768H133.984V504.958C133.984 503.924 133.557 503.408 132.704 503.408C132.277 503.408 131.921 503.564 131.634 503.878C131.354 504.184 131.214 504.624 131.214 505.198V507.768H130.374ZM138.057 507.768C137.603 507.768 137.247 507.658 136.987 507.438C136.727 507.218 136.597 506.821 136.597 506.248V503.518H135.737V502.808H136.597L136.707 501.618H137.437V502.808H138.897V503.518H137.437V506.248C137.437 506.561 137.5 506.774 137.627 506.888C137.753 506.994 137.977 507.048 138.297 507.048H138.817V507.768H138.057Z" fill="#6B7280"/>
<path d="M256.97 508.12C256.457 508.12 256.01 508.027 255.63 507.84C255.25 507.653 254.957 507.393 254.75 507.06C254.543 506.727 254.44 506.34 254.44 505.9H255.32C255.32 506.173 255.383 506.427 255.51 506.66C255.637 506.887 255.82 507.07 256.06 507.21C256.307 507.343 256.61 507.41 256.97 507.41C257.443 507.41 257.81 507.297 258.07 507.07C258.33 506.843 258.46 506.56 258.46 506.22C258.46 505.94 258.4 505.717 258.28 505.55C258.16 505.377 257.997 505.237 257.79 505.13C257.59 505.023 257.357 504.93 257.09 504.85C256.83 504.77 256.557 504.68 256.27 504.58C255.73 504.393 255.33 504.163 255.07 503.89C254.81 503.61 254.68 503.247 254.68 502.8C254.673 502.427 254.76 502.097 254.94 501.81C255.12 501.517 255.373 501.29 255.7 501.13C256.033 500.963 256.427 500.88 256.88 500.88C257.327 500.88 257.713 500.963 258.04 501.13C258.373 501.297 258.63 501.527 258.81 501.82C258.997 502.113 259.093 502.447 259.1 502.82H258.22C258.22 502.627 258.17 502.437 258.07 502.25C257.97 502.057 257.817 501.9 257.61 501.78C257.41 501.66 257.157 501.6 256.85 501.6C256.47 501.593 256.157 501.69 255.91 501.89C255.67 502.09 255.55 502.367 255.55 502.72C255.55 503.02 255.633 503.25 255.8 503.41C255.973 503.57 256.213 503.703 256.52 503.81C256.827 503.91 257.18 504.027 257.58 504.16C257.913 504.28 258.213 504.42 258.48 504.58C258.747 504.74 258.953 504.947 259.1 505.2C259.253 505.453 259.33 505.777 259.33 506.17C259.33 506.503 259.243 506.82 259.07 507.12C258.897 507.413 258.633 507.653 258.28 507.84C257.933 508.027 257.497 508.12 256.97 508.12ZM260.471 510.2V503.04H261.231L261.311 503.86C261.471 503.62 261.698 503.403 261.991 503.21C262.291 503.017 262.671 502.92 263.131 502.92C263.625 502.92 264.055 503.033 264.421 503.26C264.788 503.487 265.071 503.797 265.271 504.19C265.478 504.583 265.581 505.03 265.581 505.53C265.581 506.03 265.478 506.477 265.271 506.87C265.071 507.257 264.785 507.563 264.411 507.79C264.045 508.01 263.615 508.12 263.121 508.12C262.715 508.12 262.351 508.037 262.031 507.87C261.718 507.703 261.478 507.47 261.311 507.17V510.2H260.471ZM263.031 507.39C263.365 507.39 263.658 507.313 263.911 507.16C264.165 507 264.365 506.78 264.511 506.5C264.658 506.22 264.731 505.893 264.731 505.52C264.731 505.147 264.658 504.82 264.511 504.54C264.365 504.26 264.165 504.043 263.911 503.89C263.658 503.73 263.365 503.65 263.031 503.65C262.698 503.65 262.405 503.73 262.151 503.89C261.898 504.043 261.698 504.26 261.551 504.54C261.405 504.82 261.331 505.147 261.331 505.52C261.331 505.893 261.405 506.22 261.551 506.5C261.698 506.78 261.898 507 262.151 507.16C262.405 507.313 262.698 507.39 263.031 507.39ZM266.751 508V503.04H267.511L267.581 503.99C267.734 503.663 267.967 503.403 268.281 503.21C268.594 503.017 268.981 502.92 269.441 502.92V503.8H269.211C268.917 503.8 268.647 503.853 268.401 503.96C268.154 504.06 267.957 504.233 267.811 504.48C267.664 504.727 267.591 505.067 267.591 505.5V508H266.751ZM270.893 501.94C270.727 501.94 270.587 501.887 270.473 501.78C270.367 501.667 270.313 501.527 270.313 501.36C270.313 501.2 270.367 501.067 270.473 500.96C270.587 500.853 270.727 500.8 270.893 500.8C271.053 500.8 271.19 500.853 271.303 500.96C271.417 501.067 271.473 501.2 271.473 501.36C271.473 501.527 271.417 501.667 271.303 501.78C271.19 501.887 271.053 501.94 270.893 501.94ZM270.473 508V503.04H271.313V508H270.473ZM272.776 508V503.04H273.536L273.586 503.93C273.746 503.617 273.976 503.37 274.276 503.19C274.576 503.01 274.916 502.92 275.296 502.92C275.883 502.92 276.349 503.1 276.696 503.46C277.049 503.813 277.226 504.36 277.226 505.1V508H276.386V505.19C276.386 504.157 275.959 503.64 275.106 503.64C274.679 503.64 274.323 503.797 274.036 504.11C273.756 504.417 273.616 504.857 273.616 505.43V508H272.776ZM280.459 508C280.005 508 279.649 507.89 279.389 507.67C279.129 507.45 278.999 507.053 278.999 506.48V503.75H278.139V503.04H278.999L279.109 501.85H279.839V503.04H281.299V503.75H279.839V506.48C279.839 506.793 279.902 507.007 280.029 507.12C280.155 507.227 280.379 507.28 280.699 507.28H281.219V508H280.459ZM285.752 508V501.94L284.622 502.19V501.61L286.032 501H286.602V508H285.752ZM287.93 505.45V504.74H291.89V505.45H287.93ZM293.097 508V507.41C293.57 507.037 294.017 506.66 294.437 506.28C294.863 505.893 295.24 505.513 295.567 505.14C295.9 504.767 296.16 504.4 296.347 504.04C296.54 503.68 296.637 503.333 296.637 503C296.637 502.753 296.593 502.523 296.507 502.31C296.427 502.097 296.293 501.927 296.107 501.8C295.92 501.667 295.667 501.6 295.347 501.6C295.04 501.6 294.783 501.67 294.577 501.81C294.37 501.943 294.213 502.123 294.107 502.35C294.007 502.577 293.957 502.82 293.957 503.08H293.147C293.147 502.62 293.243 502.227 293.437 501.9C293.63 501.567 293.893 501.313 294.227 501.14C294.56 500.967 294.937 500.88 295.357 500.88C295.977 500.88 296.483 501.057 296.877 501.41C297.277 501.757 297.477 502.277 297.477 502.97C297.477 503.383 297.373 503.793 297.167 504.2C296.96 504.6 296.697 504.99 296.377 505.37C296.057 505.743 295.713 506.093 295.347 506.42C294.987 506.747 294.65 507.04 294.337 507.3H297.717V508H293.097Z" fill="#6B7280"/>
<path d="M504.85 508L502.22 501H503.13L505.34 507.11L507.57 501H508.46L505.83 508H504.85ZM510.945 508.12C510.472 508.12 510.052 508.013 509.685 507.8C509.319 507.58 509.029 507.277 508.815 506.89C508.609 506.503 508.505 506.047 508.505 505.52C508.505 505 508.609 504.547 508.815 504.16C509.022 503.767 509.309 503.463 509.675 503.25C510.049 503.03 510.479 502.92 510.965 502.92C511.445 502.92 511.859 503.03 512.205 503.25C512.559 503.463 512.829 503.747 513.015 504.1C513.202 504.453 513.295 504.833 513.295 505.24C513.295 505.313 513.292 505.387 513.285 505.46C513.285 505.533 513.285 505.617 513.285 505.71H509.335C509.355 506.09 509.442 506.407 509.595 506.66C509.755 506.907 509.952 507.093 510.185 507.22C510.425 507.347 510.679 507.41 510.945 507.41C511.292 507.41 511.582 507.33 511.815 507.17C512.049 507.01 512.219 506.793 512.325 506.52H513.155C513.022 506.98 512.765 507.363 512.385 507.67C512.012 507.97 511.532 508.12 510.945 508.12ZM510.945 503.63C510.545 503.63 510.189 503.753 509.875 504C509.569 504.24 509.392 504.593 509.345 505.06H512.465C512.445 504.613 512.292 504.263 512.005 504.01C511.719 503.757 511.365 503.63 510.945 503.63ZM514.409 508V503.04H515.169L515.239 503.99C515.392 503.663 515.625 503.403 515.939 503.21C516.252 503.017 516.639 502.92 517.099 502.92V503.8H516.869C516.575 503.8 516.305 503.853 516.059 503.96C515.812 504.06 515.615 504.233 515.469 504.48C515.322 504.727 515.249 505.067 515.249 505.5V508H514.409ZM519.942 508.12C519.348 508.12 518.855 507.97 518.462 507.67C518.068 507.37 517.838 506.963 517.772 506.45H518.632C518.685 506.71 518.822 506.937 519.042 507.13C519.268 507.317 519.572 507.41 519.952 507.41C520.305 507.41 520.565 507.337 520.732 507.19C520.898 507.037 520.982 506.857 520.982 506.65C520.982 506.35 520.872 506.15 520.652 506.05C520.438 505.95 520.135 505.86 519.742 505.78C519.475 505.727 519.208 505.65 518.942 505.55C518.675 505.45 518.452 505.31 518.272 505.13C518.092 504.943 518.002 504.7 518.002 504.4C518.002 503.967 518.162 503.613 518.482 503.34C518.808 503.06 519.248 502.92 519.802 502.92C520.328 502.92 520.758 503.053 521.092 503.32C521.432 503.58 521.628 503.953 521.682 504.44H520.852C520.818 504.187 520.708 503.99 520.522 503.85C520.342 503.703 520.098 503.63 519.792 503.63C519.492 503.63 519.258 503.693 519.092 503.82C518.932 503.947 518.852 504.113 518.852 504.32C518.852 504.52 518.955 504.677 519.162 504.79C519.375 504.903 519.662 505 520.022 505.08C520.328 505.147 520.618 505.23 520.892 505.33C521.172 505.423 521.398 505.567 521.572 505.76C521.752 505.947 521.842 506.22 521.842 506.58C521.848 507.027 521.678 507.397 521.332 507.69C520.992 507.977 520.528 508.12 519.942 508.12ZM523.552 501.94C523.385 501.94 523.245 501.887 523.132 501.78C523.025 501.667 522.972 501.527 522.972 501.36C522.972 501.2 523.025 501.067 523.132 500.96C523.245 500.853 523.385 500.8 523.552 500.8C523.712 500.8 523.848 500.853 523.962 500.96C524.075 501.067 524.132 501.2 524.132 501.36C524.132 501.527 524.075 501.667 523.962 501.78C523.848 501.887 523.712 501.94 523.552 501.94ZM523.132 508V503.04H523.972V508H523.132ZM527.694 508.12C527.227 508.12 526.807 508.013 526.434 507.8C526.061 507.587 525.764 507.287 525.544 506.9C525.331 506.507 525.224 506.047 525.224 505.52C525.224 504.993 525.334 504.537 525.554 504.15C525.774 503.757 526.071 503.453 526.444 503.24C526.824 503.027 527.247 502.92 527.714 502.92C528.181 502.92 528.601 503.027 528.974 503.24C529.347 503.453 529.641 503.757 529.854 504.15C530.074 504.537 530.184 504.993 530.184 505.52C530.184 506.047 530.074 506.507 529.854 506.9C529.634 507.287 529.334 507.587 528.954 507.8C528.581 508.013 528.161 508.12 527.694 508.12ZM527.694 507.4C527.981 507.4 528.247 507.33 528.494 507.19C528.741 507.05 528.941 506.84 529.094 506.56C529.247 506.28 529.324 505.933 529.324 505.52C529.324 505.107 529.247 504.76 529.094 504.48C528.947 504.2 528.751 503.99 528.504 503.85C528.257 503.71 527.994 503.64 527.714 503.64C527.427 503.64 527.161 503.71 526.914 503.85C526.667 503.99 526.467 504.2 526.314 504.48C526.161 504.76 526.084 505.107 526.084 505.52C526.084 505.933 526.161 506.28 526.314 506.56C526.467 506.84 526.664 507.05 526.904 507.19C527.151 507.33 527.414 507.4 527.694 507.4ZM531.352 508V503.04H532.112L532.162 503.93C532.322 503.617 532.552 503.37 532.852 503.19C533.152 503.01 533.492 502.92 533.872 502.92C534.459 502.92 534.925 503.1 535.272 503.46C535.625 503.813 535.802 504.36 535.802 505.1V508H534.962V505.19C534.962 504.157 534.535 503.64 533.682 503.64C533.255 503.64 532.899 503.797 532.612 504.11C532.332 504.417 532.192 504.857 532.192 505.43V508H531.352ZM540.461 508V501.94L539.331 502.19V501.61L540.741 501H541.311V508H540.461ZM543.029 508.05C542.862 508.05 542.722 507.997 542.609 507.89C542.502 507.777 542.449 507.64 542.449 507.48C542.449 507.32 542.502 507.187 542.609 507.08C542.722 506.967 542.862 506.91 543.029 506.91C543.189 506.91 543.322 506.967 543.429 507.08C543.542 507.187 543.599 507.32 543.599 507.48C543.599 507.64 543.542 507.777 543.429 507.89C543.322 507.997 543.189 508.05 543.029 508.05ZM547.912 508V506.5H544.362V505.85L547.762 501H548.742V505.76H549.782V506.5H548.742V508H547.912ZM545.292 505.76H547.952V501.93L545.292 505.76Z" fill="#6B7280"/>
<path d="M380.97 508.12C380.457 508.12 380.01 508.027 379.63 507.84C379.25 507.653 378.957 507.393 378.75 507.06C378.543 506.727 378.44 506.34 378.44 505.9H379.32C379.32 506.173 379.383 506.427 379.51 506.66C379.637 506.887 379.82 507.07 380.06 507.21C380.307 507.343 380.61 507.41 380.97 507.41C381.443 507.41 381.81 507.297 382.07 507.07C382.33 506.843 382.46 506.56 382.46 506.22C382.46 505.94 382.4 505.717 382.28 505.55C382.16 505.377 381.997 505.237 381.79 505.13C381.59 505.023 381.357 504.93 381.09 504.85C380.83 504.77 380.557 504.68 380.27 504.58C379.73 504.393 379.33 504.163 379.07 503.89C378.81 503.61 378.68 503.247 378.68 502.8C378.673 502.427 378.76 502.097 378.94 501.81C379.12 501.517 379.373 501.29 379.7 501.13C380.033 500.963 380.427 500.88 380.88 500.88C381.327 500.88 381.713 500.963 382.04 501.13C382.373 501.297 382.63 501.527 382.81 501.82C382.997 502.113 383.093 502.447 383.1 502.82H382.22C382.22 502.627 382.17 502.437 382.07 502.25C381.97 502.057 381.817 501.9 381.61 501.78C381.41 501.66 381.157 501.6 380.85 501.6C380.47 501.593 380.157 501.69 379.91 501.89C379.67 502.09 379.55 502.367 379.55 502.72C379.55 503.02 379.633 503.25 379.8 503.41C379.973 503.57 380.213 503.703 380.52 503.81C380.827 503.91 381.18 504.027 381.58 504.16C381.913 504.28 382.213 504.42 382.48 504.58C382.747 504.74 382.953 504.947 383.1 505.2C383.253 505.453 383.33 505.777 383.33 506.17C383.33 506.503 383.243 506.82 383.07 507.12C382.897 507.413 382.633 507.653 382.28 507.84C381.933 508.027 381.497 508.12 380.97 508.12ZM384.471 510.2V503.04H385.231L385.311 503.86C385.471 503.62 385.698 503.403 385.991 503.21C386.291 503.017 386.671 502.92 387.131 502.92C387.625 502.92 388.055 503.033 388.421 503.26C388.788 503.487 389.071 503.797 389.271 504.19C389.478 504.583 389.581 505.03 389.581 505.53C389.581 506.03 389.478 506.477 389.271 506.87C389.071 507.257 388.785 507.563 388.411 507.79C388.045 508.01 387.615 508.12 387.121 508.12C386.715 508.12 386.351 508.037 386.031 507.87C385.718 507.703 385.478 507.47 385.311 507.17V510.2H384.471ZM387.031 507.39C387.365 507.39 387.658 507.313 387.911 507.16C388.165 507 388.365 506.78 388.511 506.5C388.658 506.22 388.731 505.893 388.731 505.52C388.731 505.147 388.658 504.82 388.511 504.54C388.365 504.26 388.165 504.043 387.911 503.89C387.658 503.73 387.365 503.65 387.031 503.65C386.698 503.65 386.405 503.73 386.151 503.89C385.898 504.043 385.698 504.26 385.551 504.54C385.405 504.82 385.331 505.147 385.331 505.52C385.331 505.893 385.405 506.22 385.551 506.5C385.698 506.78 385.898 507 386.151 507.16C386.405 507.313 386.698 507.39 387.031 507.39ZM390.751 508V503.04H391.511L391.581 503.99C391.734 503.663 391.967 503.403 392.281 503.21C392.594 503.017 392.981 502.92 393.441 502.92V503.8H393.211C392.917 503.8 392.647 503.853 392.401 503.96C392.154 504.06 391.957 504.233 391.811 504.48C391.664 504.727 391.591 505.067 391.591 505.5V508H390.751ZM394.893 501.94C394.727 501.94 394.587 501.887 394.473 501.78C394.367 501.667 394.313 501.527 394.313 501.36C394.313 501.2 394.367 501.067 394.473 500.96C394.587 500.853 394.727 500.8 394.893 500.8C395.053 500.8 395.19 500.853 395.303 500.96C395.417 501.067 395.473 501.2 395.473 501.36C395.473 501.527 395.417 501.667 395.303 501.78C395.19 501.887 395.053 501.94 394.893 501.94ZM394.473 508V503.04H395.313V508H394.473ZM396.776 508V503.04H397.536L397.586 503.93C397.746 503.617 397.976 503.37 398.276 503.19C398.576 503.01 398.916 502.92 399.296 502.92C399.883 502.92 400.349 503.1 400.696 503.46C401.049 503.813 401.226 504.36 401.226 505.1V508H400.386V505.19C400.386 504.157 399.959 503.64 399.106 503.64C398.679 503.64 398.323 503.797 398.036 504.11C397.756 504.417 397.616 504.857 397.616 505.43V508H396.776ZM404.459 508C404.005 508 403.649 507.89 403.389 507.67C403.129 507.45 402.999 507.053 402.999 506.48V503.75H402.139V503.04H402.999L403.109 501.85H403.839V503.04H405.299V503.75H403.839V506.48C403.839 506.793 403.902 507.007 404.029 507.12C404.155 507.227 404.379 507.28 404.699 507.28H405.219V508H404.459ZM408.952 508V507.41C409.426 507.037 409.872 506.66 410.292 506.28C410.719 505.893 411.096 505.513 411.422 505.14C411.756 504.767 412.016 504.4 412.202 504.04C412.396 503.68 412.492 503.333 412.492 503C412.492 502.753 412.449 502.523 412.362 502.31C412.282 502.097 412.149 501.927 411.962 501.8C411.776 501.667 411.522 501.6 411.202 501.6C410.896 501.6 410.639 501.67 410.432 501.81C410.226 501.943 410.069 502.123 409.962 502.35C409.862 502.577 409.812 502.82 409.812 503.08H409.002C409.002 502.62 409.099 502.227 409.292 501.9C409.486 501.567 409.749 501.313 410.082 501.14C410.416 500.967 410.792 500.88 411.212 500.88C411.832 500.88 412.339 501.057 412.732 501.41C413.132 501.757 413.332 502.277 413.332 502.97C413.332 503.383 413.229 503.793 413.022 504.2C412.816 504.6 412.552 504.99 412.232 505.37C411.912 505.743 411.569 506.093 411.202 506.42C410.842 506.747 410.506 507.04 410.192 507.3H413.572V508H408.952ZM415.025 508.05C414.858 508.05 414.718 507.997 414.605 507.89C414.498 507.777 414.445 507.64 414.445 507.48C414.445 507.32 414.498 507.187 414.605 507.08C414.718 506.967 414.858 506.91 415.025 506.91C415.185 506.91 415.318 506.967 415.425 507.08C415.538 507.187 415.595 507.32 415.595 507.48C415.595 507.64 415.538 507.777 415.425 507.89C415.318 507.997 415.185 508.05 415.025 508.05ZM418.918 508.12C418.471 508.12 418.068 508.04 417.708 507.88C417.348 507.713 417.058 507.467 416.838 507.14C416.625 506.813 416.511 506.407 416.498 505.92H417.348C417.355 506.32 417.495 506.667 417.768 506.96C418.041 507.247 418.425 507.39 418.918 507.39C419.411 507.39 419.781 507.253 420.028 506.98C420.281 506.707 420.408 506.377 420.408 505.99C420.408 505.663 420.328 505.397 420.168 505.19C420.015 504.983 419.805 504.83 419.538 504.73C419.278 504.63 418.991 504.58 418.678 504.58H418.158V503.87H418.678C419.131 503.87 419.485 503.767 419.738 503.56C419.998 503.353 420.128 503.063 420.128 502.69C420.128 502.377 420.025 502.12 419.818 501.92C419.618 501.713 419.318 501.61 418.918 501.61C418.531 501.61 418.221 501.727 417.988 501.96C417.755 502.187 417.625 502.473 417.598 502.82H416.748C416.768 502.44 416.868 502.103 417.048 501.81C417.235 501.517 417.488 501.29 417.808 501.13C418.128 500.963 418.498 500.88 418.918 500.88C419.371 500.88 419.748 500.96 420.048 501.12C420.355 501.28 420.585 501.493 420.738 501.76C420.898 502.027 420.978 502.32 420.978 502.64C420.978 502.993 420.881 503.317 420.688 503.61C420.495 503.897 420.205 504.09 419.818 504.19C420.231 504.277 420.575 504.473 420.848 504.78C421.121 505.087 421.258 505.49 421.258 505.99C421.258 506.377 421.168 506.733 420.988 507.06C420.815 507.38 420.555 507.637 420.208 507.83C419.861 508.023 419.431 508.12 418.918 508.12Z" fill="#6B7280"/>
<path d="M14.36 38V24H19.54C20.66 24 21.5867 24.1867 22.32 24.56C23.0533 24.9333 23.6 25.4467 23.96 26.1C24.32 26.7533 24.5 27.4867 24.5 28.3C24.5 29.0733 24.3267 29.7867 23.98 30.44C23.6333 31.08 23.0933 31.6 22.36 32C21.6267 32.3867 20.6867 32.58 19.54 32.58H16.92V38H14.36ZM16.92 30.5H19.38C20.2733 30.5 20.9133 30.3067 21.3 29.92C21.7 29.52 21.9 28.98 21.9 28.3C21.9 27.6067 21.7 27.0667 21.3 26.68C20.9133 26.28 20.2733 26.08 19.38 26.08H16.92V30.5ZM26.4484 38V28.08H28.7284L28.9684 29.94C29.3284 29.3 29.8151 28.7933 30.4284 28.42C31.0551 28.0333 31.7884 27.84 32.6284 27.84V30.54H31.9084C31.3484 30.54 30.8484 30.6267 30.4084 30.8C29.9684 30.9733 29.6218 31.2733 29.3684 31.7C29.1284 32.1267 29.0084 32.72 29.0084 33.48V38H26.4484ZM38.9623 38.24C38.0023 38.24 37.1357 38.02 36.3623 37.58C35.6023 37.14 34.9957 36.5333 34.5423 35.76C34.1023 34.9733 33.8823 34.0667 33.8823 33.04C33.8823 32.0133 34.109 31.1133 34.5623 30.34C35.0157 29.5533 35.6223 28.94 36.3823 28.5C37.1557 28.06 38.0223 27.84 38.9823 27.84C39.929 27.84 40.7823 28.06 41.5423 28.5C42.3157 28.94 42.9223 29.5533 43.3623 30.34C43.8157 31.1133 44.0423 32.0133 44.0423 33.04C44.0423 34.0667 43.8157 34.9733 43.3623 35.76C42.9223 36.5333 42.3157 37.14 41.5423 37.58C40.769 38.02 39.909 38.24 38.9623 38.24ZM38.9623 36.02C39.629 36.02 40.209 35.7733 40.7023 35.28C41.1957 34.7733 41.4423 34.0267 41.4423 33.04C41.4423 32.0533 41.1957 31.3133 40.7023 30.82C40.209 30.3133 39.6357 30.06 38.9823 30.06C38.3023 30.06 37.7157 30.3133 37.2223 30.82C36.7423 31.3133 36.5023 32.0533 36.5023 33.04C36.5023 34.0267 36.7423 34.7733 37.2223 35.28C37.7157 35.7733 38.2957 36.02 38.9623 36.02ZM47.7513 26.54C47.2846 26.54 46.8979 26.4 46.5913 26.12C46.2979 25.84 46.1513 25.4867 46.1513 25.06C46.1513 24.6333 46.2979 24.2867 46.5913 24.02C46.8979 23.74 47.2846 23.6 47.7513 23.6C48.2179 23.6 48.5979 23.74 48.8913 24.02C49.1979 24.2867 49.3513 24.6333 49.3513 25.06C49.3513 25.4867 49.1979 25.84 48.8913 26.12C48.5979 26.4 48.2179 26.54 47.7513 26.54ZM44.4512 42.4V40.22H45.2313C45.6713 40.22 45.9846 40.1333 46.1713 39.96C46.3579 39.7867 46.4513 39.4933 46.4513 39.08V28.08H49.0113V39.08C49.0113 40.28 48.7046 41.1333 48.0913 41.64C47.4913 42.1467 46.6713 42.4 45.6313 42.4H44.4512ZM56.5028 38.24C55.5028 38.24 54.6161 38.0267 53.8428 37.6C53.0695 37.1733 52.4628 36.5733 52.0228 35.8C51.5828 35.0267 51.3628 34.1333 51.3628 33.12C51.3628 32.0933 51.5761 31.18 52.0028 30.38C52.4428 29.58 53.0428 28.96 53.8028 28.52C54.5761 28.0667 55.4828 27.84 56.5228 27.84C57.4961 27.84 58.3561 28.0533 59.1028 28.48C59.8495 28.9067 60.4295 29.4933 60.8428 30.24C61.2695 30.9733 61.4828 31.7933 61.4828 32.7C61.4828 32.8467 61.4761 33 61.4628 33.16C61.4628 33.32 61.4561 33.4867 61.4428 33.66H53.9028C53.9561 34.4333 54.2228 35.04 54.7028 35.48C55.1961 35.92 55.7895 36.14 56.4828 36.14C57.0028 36.14 57.4361 36.0267 57.7828 35.8C58.1428 35.56 58.4095 35.2533 58.5828 34.88H61.1828C60.9961 35.5067 60.6828 36.08 60.2428 36.6C59.8161 37.1067 59.2828 37.5067 58.6428 37.8C58.0161 38.0933 57.3028 38.24 56.5028 38.24ZM56.5228 29.92C55.8961 29.92 55.3428 30.1 54.8628 30.46C54.3828 30.8067 54.0761 31.34 53.9428 32.06H58.8828C58.8428 31.4067 58.6028 30.8867 58.1628 30.5C57.7228 30.1133 57.1761 29.92 56.5228 29.92ZM68.4959 38.24C67.4826 38.24 66.5893 38.02 65.8159 37.58C65.0426 37.14 64.4293 36.5267 63.9759 35.74C63.5359 34.9533 63.3159 34.0533 63.3159 33.04C63.3159 32.0267 63.5359 31.1267 63.9759 30.34C64.4293 29.5533 65.0426 28.94 65.8159 28.5C66.5893 28.06 67.4826 27.84 68.4959 27.84C69.7626 27.84 70.8293 28.1733 71.6959 28.84C72.5626 29.4933 73.1159 30.4 73.3559 31.56H70.6559C70.5226 31.08 70.2559 30.7067 69.8559 30.44C69.4693 30.16 69.0093 30.02 68.4759 30.02C67.7693 30.02 67.1693 30.2867 66.6759 30.82C66.1826 31.3533 65.9359 32.0933 65.9359 33.04C65.9359 33.9867 66.1826 34.7267 66.6759 35.26C67.1693 35.7933 67.7693 36.06 68.4759 36.06C69.0093 36.06 69.4693 35.9267 69.8559 35.66C70.2559 35.3933 70.5226 35.0133 70.6559 34.52H73.3559C73.1159 35.64 72.5626 36.54 71.6959 37.22C70.8293 37.9 69.7626 38.24 68.4959 38.24ZM79.9114 38C78.8714 38 78.0381 37.7467 77.4114 37.24C76.7847 36.7333 76.4714 35.8333 76.4714 34.54V30.22H74.7714V28.08H76.4714L76.7714 25.42H79.0314V28.08H81.7114V30.22H79.0314V34.56C79.0314 35.04 79.1314 35.3733 79.3314 35.56C79.5447 35.7333 79.9047 35.82 80.4114 35.82H81.6514V38H79.9114ZM91.995 38V26.06H87.915V24H98.655V26.06H94.555V38H91.995ZM101.871 26.54C101.405 26.54 101.018 26.4 100.711 26.12C100.418 25.84 100.271 25.4867 100.271 25.06C100.271 24.6333 100.418 24.2867 100.711 24.02C101.018 23.74 101.405 23.6 101.871 23.6C102.338 23.6 102.718 23.74 103.011 24.02C103.318 24.2867 103.471 24.6333 103.471 25.06C103.471 25.4867 103.318 25.84 103.011 26.12C102.718 26.4 102.338 26.54 101.871 26.54ZM100.591 38V28.08H103.151V38H100.591ZM110.243 38C109.203 38 108.37 37.7467 107.743 37.24C107.117 36.7333 106.803 35.8333 106.803 34.54V30.22H105.103V28.08H106.803L107.103 25.42H109.363V28.08H112.043V30.22H109.363V34.56C109.363 35.04 109.463 35.3733 109.663 35.56C109.877 35.7333 110.237 35.82 110.743 35.82H111.983V38H110.243ZM114.241 38V23.6H116.801V38H114.241ZM124.237 38.24C123.237 38.24 122.351 38.0267 121.577 37.6C120.804 37.1733 120.197 36.5733 119.757 35.8C119.317 35.0267 119.097 34.1333 119.097 33.12C119.097 32.0933 119.311 31.18 119.737 30.38C120.177 29.58 120.777 28.96 121.537 28.52C122.311 28.0667 123.217 27.84 124.257 27.84C125.231 27.84 126.091 28.0533 126.837 28.48C127.584 28.9067 128.164 29.4933 128.577 30.24C129.004 30.9733 129.217 31.7933 129.217 32.7C129.217 32.8467 129.211 33 129.197 33.16C129.197 33.32 129.191 33.4867 129.177 33.66H121.637C121.691 34.4333 121.957 35.04 122.437 35.48C122.931 35.92 123.524 36.14 124.217 36.14C124.737 36.14 125.171 36.0267 125.517 35.8C125.877 35.56 126.144 35.2533 126.317 34.88H128.917C128.731 35.5067 128.417 36.08 127.977 36.6C127.551 37.1067 127.017 37.5067 126.377 37.8C125.751 38.0933 125.037 38.24 124.237 38.24ZM124.257 29.92C123.631 29.92 123.077 30.1 122.597 30.46C122.117 30.8067 121.811 31.34 121.677 32.06H126.617C126.577 31.4067 126.337 30.8867 125.897 30.5C125.457 30.1133 124.911 29.92 124.257 29.92Z" fill="#904EE2"/>
</svg>
