<svg width="212" height="57" viewBox="0 0 212 57" fill="none" xmlns="http://www.w3.org/2000/svg">
<path d="M2.464 23V0.439999H12.256C14.7307 0.439999 16.64 1.03733 17.984 2.232C19.328 3.40533 20 5.05867 20 7.192C20 8.57867 19.6907 9.77333 19.072 10.776C18.4747 11.7787 17.6 12.5467 16.448 13.08C15.296 13.6133 13.8987 13.88 12.256 13.88L12.544 13.4H13.6C14.4747 13.4 15.232 13.6133 15.872 14.04C16.5333 14.4667 17.1093 15.1387 17.6 16.056L21.376 23H16.864L12.96 15.8C12.704 15.3307 12.416 14.968 12.096 14.712C11.776 14.4347 11.4133 14.2427 11.008 14.136C10.6027 14.0293 10.1333 13.976 9.6 13.976H6.56V23H2.464ZM6.56 10.936H11.552C13.024 10.936 14.1333 10.6373 14.88 10.04C15.648 9.42133 16.032 8.504 16.032 7.288C16.032 6.09333 15.648 5.19733 14.88 4.6C14.1333 3.98133 13.024 3.672 11.552 3.672H6.56V10.936ZM24.4655 23V0.439999H27.8895L36.4015 16.152H35.3775L43.8575 0.439999H47.2175V23H43.5055V6.52H44.2095L37.0415 19.576H34.6415L27.4095 6.488H28.1775V23H24.4655ZM57.6228 23V3.864H49.8788V0.439999H69.4628V3.864H61.7188V23H57.6228ZM76.8858 23.32C75.1151 23.32 73.5898 22.9893 72.3098 22.328C71.0298 21.6667 70.0378 20.728 69.3338 19.512C68.6511 18.296 68.3098 16.856 68.3098 15.192C68.3098 13.5707 68.6404 12.152 69.3018 10.936C69.9844 9.72 70.9124 8.77067 72.0858 8.088C73.2804 7.384 74.6351 7.032 76.1498 7.032C77.6431 7.032 78.9231 7.352 79.9898 7.992C81.0564 8.632 81.8778 9.53867 82.4538 10.712C83.0511 11.8853 83.3498 13.2827 83.3498 14.904V16.088H71.5418V13.784H80.5338L80.0218 14.264C80.0218 12.8133 79.7018 11.704 79.0618 10.936C78.4218 10.1467 77.5044 9.752 76.3098 9.752C75.4138 9.752 74.6458 9.96533 74.0058 10.392C73.3871 10.7973 72.9071 11.384 72.5658 12.152C72.2458 12.8987 72.0858 13.7947 72.0858 14.84V15.064C72.0858 16.2373 72.2671 17.208 72.6298 17.976C72.9924 18.744 73.5364 19.32 74.2618 19.704C74.9871 20.088 75.8831 20.28 76.9498 20.28C77.8244 20.28 78.6991 20.152 79.5738 19.896C80.4484 19.6187 81.2484 19.192 81.9738 18.616L83.0938 21.304C82.3471 21.9227 81.4084 22.4133 80.2778 22.776C79.1471 23.1387 78.0164 23.32 76.8858 23.32ZM86.5175 23V0.439999H90.5175V14.008H90.5815L96.8855 7.352H101.718L93.8455 15.672V14.008L102.166 23H97.2695L90.5815 16.024H90.5175V23H86.5175ZM111.834 23.32C110.66 23.32 109.53 23.2133 108.442 23C107.375 22.808 106.383 22.52 105.466 22.136C104.57 21.752 103.77 21.2933 103.066 20.76L104.314 17.528C105.018 18.0187 105.754 18.4453 106.522 18.808C107.311 19.1493 108.143 19.416 109.018 19.608C109.914 19.7787 110.852 19.864 111.834 19.864C113.519 19.864 114.746 19.5867 115.514 19.032C116.282 18.456 116.666 17.72 116.666 16.824C116.666 16.3333 116.548 15.9173 116.314 15.576C116.079 15.2133 115.695 14.904 115.162 14.648C114.628 14.392 113.924 14.1787 113.05 14.008L109.53 13.272C107.503 12.8453 105.988 12.1307 104.986 11.128C104.004 10.104 103.514 8.76 103.514 7.096C103.514 5.688 103.887 4.46133 104.634 3.416C105.38 2.37067 106.415 1.56 107.738 0.983999C109.06 0.407999 110.586 0.119999 112.314 0.119999C113.338 0.119999 114.319 0.226665 115.258 0.439999C116.218 0.631999 117.092 0.930665 117.882 1.336C118.692 1.72 119.396 2.18933 119.994 2.744L118.746 5.816C117.85 5.06933 116.868 4.51467 115.802 4.152C114.735 3.768 113.562 3.576 112.282 3.576C111.3 3.576 110.458 3.71467 109.754 3.992C109.05 4.26933 108.506 4.664 108.122 5.176C107.759 5.66667 107.578 6.25333 107.578 6.936C107.578 7.704 107.834 8.32267 108.346 8.792C108.858 9.24 109.732 9.592 110.97 9.848L114.458 10.584C116.57 11.032 118.138 11.736 119.162 12.696C120.207 13.656 120.73 14.936 120.73 16.536C120.73 17.88 120.367 19.064 119.642 20.088C118.916 21.112 117.882 21.912 116.538 22.488C115.215 23.0427 113.647 23.32 111.834 23.32ZM125.019 28.76L128.283 21.56V23.224L121.403 7.352H125.659L130.523 19.48H129.563L134.523 7.352H138.555L129.147 28.76H125.019ZM145.871 23.32C144.996 23.32 144.143 23.2453 143.311 23.096C142.5 22.9467 141.753 22.744 141.071 22.488C140.388 22.2107 139.791 21.8693 139.279 21.464L140.303 18.84C140.836 19.1813 141.412 19.48 142.031 19.736C142.649 19.992 143.289 20.184 143.951 20.312C144.612 20.44 145.263 20.504 145.903 20.504C146.927 20.504 147.684 20.3333 148.175 19.992C148.687 19.6293 148.943 19.16 148.943 18.584C148.943 18.0933 148.772 17.72 148.431 17.464C148.111 17.1867 147.62 16.984 146.959 16.856L143.759 16.248C142.436 15.992 141.423 15.512 140.719 14.808C140.036 14.0827 139.695 13.1547 139.695 12.024C139.695 11 139.972 10.1147 140.527 9.368C141.103 8.62133 141.892 8.04533 142.895 7.64C143.897 7.23467 145.049 7.032 146.351 7.032C147.097 7.032 147.823 7.10667 148.527 7.256C149.231 7.384 149.892 7.58667 150.511 7.864C151.151 8.12 151.705 8.46133 152.175 8.888L151.087 11.512C150.681 11.1707 150.212 10.8827 149.679 10.648C149.145 10.392 148.591 10.2 148.015 10.072C147.46 9.92267 146.916 9.848 146.383 9.848C145.337 9.848 144.559 10.0293 144.047 10.392C143.556 10.7547 143.311 11.2347 143.311 11.832C143.311 12.28 143.46 12.6533 143.759 12.952C144.057 13.2507 144.516 13.4533 145.135 13.56L148.335 14.168C149.721 14.424 150.767 14.8933 151.471 15.576C152.196 16.2587 152.559 17.176 152.559 18.328C152.559 19.3733 152.281 20.2693 151.727 21.016C151.172 21.7627 150.393 22.3387 149.391 22.744C148.388 23.128 147.215 23.32 145.871 23.32ZM162.779 23.32C160.689 23.32 159.131 22.7973 158.107 21.752C157.083 20.7067 156.571 19.1813 156.571 17.176V10.36H153.563V7.352H156.571V2.68H160.571V7.352H165.307V10.36H160.571V16.952C160.571 17.976 160.795 18.744 161.243 19.256C161.691 19.768 162.417 20.024 163.419 20.024C163.718 20.024 164.027 19.992 164.347 19.928C164.667 19.8427 164.998 19.7573 165.339 19.672L165.947 22.616C165.563 22.8293 165.073 23 164.475 23.128C163.899 23.256 163.334 23.32 162.779 23.32ZM175.448 23.32C173.678 23.32 172.152 22.9893 170.872 22.328C169.592 21.6667 168.6 20.728 167.896 19.512C167.214 18.296 166.872 16.856 166.872 15.192C166.872 13.5707 167.203 12.152 167.864 10.936C168.547 9.72 169.475 8.77067 170.648 8.088C171.843 7.384 173.198 7.032 174.712 7.032C176.206 7.032 177.486 7.352 178.552 7.992C179.619 8.632 180.44 9.53867 181.016 10.712C181.614 11.8853 181.912 13.2827 181.912 14.904V16.088H170.104V13.784H179.096L178.584 14.264C178.584 12.8133 178.264 11.704 177.624 10.936C176.984 10.1467 176.067 9.752 174.872 9.752C173.976 9.752 173.208 9.96533 172.568 10.392C171.95 10.7973 171.47 11.384 171.128 12.152C170.808 12.8987 170.648 13.7947 170.648 14.84V15.064C170.648 16.2373 170.83 17.208 171.192 17.976C171.555 18.744 172.099 19.32 172.824 19.704C173.55 20.088 174.446 20.28 175.512 20.28C176.387 20.28 177.262 20.152 178.136 19.896C179.011 19.6187 179.811 19.192 180.536 18.616L181.656 21.304C180.91 21.9227 179.971 22.4133 178.84 22.776C177.71 23.1387 176.579 23.32 175.448 23.32ZM185.144 23V7.352H189.048V10.488H188.696C188.973 9.76267 189.357 9.144 189.848 8.632C190.339 8.12 190.925 7.72533 191.608 7.448C192.291 7.17067 193.048 7.032 193.88 7.032C195.139 7.032 196.173 7.33067 196.984 7.928C197.795 8.52533 198.36 9.44267 198.68 10.68H198.232C198.659 9.54933 199.363 8.664 200.344 8.024C201.325 7.36267 202.456 7.032 203.736 7.032C204.931 7.032 205.912 7.26667 206.68 7.736C207.469 8.20533 208.056 8.92 208.44 9.88C208.824 10.8187 209.016 12.0133 209.016 13.464V23H205.016V13.624C205.016 12.4293 204.813 11.5547 204.408 11C204.024 10.4453 203.363 10.168 202.424 10.168C201.741 10.168 201.144 10.3387 200.632 10.68C200.12 11 199.725 11.4693 199.448 12.088C199.192 12.7067 199.064 13.4533 199.064 14.328V23H195.064V13.624C195.064 12.4293 194.861 11.5547 194.456 11C194.072 10.4453 193.421 10.168 192.504 10.168C191.8 10.168 191.192 10.3387 190.68 10.68C190.189 11 189.805 11.4693 189.528 12.088C189.272 12.7067 189.144 13.4533 189.144 14.328V23H185.144Z" fill="black"/>
<path d="M0.304 51L5.28 39.72H6.4L11.376 51H10.016L8.624 47.784L9.264 48.12H2.384L3.04 47.784L1.664 51H0.304ZM5.824 41.256L3.248 47.32L2.864 47.016H8.784L8.432 47.32L5.856 41.256H5.824ZM15.4025 51.144C14.9972 51.144 14.6025 51.1013 14.2185 51.016C13.8452 50.9413 13.4932 50.8347 13.1625 50.696C12.8425 50.5467 12.5652 50.3707 12.3305 50.168L12.7465 49.256C13.0025 49.4587 13.2798 49.6293 13.5785 49.768C13.8772 49.896 14.1812 49.992 14.4905 50.056C14.7998 50.12 15.1145 50.152 15.4345 50.152C16.0425 50.152 16.5012 50.04 16.8105 49.816C17.1198 49.592 17.2745 49.288 17.2745 48.904C17.2745 48.6053 17.1732 48.3707 16.9705 48.2C16.7678 48.0187 16.4478 47.88 16.0105 47.784L14.5545 47.464C13.8825 47.3253 13.3812 47.0853 13.0505 46.744C12.7305 46.4027 12.5705 45.96 12.5705 45.416C12.5705 44.936 12.6932 44.5253 12.9385 44.184C13.1945 43.832 13.5518 43.56 14.0105 43.368C14.4692 43.176 15.0025 43.08 15.6105 43.08C15.9732 43.08 16.3198 43.1173 16.6505 43.192C16.9812 43.2667 17.2905 43.3787 17.5785 43.528C17.8772 43.6667 18.1332 43.8427 18.3465 44.056L17.9145 44.968C17.7118 44.776 17.4825 44.616 17.2265 44.488C16.9705 44.3493 16.7038 44.248 16.4265 44.184C16.1598 44.1093 15.8878 44.072 15.6105 44.072C15.0132 44.072 14.5598 44.1893 14.2505 44.424C13.9412 44.6587 13.7865 44.968 13.7865 45.352C13.7865 45.6507 13.8825 45.896 14.0745 46.088C14.2665 46.28 14.5652 46.4187 14.9705 46.504L16.4265 46.808C17.1198 46.9573 17.6372 47.1973 17.9785 47.528C18.3305 47.848 18.5065 48.2853 18.5065 48.84C18.5065 49.3093 18.3785 49.72 18.1225 50.072C17.8665 50.4133 17.5038 50.68 17.0345 50.872C16.5758 51.0533 16.0318 51.144 15.4025 51.144ZM23.1056 51.144C22.7003 51.144 22.3056 51.1013 21.9216 51.016C21.5483 50.9413 21.1963 50.8347 20.8656 50.696C20.5456 50.5467 20.2683 50.3707 20.0336 50.168L20.4496 49.256C20.7056 49.4587 20.983 49.6293 21.2816 49.768C21.5803 49.896 21.8843 49.992 22.1936 50.056C22.503 50.12 22.8176 50.152 23.1376 50.152C23.7456 50.152 24.2043 50.04 24.5136 49.816C24.823 49.592 24.9776 49.288 24.9776 48.904C24.9776 48.6053 24.8763 48.3707 24.6736 48.2C24.471 48.0187 24.151 47.88 23.7136 47.784L22.2576 47.464C21.5856 47.3253 21.0843 47.0853 20.7536 46.744C20.4336 46.4027 20.2736 45.96 20.2736 45.416C20.2736 44.936 20.3963 44.5253 20.6416 44.184C20.8976 43.832 21.255 43.56 21.7136 43.368C22.1723 43.176 22.7056 43.08 23.3136 43.08C23.6763 43.08 24.023 43.1173 24.3536 43.192C24.6843 43.2667 24.9936 43.3787 25.2816 43.528C25.5803 43.6667 25.8363 43.8427 26.0496 44.056L25.6176 44.968C25.415 44.776 25.1856 44.616 24.9296 44.488C24.6736 44.3493 24.407 44.248 24.1296 44.184C23.863 44.1093 23.591 44.072 23.3136 44.072C22.7163 44.072 22.263 44.1893 21.9536 44.424C21.6443 44.6587 21.4896 44.968 21.4896 45.352C21.4896 45.6507 21.5856 45.896 21.7776 46.088C21.9696 46.28 22.2683 46.4187 22.6736 46.504L24.1296 46.808C24.823 46.9573 25.3403 47.1973 25.6816 47.528C26.0336 47.848 26.2096 48.2853 26.2096 48.84C26.2096 49.3093 26.0816 49.72 25.8256 50.072C25.5696 50.4133 25.207 50.68 24.7376 50.872C24.279 51.0533 23.735 51.144 23.1056 51.144ZM31.6888 51.144C30.8674 51.144 30.1581 50.984 29.5608 50.664C28.9741 50.3333 28.5154 49.8693 28.1848 49.272C27.8648 48.6747 27.7048 47.96 27.7048 47.128C27.7048 46.3173 27.8648 45.6133 28.1848 45.016C28.5048 44.408 28.9421 43.9333 29.4968 43.592C30.0621 43.2507 30.7128 43.08 31.4488 43.08C32.1528 43.08 32.7554 43.2347 33.2568 43.544C33.7581 43.8533 34.1421 44.2907 34.4088 44.856C34.6861 45.4213 34.8248 46.0987 34.8248 46.888V47.384H28.6968V46.536H33.9608L33.7048 46.744C33.7048 45.8907 33.5128 45.2293 33.1288 44.76C32.7554 44.28 32.2061 44.04 31.4808 44.04C30.9368 44.04 30.4728 44.168 30.0888 44.424C29.7154 44.6693 29.4328 45.016 29.2408 45.464C29.0488 45.9013 28.9528 46.4133 28.9528 47V47.096C28.9528 47.7467 29.0541 48.296 29.2568 48.744C29.4701 49.192 29.7848 49.5333 30.2008 49.768C30.6168 49.992 31.1128 50.104 31.6888 50.104C32.1474 50.104 32.5901 50.0347 33.0168 49.896C33.4541 49.7467 33.8648 49.5067 34.2488 49.176L34.6968 50.088C34.3448 50.408 33.8968 50.664 33.3528 50.856C32.8088 51.048 32.2541 51.144 31.6888 51.144ZM39.8204 51.144C38.903 51.144 38.215 50.8987 37.7564 50.408C37.2977 49.9173 37.0684 49.2187 37.0684 48.312V44.232H35.5484V43.224H37.0684V40.84H38.3644V43.224H40.8284V44.232H38.3644V48.184C38.3644 48.792 38.4924 49.256 38.7484 49.576C39.0044 49.8853 39.4204 50.04 39.9964 50.04C40.167 50.04 40.3377 50.0187 40.5084 49.976C40.679 49.9333 40.8337 49.8907 40.9724 49.848L41.1964 50.84C41.0577 50.9147 40.855 50.984 40.5884 51.048C40.3217 51.112 40.0657 51.144 39.8204 51.144ZM46.6115 51V39.72H47.7155L52.2915 48.312H51.8115L56.3555 39.72H57.4595V51H56.2435V41.48H56.6275L52.4835 49.256H51.6195L47.4275 41.464H47.8115V51H46.6115ZM62.539 51.144C62.0057 51.144 61.5257 51.0427 61.099 50.84C60.683 50.6267 60.3523 50.3387 60.107 49.976C59.8617 49.6133 59.739 49.208 59.739 48.76C59.739 48.184 59.883 47.7307 60.171 47.4C60.4697 47.0693 60.955 46.8347 61.627 46.696C62.3097 46.5573 63.2377 46.488 64.411 46.488H65.131V47.336H64.427C63.7763 47.336 63.2323 47.3573 62.795 47.4C62.3577 47.4427 62.011 47.5173 61.755 47.624C61.499 47.7307 61.3177 47.8693 61.211 48.04C61.1043 48.2107 61.051 48.424 61.051 48.68C61.051 49.1173 61.2003 49.4747 61.499 49.752C61.8083 50.0293 62.2243 50.168 62.747 50.168C63.1737 50.168 63.547 50.0667 63.867 49.864C64.1977 49.6613 64.4537 49.384 64.635 49.032C64.827 48.68 64.923 48.2747 64.923 47.816V45.992C64.923 45.3307 64.7897 44.856 64.523 44.568C64.2563 44.2693 63.819 44.12 63.211 44.12C62.7417 44.12 62.2883 44.1893 61.851 44.328C61.4137 44.456 60.9657 44.6693 60.507 44.968L60.059 44.024C60.3363 43.832 60.651 43.6667 61.003 43.528C61.355 43.3787 61.723 43.2667 62.107 43.192C62.491 43.1173 62.859 43.08 63.211 43.08C63.883 43.08 64.4377 43.192 64.875 43.416C65.3123 43.6293 65.6377 43.96 65.851 44.408C66.0643 44.8453 66.171 45.4107 66.171 46.104V51H64.955V49.192H65.099C65.0137 49.5973 64.8483 49.944 64.603 50.232C64.3683 50.52 64.075 50.744 63.723 50.904C63.371 51.064 62.9763 51.144 62.539 51.144ZM68.5754 51V43.224H69.8394V44.952H69.6634C69.8874 44.3333 70.25 43.8693 70.7514 43.56C71.2634 43.24 71.85 43.08 72.5114 43.08C73.13 43.08 73.642 43.192 74.0474 43.416C74.4634 43.6293 74.7727 43.9653 74.9754 44.424C75.178 44.8827 75.2794 45.4587 75.2794 46.152V51H73.9834V46.232C73.9834 45.752 73.9194 45.3573 73.7914 45.048C73.674 44.7387 73.482 44.5093 73.2154 44.36C72.9594 44.2107 72.6234 44.136 72.2074 44.136C71.738 44.136 71.3274 44.2373 70.9754 44.44C70.6234 44.6427 70.3514 44.9253 70.1594 45.288C69.9674 45.6507 69.8714 46.0773 69.8714 46.568V51H68.5754ZM80.1171 51.144C79.5838 51.144 79.1038 51.0427 78.6771 50.84C78.2611 50.6267 77.9305 50.3387 77.6851 49.976C77.4398 49.6133 77.3171 49.208 77.3171 48.76C77.3171 48.184 77.4611 47.7307 77.7491 47.4C78.0478 47.0693 78.5331 46.8347 79.2051 46.696C79.8878 46.5573 80.8158 46.488 81.9891 46.488H82.7091V47.336H82.0051C81.3545 47.336 80.8105 47.3573 80.3731 47.4C79.9358 47.4427 79.5891 47.5173 79.3331 47.624C79.0771 47.7307 78.8958 47.8693 78.7891 48.04C78.6825 48.2107 78.6291 48.424 78.6291 48.68C78.6291 49.1173 78.7785 49.4747 79.0771 49.752C79.3865 50.0293 79.8025 50.168 80.3251 50.168C80.7518 50.168 81.1251 50.0667 81.4451 49.864C81.7758 49.6613 82.0318 49.384 82.2131 49.032C82.4051 48.68 82.5011 48.2747 82.5011 47.816V45.992C82.5011 45.3307 82.3678 44.856 82.1011 44.568C81.8345 44.2693 81.3971 44.12 80.7891 44.12C80.3198 44.12 79.8665 44.1893 79.4291 44.328C78.9918 44.456 78.5438 44.6693 78.0851 44.968L77.6371 44.024C77.9145 43.832 78.2291 43.6667 78.5811 43.528C78.9331 43.3787 79.3011 43.2667 79.6851 43.192C80.0691 43.1173 80.4371 43.08 80.7891 43.08C81.4611 43.08 82.0158 43.192 82.4531 43.416C82.8905 43.6293 83.2158 43.96 83.4291 44.408C83.6425 44.8453 83.7491 45.4107 83.7491 46.104V51H82.5331V49.192H82.6771C82.5918 49.5973 82.4265 49.944 82.1811 50.232C81.9465 50.52 81.6531 50.744 81.3011 50.904C80.9491 51.064 80.5545 51.144 80.1171 51.144ZM89.5935 54.024C88.9215 54.024 88.2868 53.9333 87.6895 53.752C87.1028 53.5813 86.5802 53.32 86.1215 52.968L86.5535 52.024C86.8735 52.248 87.1882 52.4293 87.4975 52.568C87.8175 52.7173 88.1428 52.824 88.4735 52.888C88.8148 52.952 89.1668 52.984 89.5295 52.984C90.2868 52.984 90.8575 52.7813 91.2415 52.376C91.6362 51.9707 91.8335 51.384 91.8335 50.616V48.808H91.9935C91.8335 49.4267 91.4922 49.9173 90.9695 50.28C90.4575 50.6427 89.8548 50.824 89.1615 50.824C88.4468 50.824 87.8282 50.664 87.3055 50.344C86.7828 50.0133 86.3775 49.5547 86.0895 48.968C85.8122 48.3813 85.6735 47.704 85.6735 46.936C85.6735 46.168 85.8122 45.496 86.0895 44.92C86.3775 44.3333 86.7828 43.88 87.3055 43.56C87.8282 43.24 88.4468 43.08 89.1615 43.08C89.8655 43.08 90.4735 43.2613 90.9855 43.624C91.4975 43.976 91.8282 44.456 91.9775 45.064H91.8335V43.224H93.0975V50.44C93.0975 51.2293 92.9642 51.8907 92.6975 52.424C92.4415 52.9573 92.0522 53.3573 91.5295 53.624C91.0068 53.8907 90.3615 54.024 89.5935 54.024ZM89.4015 49.768C90.1482 49.768 90.7402 49.512 91.1775 49C91.6148 48.488 91.8335 47.8 91.8335 46.936C91.8335 46.072 91.6148 45.3893 91.1775 44.888C90.7402 44.376 90.1482 44.12 89.4015 44.12C88.6655 44.12 88.0788 44.376 87.6415 44.888C87.2042 45.3893 86.9855 46.072 86.9855 46.936C86.9855 47.8 87.2042 48.488 87.6415 49C88.0788 49.512 88.6655 49.768 89.4015 49.768ZM99.0325 51.144C98.2112 51.144 97.5018 50.984 96.9045 50.664C96.3178 50.3333 95.8592 49.8693 95.5285 49.272C95.2085 48.6747 95.0485 47.96 95.0485 47.128C95.0485 46.3173 95.2085 45.6133 95.5285 45.016C95.8485 44.408 96.2858 43.9333 96.8405 43.592C97.4058 43.2507 98.0565 43.08 98.7925 43.08C99.4965 43.08 100.099 43.2347 100.601 43.544C101.102 43.8533 101.486 44.2907 101.753 44.856C102.03 45.4213 102.169 46.0987 102.169 46.888V47.384H96.0405V46.536H101.305L101.049 46.744C101.049 45.8907 100.857 45.2293 100.473 44.76C100.099 44.28 99.5498 44.04 98.8245 44.04C98.2805 44.04 97.8165 44.168 97.4325 44.424C97.0592 44.6693 96.7765 45.016 96.5845 45.464C96.3925 45.9013 96.2965 46.4133 96.2965 47V47.096C96.2965 47.7467 96.3978 48.296 96.6005 48.744C96.8138 49.192 97.1285 49.5333 97.5445 49.768C97.9605 49.992 98.4565 50.104 99.0325 50.104C99.4912 50.104 99.9338 50.0347 100.361 49.896C100.798 49.7467 101.209 49.5067 101.593 49.176L102.041 50.088C101.689 50.408 101.241 50.664 100.697 50.856C100.153 51.048 99.5978 51.144 99.0325 51.144ZM104.076 51V43.224H105.34V44.952H105.164C105.292 44.5573 105.479 44.2213 105.724 43.944C105.98 43.656 106.279 43.4427 106.62 43.304C106.972 43.1547 107.356 43.08 107.772 43.08C108.433 43.08 108.967 43.24 109.372 43.56C109.788 43.8693 110.065 44.3547 110.204 45.016H109.964C110.156 44.4187 110.497 43.9493 110.988 43.608C111.489 43.256 112.071 43.08 112.732 43.08C113.319 43.08 113.799 43.192 114.172 43.416C114.556 43.64 114.844 43.9813 115.036 44.44C115.228 44.888 115.324 45.4587 115.324 46.152V51H114.028V46.216C114.028 45.5013 113.905 44.9787 113.66 44.648C113.415 44.3067 112.999 44.136 112.412 44.136C111.996 44.136 111.628 44.2373 111.308 44.44C110.999 44.6427 110.759 44.9307 110.588 45.304C110.428 45.6667 110.348 46.0987 110.348 46.6V51H109.052V46.216C109.052 45.5013 108.924 44.9787 108.668 44.648C108.423 44.3067 108.012 44.136 107.436 44.136C107.009 44.136 106.641 44.2373 106.332 44.44C106.023 44.6427 105.783 44.9307 105.612 45.304C105.452 45.6667 105.372 46.0987 105.372 46.6V51H104.076ZM121.251 51.144C120.43 51.144 119.721 50.984 119.123 50.664C118.537 50.3333 118.078 49.8693 117.747 49.272C117.427 48.6747 117.267 47.96 117.267 47.128C117.267 46.3173 117.427 45.6133 117.747 45.016C118.067 44.408 118.505 43.9333 119.059 43.592C119.625 43.2507 120.275 43.08 121.011 43.08C121.715 43.08 122.318 43.2347 122.819 43.544C123.321 43.8533 123.705 44.2907 123.971 44.856C124.249 45.4213 124.387 46.0987 124.387 46.888V47.384H118.259V46.536H123.523L123.267 46.744C123.267 45.8907 123.075 45.2293 122.691 44.76C122.318 44.28 121.769 44.04 121.043 44.04C120.499 44.04 120.035 44.168 119.651 44.424C119.278 44.6693 118.995 45.016 118.803 45.464C118.611 45.9013 118.515 46.4133 118.515 47V47.096C118.515 47.7467 118.617 48.296 118.819 48.744C119.033 49.192 119.347 49.5333 119.763 49.768C120.179 49.992 120.675 50.104 121.251 50.104C121.71 50.104 122.153 50.0347 122.579 49.896C123.017 49.7467 123.427 49.5067 123.811 49.176L124.259 50.088C123.907 50.408 123.459 50.664 122.915 50.856C122.371 51.048 121.817 51.144 121.251 51.144ZM126.263 51V43.224H127.527V44.952H127.351C127.575 44.3333 127.938 43.8693 128.439 43.56C128.951 43.24 129.538 43.08 130.199 43.08C130.818 43.08 131.33 43.192 131.735 43.416C132.151 43.6293 132.46 43.9653 132.663 44.424C132.866 44.8827 132.967 45.4587 132.967 46.152V51H131.671V46.232C131.671 45.752 131.607 45.3573 131.479 45.048C131.362 44.7387 131.17 44.5093 130.903 44.36C130.647 44.2107 130.311 44.136 129.895 44.136C129.426 44.136 129.015 44.2373 128.663 44.44C128.311 44.6427 128.039 44.9253 127.847 45.288C127.655 45.6507 127.559 46.0773 127.559 46.568V51H126.263ZM138.477 51.144C137.559 51.144 136.871 50.8987 136.413 50.408C135.954 49.9173 135.725 49.2187 135.725 48.312V44.232H134.205V43.224H135.725V40.84H137.021V43.224H139.485V44.232H137.021V48.184C137.021 48.792 137.149 49.256 137.405 49.576C137.661 49.8853 138.077 50.04 138.653 50.04C138.823 50.04 138.994 50.0187 139.165 49.976C139.335 49.9333 139.49 49.8907 139.629 49.848L139.853 50.84C139.714 50.9147 139.511 50.984 139.245 51.048C138.978 51.112 138.722 51.144 138.477 51.144ZM148.884 51.144C148.297 51.144 147.742 51.0907 147.22 50.984C146.708 50.8773 146.233 50.728 145.796 50.536C145.369 50.3333 144.98 50.088 144.628 49.8L145.092 48.744C145.454 49.0107 145.822 49.24 146.196 49.432C146.58 49.6133 146.99 49.752 147.428 49.848C147.876 49.9333 148.361 49.976 148.884 49.976C149.844 49.976 150.553 49.8 151.012 49.448C151.481 49.0853 151.716 48.6107 151.716 48.024C151.716 47.7147 151.641 47.448 151.492 47.224C151.353 47 151.118 46.808 150.788 46.648C150.468 46.488 150.046 46.3547 149.524 46.248L147.86 45.912C146.857 45.6987 146.105 45.352 145.604 44.872C145.113 44.3813 144.868 43.7307 144.868 42.92C144.868 42.248 145.038 41.6613 145.38 41.16C145.732 40.6587 146.217 40.2693 146.836 39.992C147.465 39.7147 148.18 39.576 148.98 39.576C149.492 39.576 149.977 39.6293 150.436 39.736C150.894 39.8427 151.316 40.0027 151.7 40.216C152.094 40.4187 152.441 40.6693 152.74 40.968L152.276 41.992C151.796 41.5547 151.289 41.24 150.756 41.048C150.222 40.8453 149.625 40.744 148.964 40.744C148.398 40.744 147.908 40.8293 147.492 41C147.086 41.1707 146.766 41.4213 146.532 41.752C146.308 42.072 146.196 42.4453 146.196 42.872C146.196 43.384 146.35 43.7893 146.66 44.088C146.98 44.3867 147.497 44.6053 148.212 44.744L149.876 45.096C150.953 45.32 151.748 45.6613 152.26 46.12C152.782 46.568 153.044 47.1813 153.044 47.96C153.044 48.5787 152.873 49.1333 152.532 49.624C152.201 50.104 151.721 50.4773 151.092 50.744C150.473 51.0107 149.737 51.144 148.884 51.144ZM158.136 51.144C157.378 51.144 156.722 50.9787 156.168 50.648C155.613 50.3173 155.181 49.8533 154.872 49.256C154.573 48.648 154.424 47.9333 154.424 47.112C154.424 46.2907 154.573 45.5813 154.872 44.984C155.181 44.376 155.613 43.9067 156.168 43.576C156.722 43.2453 157.378 43.08 158.136 43.08C158.893 43.08 159.549 43.2453 160.104 43.576C160.658 43.9067 161.085 44.376 161.384 44.984C161.693 45.5813 161.848 46.2907 161.848 47.112C161.848 47.9333 161.693 48.648 161.384 49.256C161.085 49.8533 160.658 50.3173 160.104 50.648C159.549 50.9787 158.893 51.144 158.136 51.144ZM158.136 50.104C158.872 50.104 159.453 49.848 159.88 49.336C160.317 48.8133 160.536 48.0667 160.536 47.096C160.536 46.136 160.317 45.4 159.88 44.888C159.453 44.376 158.872 44.12 158.136 44.12C157.41 44.12 156.829 44.376 156.392 44.888C155.954 45.4 155.736 46.136 155.736 47.096C155.736 48.0667 155.954 48.8133 156.392 49.336C156.829 49.848 157.41 50.104 158.136 50.104ZM166.178 51.144C165.389 51.144 164.791 50.9093 164.386 50.44C163.991 49.9707 163.794 49.2987 163.794 48.424V39.72H165.09V48.328C165.09 48.7013 165.138 49.016 165.234 49.272C165.341 49.528 165.495 49.72 165.698 49.848C165.901 49.976 166.151 50.04 166.45 50.04C166.578 50.04 166.701 50.0347 166.818 50.024C166.946 50.0027 167.063 49.976 167.17 49.944L167.138 51.032C166.967 51.064 166.802 51.0907 166.642 51.112C166.493 51.1333 166.338 51.144 166.178 51.144ZM171.281 51.144C170.651 51.144 170.129 51.032 169.713 50.808C169.307 50.5733 168.998 50.2267 168.785 49.768C168.582 49.3093 168.481 48.7387 168.481 48.056V43.224H169.777V48.04C169.777 48.4987 169.835 48.8827 169.953 49.192C170.081 49.4907 170.278 49.7147 170.545 49.864C170.811 50.0027 171.142 50.072 171.536 50.072C171.985 50.072 172.374 49.9707 172.705 49.768C173.035 49.5653 173.297 49.2827 173.489 48.92C173.681 48.5573 173.777 48.1307 173.777 47.64V43.224H175.073V51H173.809V49.208H174.017C173.803 49.8373 173.451 50.3173 172.961 50.648C172.481 50.9787 171.921 51.144 171.281 51.144ZM180.617 51.144C179.7 51.144 179.012 50.8987 178.553 50.408C178.095 49.9173 177.865 49.2187 177.865 48.312V44.232H176.345V43.224H177.865V40.84H179.161V43.224H181.625V44.232H179.161V48.184C179.161 48.792 179.289 49.256 179.545 49.576C179.801 49.8853 180.217 50.04 180.793 50.04C180.964 50.04 181.135 50.0187 181.305 49.976C181.476 49.9333 181.631 49.8907 181.769 49.848L181.993 50.84C181.855 50.9147 181.652 50.984 181.385 51.048C181.119 51.112 180.863 51.144 180.617 51.144ZM182.931 41.288V39.832H184.531V41.288H182.931ZM183.091 51V43.224H184.387V51H183.091ZM190.042 51.144C189.284 51.144 188.628 50.9787 188.074 50.648C187.519 50.3173 187.087 49.8533 186.778 49.256C186.479 48.648 186.33 47.9333 186.33 47.112C186.33 46.2907 186.479 45.5813 186.778 44.984C187.087 44.376 187.519 43.9067 188.074 43.576C188.628 43.2453 189.284 43.08 190.042 43.08C190.799 43.08 191.455 43.2453 192.01 43.576C192.564 43.9067 192.991 44.376 193.29 44.984C193.599 45.5813 193.754 46.2907 193.754 47.112C193.754 47.9333 193.599 48.648 193.29 49.256C192.991 49.8533 192.564 50.3173 192.01 50.648C191.455 50.9787 190.799 51.144 190.042 51.144ZM190.042 50.104C190.778 50.104 191.359 49.848 191.786 49.336C192.223 48.8133 192.442 48.0667 192.442 47.096C192.442 46.136 192.223 45.4 191.786 44.888C191.359 44.376 190.778 44.12 190.042 44.12C189.316 44.12 188.735 44.376 188.298 44.888C187.86 45.4 187.642 46.136 187.642 47.096C187.642 48.0667 187.86 48.8133 188.298 49.336C188.735 49.848 189.316 50.104 190.042 50.104ZM195.7 51V43.224H196.964V44.952H196.788C197.012 44.3333 197.375 43.8693 197.876 43.56C198.388 43.24 198.975 43.08 199.636 43.08C200.255 43.08 200.767 43.192 201.172 43.416C201.588 43.6293 201.898 43.9653 202.1 44.424C202.303 44.8827 202.404 45.4587 202.404 46.152V51H201.108V46.232C201.108 45.752 201.044 45.3573 200.916 45.048C200.799 44.7387 200.607 44.5093 200.34 44.36C200.084 44.2107 199.748 44.136 199.332 44.136C198.863 44.136 198.452 44.2373 198.1 44.44C197.748 44.6427 197.476 44.9253 197.284 45.288C197.092 45.6507 196.996 46.0773 196.996 46.568V51H195.7Z" fill="#707178"/>
</svg>
