<svg width="227" height="71" viewBox="0 0 227 71" fill="none" xmlns="http://www.w3.org/2000/svg">
<rect width="227" height="71" fill="white"/>
<path d="M9.464 30V7.44H19.256C21.7307 7.44 23.64 8.03733 24.984 9.232C26.328 10.4053 27 12.0587 27 14.192C27 15.5787 26.6907 16.7733 26.072 17.776C25.4747 18.7787 24.6 19.5467 23.448 20.08C22.296 20.6133 20.8987 20.88 19.256 20.88L19.544 20.4H20.6C21.4747 20.4 22.232 20.6133 22.872 21.04C23.5333 21.4667 24.1093 22.1387 24.6 23.056L28.376 30H23.864L19.96 22.8C19.704 22.3307 19.416 21.968 19.096 21.712C18.776 21.4347 18.4133 21.2427 18.008 21.136C17.6027 21.0293 17.1333 20.976 16.6 20.976H13.56V30H9.464ZM13.56 17.936H18.552C20.024 17.936 21.1333 17.6373 21.88 17.04C22.648 16.4213 23.032 15.504 23.032 14.288C23.032 13.0933 22.648 12.1973 21.88 11.6C21.1333 10.9813 20.024 10.672 18.552 10.672H13.56V17.936ZM31.4655 30V7.44H34.8895L43.4015 23.152H42.3775L50.8575 7.44H54.2175V30H50.5055V13.52H51.2095L44.0415 26.576H41.6415L34.4095 13.488H35.1775V30H31.4655ZM64.6228 30V10.864H56.8788V7.44H76.4628V10.864H68.7188V30H64.6228ZM83.8858 30.32C82.1151 30.32 80.5898 29.9893 79.3098 29.328C78.0298 28.6667 77.0378 27.728 76.3338 26.512C75.6511 25.296 75.3098 23.856 75.3098 22.192C75.3098 20.5707 75.6404 19.152 76.3018 17.936C76.9844 16.72 77.9124 15.7707 79.0858 15.088C80.2804 14.384 81.6351 14.032 83.1498 14.032C84.6431 14.032 85.9231 14.352 86.9898 14.992C88.0564 15.632 88.8778 16.5387 89.4538 17.712C90.0511 18.8853 90.3498 20.2827 90.3498 21.904V23.088H78.5418V20.784H87.5338L87.0218 21.264C87.0218 19.8133 86.7018 18.704 86.0618 17.936C85.4218 17.1467 84.5044 16.752 83.3098 16.752C82.4138 16.752 81.6458 16.9653 81.0058 17.392C80.3871 17.7973 79.9071 18.384 79.5658 19.152C79.2458 19.8987 79.0858 20.7947 79.0858 21.84V22.064C79.0858 23.2373 79.2671 24.208 79.6298 24.976C79.9924 25.744 80.5364 26.32 81.2618 26.704C81.9871 27.088 82.8831 27.28 83.9498 27.28C84.8244 27.28 85.6991 27.152 86.5738 26.896C87.4484 26.6187 88.2484 26.192 88.9738 25.616L90.0938 28.304C89.3471 28.9227 88.4084 29.4133 87.2778 29.776C86.1471 30.1387 85.0164 30.32 83.8858 30.32ZM93.5175 30V7.44H97.5175V21.008H97.5815L103.886 14.352H108.718L100.845 22.672V21.008L109.166 30H104.27L97.5815 23.024H97.5175V30H93.5175ZM118.834 30.32C117.66 30.32 116.53 30.2133 115.442 30C114.375 29.808 113.383 29.52 112.466 29.136C111.57 28.752 110.77 28.2933 110.066 27.76L111.314 24.528C112.018 25.0187 112.754 25.4453 113.522 25.808C114.311 26.1493 115.143 26.416 116.018 26.608C116.914 26.7787 117.852 26.864 118.834 26.864C120.519 26.864 121.746 26.5867 122.514 26.032C123.282 25.456 123.666 24.72 123.666 23.824C123.666 23.3333 123.548 22.9173 123.314 22.576C123.079 22.2133 122.695 21.904 122.162 21.648C121.628 21.392 120.924 21.1787 120.05 21.008L116.53 20.272C114.503 19.8453 112.988 19.1307 111.986 18.128C111.004 17.104 110.514 15.76 110.514 14.096C110.514 12.688 110.887 11.4613 111.634 10.416C112.38 9.37067 113.415 8.56 114.738 7.984C116.06 7.408 117.586 7.12 119.314 7.12C120.338 7.12 121.319 7.22667 122.258 7.44C123.218 7.632 124.092 7.93067 124.882 8.336C125.692 8.72 126.396 9.18933 126.994 9.744L125.746 12.816C124.85 12.0693 123.868 11.5147 122.802 11.152C121.735 10.768 120.562 10.576 119.282 10.576C118.3 10.576 117.458 10.7147 116.754 10.992C116.05 11.2693 115.506 11.664 115.122 12.176C114.759 12.6667 114.578 13.2533 114.578 13.936C114.578 14.704 114.834 15.3227 115.346 15.792C115.858 16.24 116.732 16.592 117.97 16.848L121.458 17.584C123.57 18.032 125.138 18.736 126.162 19.696C127.207 20.656 127.73 21.936 127.73 23.536C127.73 24.88 127.367 26.064 126.642 27.088C125.916 28.112 124.882 28.912 123.538 29.488C122.215 30.0427 120.647 30.32 118.834 30.32ZM132.019 35.76L135.283 28.56V30.224L128.403 14.352H132.659L137.523 26.48H136.563L141.523 14.352H145.555L136.147 35.76H132.019ZM152.871 30.32C151.996 30.32 151.143 30.2453 150.311 30.096C149.5 29.9467 148.753 29.744 148.071 29.488C147.388 29.2107 146.791 28.8693 146.279 28.464L147.303 25.84C147.836 26.1813 148.412 26.48 149.031 26.736C149.649 26.992 150.289 27.184 150.951 27.312C151.612 27.44 152.263 27.504 152.903 27.504C153.927 27.504 154.684 27.3333 155.175 26.992C155.687 26.6293 155.943 26.16 155.943 25.584C155.943 25.0933 155.772 24.72 155.431 24.464C155.111 24.1867 154.62 23.984 153.959 23.856L150.759 23.248C149.436 22.992 148.423 22.512 147.719 21.808C147.036 21.0827 146.695 20.1547 146.695 19.024C146.695 18 146.972 17.1147 147.527 16.368C148.103 15.6213 148.892 15.0453 149.895 14.64C150.897 14.2347 152.049 14.032 153.351 14.032C154.097 14.032 154.823 14.1067 155.527 14.256C156.231 14.384 156.892 14.5867 157.511 14.864C158.151 15.12 158.705 15.4613 159.175 15.888L158.087 18.512C157.681 18.1707 157.212 17.8827 156.679 17.648C156.145 17.392 155.591 17.2 155.015 17.072C154.46 16.9227 153.916 16.848 153.383 16.848C152.337 16.848 151.559 17.0293 151.047 17.392C150.556 17.7547 150.311 18.2347 150.311 18.832C150.311 19.28 150.46 19.6533 150.759 19.952C151.057 20.2507 151.516 20.4533 152.135 20.56L155.335 21.168C156.721 21.424 157.767 21.8933 158.471 22.576C159.196 23.2587 159.559 24.176 159.559 25.328C159.559 26.3733 159.281 27.2693 158.727 28.016C158.172 28.7627 157.393 29.3387 156.391 29.744C155.388 30.128 154.215 30.32 152.871 30.32ZM169.779 30.32C167.689 30.32 166.131 29.7973 165.107 28.752C164.083 27.7067 163.571 26.1813 163.571 24.176V17.36H160.563V14.352H163.571V9.68H167.571V14.352H172.307V17.36H167.571V23.952C167.571 24.976 167.795 25.744 168.243 26.256C168.691 26.768 169.417 27.024 170.419 27.024C170.718 27.024 171.027 26.992 171.347 26.928C171.667 26.8427 171.998 26.7573 172.339 26.672L172.947 29.616C172.563 29.8293 172.073 30 171.475 30.128C170.899 30.256 170.334 30.32 169.779 30.32ZM182.448 30.32C180.678 30.32 179.152 29.9893 177.872 29.328C176.592 28.6667 175.6 27.728 174.896 26.512C174.214 25.296 173.872 23.856 173.872 22.192C173.872 20.5707 174.203 19.152 174.864 17.936C175.547 16.72 176.475 15.7707 177.648 15.088C178.843 14.384 180.198 14.032 181.712 14.032C183.206 14.032 184.486 14.352 185.552 14.992C186.619 15.632 187.44 16.5387 188.016 17.712C188.614 18.8853 188.912 20.2827 188.912 21.904V23.088H177.104V20.784H186.096L185.584 21.264C185.584 19.8133 185.264 18.704 184.624 17.936C183.984 17.1467 183.067 16.752 181.872 16.752C180.976 16.752 180.208 16.9653 179.568 17.392C178.95 17.7973 178.47 18.384 178.128 19.152C177.808 19.8987 177.648 20.7947 177.648 21.84V22.064C177.648 23.2373 177.83 24.208 178.192 24.976C178.555 25.744 179.099 26.32 179.824 26.704C180.55 27.088 181.446 27.28 182.512 27.28C183.387 27.28 184.262 27.152 185.136 26.896C186.011 26.6187 186.811 26.192 187.536 25.616L188.656 28.304C187.91 28.9227 186.971 29.4133 185.84 29.776C184.71 30.1387 183.579 30.32 182.448 30.32ZM192.144 30V14.352H196.048V17.488H195.696C195.973 16.7627 196.357 16.144 196.848 15.632C197.339 15.12 197.925 14.7253 198.608 14.448C199.291 14.1707 200.048 14.032 200.88 14.032C202.139 14.032 203.173 14.3307 203.984 14.928C204.795 15.5253 205.36 16.4427 205.68 17.68H205.232C205.659 16.5493 206.363 15.664 207.344 15.024C208.325 14.3627 209.456 14.032 210.736 14.032C211.931 14.032 212.912 14.2667 213.68 14.736C214.469 15.2053 215.056 15.92 215.44 16.88C215.824 17.8187 216.016 19.0133 216.016 20.464V30H212.016V20.624C212.016 19.4293 211.813 18.5547 211.408 18C211.024 17.4453 210.363 17.168 209.424 17.168C208.741 17.168 208.144 17.3387 207.632 17.68C207.12 18 206.725 18.4693 206.448 19.088C206.192 19.7067 206.064 20.4533 206.064 21.328V30H202.064V20.624C202.064 19.4293 201.861 18.5547 201.456 18C201.072 17.4453 200.421 17.168 199.504 17.168C198.8 17.168 198.192 17.3387 197.68 17.68C197.189 18 196.805 18.4693 196.528 19.088C196.272 19.7067 196.144 20.4533 196.144 21.328V30H192.144Z" fill="black"/>
<path d="M7.304 58L12.28 46.72H13.4L18.376 58H17.016L15.624 54.784L16.264 55.12H9.384L10.04 54.784L8.664 58H7.304ZM12.824 48.256L10.248 54.32L9.864 54.016H15.784L15.432 54.32L12.856 48.256H12.824ZM22.4025 58.144C21.9972 58.144 21.6025 58.1013 21.2185 58.016C20.8452 57.9413 20.4932 57.8347 20.1625 57.696C19.8425 57.5467 19.5652 57.3707 19.3305 57.168L19.7465 56.256C20.0025 56.4587 20.2798 56.6293 20.5785 56.768C20.8772 56.896 21.1812 56.992 21.4905 57.056C21.7998 57.12 22.1145 57.152 22.4345 57.152C23.0425 57.152 23.5012 57.04 23.8105 56.816C24.1198 56.592 24.2745 56.288 24.2745 55.904C24.2745 55.6053 24.1732 55.3707 23.9705 55.2C23.7678 55.0187 23.4478 54.88 23.0105 54.784L21.5545 54.464C20.8825 54.3253 20.3812 54.0853 20.0505 53.744C19.7305 53.4027 19.5705 52.96 19.5705 52.416C19.5705 51.936 19.6932 51.5253 19.9385 51.184C20.1945 50.832 20.5518 50.56 21.0105 50.368C21.4692 50.176 22.0025 50.08 22.6105 50.08C22.9732 50.08 23.3198 50.1173 23.6505 50.192C23.9812 50.2667 24.2905 50.3787 24.5785 50.528C24.8772 50.6667 25.1332 50.8427 25.3465 51.056L24.9145 51.968C24.7118 51.776 24.4825 51.616 24.2265 51.488C23.9705 51.3493 23.7038 51.248 23.4265 51.184C23.1598 51.1093 22.8878 51.072 22.6105 51.072C22.0132 51.072 21.5598 51.1893 21.2505 51.424C20.9412 51.6587 20.7865 51.968 20.7865 52.352C20.7865 52.6507 20.8825 52.896 21.0745 53.088C21.2665 53.28 21.5652 53.4187 21.9705 53.504L23.4265 53.808C24.1198 53.9573 24.6372 54.1973 24.9785 54.528C25.3305 54.848 25.5065 55.2853 25.5065 55.84C25.5065 56.3093 25.3785 56.72 25.1225 57.072C24.8665 57.4133 24.5038 57.68 24.0345 57.872C23.5758 58.0533 23.0318 58.144 22.4025 58.144ZM30.1056 58.144C29.7003 58.144 29.3056 58.1013 28.9216 58.016C28.5483 57.9413 28.1963 57.8347 27.8656 57.696C27.5456 57.5467 27.2683 57.3707 27.0336 57.168L27.4496 56.256C27.7056 56.4587 27.983 56.6293 28.2816 56.768C28.5803 56.896 28.8843 56.992 29.1936 57.056C29.503 57.12 29.8176 57.152 30.1376 57.152C30.7456 57.152 31.2043 57.04 31.5136 56.816C31.823 56.592 31.9776 56.288 31.9776 55.904C31.9776 55.6053 31.8763 55.3707 31.6736 55.2C31.471 55.0187 31.151 54.88 30.7136 54.784L29.2576 54.464C28.5856 54.3253 28.0843 54.0853 27.7536 53.744C27.4336 53.4027 27.2736 52.96 27.2736 52.416C27.2736 51.936 27.3963 51.5253 27.6416 51.184C27.8976 50.832 28.255 50.56 28.7136 50.368C29.1723 50.176 29.7056 50.08 30.3136 50.08C30.6763 50.08 31.023 50.1173 31.3536 50.192C31.6843 50.2667 31.9936 50.3787 32.2816 50.528C32.5803 50.6667 32.8363 50.8427 33.0496 51.056L32.6176 51.968C32.415 51.776 32.1856 51.616 31.9296 51.488C31.6736 51.3493 31.407 51.248 31.1296 51.184C30.863 51.1093 30.591 51.072 30.3136 51.072C29.7163 51.072 29.263 51.1893 28.9536 51.424C28.6443 51.6587 28.4896 51.968 28.4896 52.352C28.4896 52.6507 28.5856 52.896 28.7776 53.088C28.9696 53.28 29.2683 53.4187 29.6736 53.504L31.1296 53.808C31.823 53.9573 32.3403 54.1973 32.6816 54.528C33.0336 54.848 33.2096 55.2853 33.2096 55.84C33.2096 56.3093 33.0816 56.72 32.8256 57.072C32.5696 57.4133 32.207 57.68 31.7376 57.872C31.279 58.0533 30.735 58.144 30.1056 58.144ZM38.6888 58.144C37.8674 58.144 37.1581 57.984 36.5608 57.664C35.9741 57.3333 35.5154 56.8693 35.1848 56.272C34.8648 55.6747 34.7048 54.96 34.7048 54.128C34.7048 53.3173 34.8648 52.6133 35.1848 52.016C35.5048 51.408 35.9421 50.9333 36.4968 50.592C37.0621 50.2507 37.7128 50.08 38.4488 50.08C39.1528 50.08 39.7554 50.2347 40.2568 50.544C40.7581 50.8533 41.1421 51.2907 41.4088 51.856C41.6861 52.4213 41.8248 53.0987 41.8248 53.888V54.384H35.6968V53.536H40.9608L40.7048 53.744C40.7048 52.8907 40.5128 52.2293 40.1288 51.76C39.7554 51.28 39.2061 51.04 38.4808 51.04C37.9368 51.04 37.4728 51.168 37.0888 51.424C36.7154 51.6693 36.4328 52.016 36.2408 52.464C36.0488 52.9013 35.9528 53.4133 35.9528 54V54.096C35.9528 54.7467 36.0541 55.296 36.2568 55.744C36.4701 56.192 36.7848 56.5333 37.2008 56.768C37.6168 56.992 38.1128 57.104 38.6888 57.104C39.1474 57.104 39.5901 57.0347 40.0168 56.896C40.4541 56.7467 40.8648 56.5067 41.2488 56.176L41.6968 57.088C41.3448 57.408 40.8968 57.664 40.3528 57.856C39.8088 58.048 39.2541 58.144 38.6888 58.144ZM46.8204 58.144C45.903 58.144 45.215 57.8987 44.7564 57.408C44.2977 56.9173 44.0684 56.2187 44.0684 55.312V51.232H42.5484V50.224H44.0684V47.84H45.3644V50.224H47.8284V51.232H45.3644V55.184C45.3644 55.792 45.4924 56.256 45.7484 56.576C46.0044 56.8853 46.4204 57.04 46.9964 57.04C47.167 57.04 47.3377 57.0187 47.5084 56.976C47.679 56.9333 47.8337 56.8907 47.9724 56.848L48.1964 57.84C48.0577 57.9147 47.855 57.984 47.5884 58.048C47.3217 58.112 47.0657 58.144 46.8204 58.144ZM53.6115 58V46.72H54.7155L59.2915 55.312H58.8115L63.3555 46.72H64.4595V58H63.2435V48.48H63.6275L59.4835 56.256H58.6195L54.4275 48.464H54.8115V58H53.6115ZM69.539 58.144C69.0057 58.144 68.5257 58.0427 68.099 57.84C67.683 57.6267 67.3523 57.3387 67.107 56.976C66.8617 56.6133 66.739 56.208 66.739 55.76C66.739 55.184 66.883 54.7307 67.171 54.4C67.4697 54.0693 67.955 53.8347 68.627 53.696C69.3097 53.5573 70.2377 53.488 71.411 53.488H72.131V54.336H71.427C70.7763 54.336 70.2323 54.3573 69.795 54.4C69.3577 54.4427 69.011 54.5173 68.755 54.624C68.499 54.7307 68.3177 54.8693 68.211 55.04C68.1043 55.2107 68.051 55.424 68.051 55.68C68.051 56.1173 68.2003 56.4747 68.499 56.752C68.8083 57.0293 69.2243 57.168 69.747 57.168C70.1737 57.168 70.547 57.0667 70.867 56.864C71.1977 56.6613 71.4537 56.384 71.635 56.032C71.827 55.68 71.923 55.2747 71.923 54.816V52.992C71.923 52.3307 71.7897 51.856 71.523 51.568C71.2563 51.2693 70.819 51.12 70.211 51.12C69.7417 51.12 69.2883 51.1893 68.851 51.328C68.4137 51.456 67.9657 51.6693 67.507 51.968L67.059 51.024C67.3363 50.832 67.651 50.6667 68.003 50.528C68.355 50.3787 68.723 50.2667 69.107 50.192C69.491 50.1173 69.859 50.08 70.211 50.08C70.883 50.08 71.4377 50.192 71.875 50.416C72.3123 50.6293 72.6377 50.96 72.851 51.408C73.0643 51.8453 73.171 52.4107 73.171 53.104V58H71.955V56.192H72.099C72.0137 56.5973 71.8483 56.944 71.603 57.232C71.3683 57.52 71.075 57.744 70.723 57.904C70.371 58.064 69.9763 58.144 69.539 58.144ZM75.5754 58V50.224H76.8394V51.952H76.6634C76.8874 51.3333 77.25 50.8693 77.7514 50.56C78.2634 50.24 78.85 50.08 79.5114 50.08C80.13 50.08 80.642 50.192 81.0474 50.416C81.4634 50.6293 81.7727 50.9653 81.9754 51.424C82.178 51.8827 82.2794 52.4587 82.2794 53.152V58H80.9834V53.232C80.9834 52.752 80.9194 52.3573 80.7914 52.048C80.674 51.7387 80.482 51.5093 80.2154 51.36C79.9594 51.2107 79.6234 51.136 79.2074 51.136C78.738 51.136 78.3274 51.2373 77.9754 51.44C77.6234 51.6427 77.3514 51.9253 77.1594 52.288C76.9674 52.6507 76.8714 53.0773 76.8714 53.568V58H75.5754ZM87.1171 58.144C86.5838 58.144 86.1038 58.0427 85.6771 57.84C85.2611 57.6267 84.9305 57.3387 84.6851 56.976C84.4398 56.6133 84.3171 56.208 84.3171 55.76C84.3171 55.184 84.4611 54.7307 84.7491 54.4C85.0478 54.0693 85.5331 53.8347 86.2051 53.696C86.8878 53.5573 87.8158 53.488 88.9891 53.488H89.7091V54.336H89.0051C88.3545 54.336 87.8105 54.3573 87.3731 54.4C86.9358 54.4427 86.5891 54.5173 86.3331 54.624C86.0771 54.7307 85.8958 54.8693 85.7891 55.04C85.6825 55.2107 85.6291 55.424 85.6291 55.68C85.6291 56.1173 85.7785 56.4747 86.0771 56.752C86.3865 57.0293 86.8025 57.168 87.3251 57.168C87.7518 57.168 88.1251 57.0667 88.4451 56.864C88.7758 56.6613 89.0318 56.384 89.2131 56.032C89.4051 55.68 89.5011 55.2747 89.5011 54.816V52.992C89.5011 52.3307 89.3678 51.856 89.1011 51.568C88.8345 51.2693 88.3971 51.12 87.7891 51.12C87.3198 51.12 86.8665 51.1893 86.4291 51.328C85.9918 51.456 85.5438 51.6693 85.0851 51.968L84.6371 51.024C84.9145 50.832 85.2291 50.6667 85.5811 50.528C85.9331 50.3787 86.3011 50.2667 86.6851 50.192C87.0691 50.1173 87.4371 50.08 87.7891 50.08C88.4611 50.08 89.0158 50.192 89.4531 50.416C89.8905 50.6293 90.2158 50.96 90.4291 51.408C90.6425 51.8453 90.7491 52.4107 90.7491 53.104V58H89.5331V56.192H89.6771C89.5918 56.5973 89.4265 56.944 89.1811 57.232C88.9465 57.52 88.6531 57.744 88.3011 57.904C87.9491 58.064 87.5545 58.144 87.1171 58.144ZM96.5935 61.024C95.9215 61.024 95.2868 60.9333 94.6895 60.752C94.1028 60.5813 93.5802 60.32 93.1215 59.968L93.5535 59.024C93.8735 59.248 94.1882 59.4293 94.4975 59.568C94.8175 59.7173 95.1428 59.824 95.4735 59.888C95.8148 59.952 96.1668 59.984 96.5295 59.984C97.2868 59.984 97.8575 59.7813 98.2415 59.376C98.6362 58.9707 98.8335 58.384 98.8335 57.616V55.808H98.9935C98.8335 56.4267 98.4922 56.9173 97.9695 57.28C97.4575 57.6427 96.8548 57.824 96.1615 57.824C95.4468 57.824 94.8282 57.664 94.3055 57.344C93.7828 57.0133 93.3775 56.5547 93.0895 55.968C92.8122 55.3813 92.6735 54.704 92.6735 53.936C92.6735 53.168 92.8122 52.496 93.0895 51.92C93.3775 51.3333 93.7828 50.88 94.3055 50.56C94.8282 50.24 95.4468 50.08 96.1615 50.08C96.8655 50.08 97.4735 50.2613 97.9855 50.624C98.4975 50.976 98.8282 51.456 98.9775 52.064H98.8335V50.224H100.098V57.44C100.098 58.2293 99.9642 58.8907 99.6975 59.424C99.4415 59.9573 99.0522 60.3573 98.5295 60.624C98.0068 60.8907 97.3615 61.024 96.5935 61.024ZM96.4015 56.768C97.1482 56.768 97.7402 56.512 98.1775 56C98.6148 55.488 98.8335 54.8 98.8335 53.936C98.8335 53.072 98.6148 52.3893 98.1775 51.888C97.7402 51.376 97.1482 51.12 96.4015 51.12C95.6655 51.12 95.0788 51.376 94.6415 51.888C94.2042 52.3893 93.9855 53.072 93.9855 53.936C93.9855 54.8 94.2042 55.488 94.6415 56C95.0788 56.512 95.6655 56.768 96.4015 56.768ZM106.033 58.144C105.211 58.144 104.502 57.984 103.905 57.664C103.318 57.3333 102.859 56.8693 102.529 56.272C102.209 55.6747 102.049 54.96 102.049 54.128C102.049 53.3173 102.209 52.6133 102.529 52.016C102.849 51.408 103.286 50.9333 103.841 50.592C104.406 50.2507 105.057 50.08 105.793 50.08C106.497 50.08 107.099 50.2347 107.601 50.544C108.102 50.8533 108.486 51.2907 108.753 51.856C109.03 52.4213 109.169 53.0987 109.169 53.888V54.384H103.041V53.536H108.305L108.049 53.744C108.049 52.8907 107.857 52.2293 107.473 51.76C107.099 51.28 106.55 51.04 105.825 51.04C105.281 51.04 104.817 51.168 104.433 51.424C104.059 51.6693 103.777 52.016 103.585 52.464C103.393 52.9013 103.297 53.4133 103.297 54V54.096C103.297 54.7467 103.398 55.296 103.601 55.744C103.814 56.192 104.129 56.5333 104.545 56.768C104.961 56.992 105.457 57.104 106.033 57.104C106.491 57.104 106.934 57.0347 107.361 56.896C107.798 56.7467 108.209 56.5067 108.593 56.176L109.041 57.088C108.689 57.408 108.241 57.664 107.697 57.856C107.153 58.048 106.598 58.144 106.033 58.144ZM111.076 58V50.224H112.34V51.952H112.164C112.292 51.5573 112.479 51.2213 112.724 50.944C112.98 50.656 113.279 50.4427 113.62 50.304C113.972 50.1547 114.356 50.08 114.772 50.08C115.433 50.08 115.967 50.24 116.372 50.56C116.788 50.8693 117.065 51.3547 117.204 52.016H116.964C117.156 51.4187 117.497 50.9493 117.988 50.608C118.489 50.256 119.071 50.08 119.732 50.08C120.319 50.08 120.799 50.192 121.172 50.416C121.556 50.64 121.844 50.9813 122.036 51.44C122.228 51.888 122.324 52.4587 122.324 53.152V58H121.028V53.216C121.028 52.5013 120.905 51.9787 120.66 51.648C120.415 51.3067 119.999 51.136 119.412 51.136C118.996 51.136 118.628 51.2373 118.308 51.44C117.999 51.6427 117.759 51.9307 117.588 52.304C117.428 52.6667 117.348 53.0987 117.348 53.6V58H116.052V53.216C116.052 52.5013 115.924 51.9787 115.668 51.648C115.423 51.3067 115.012 51.136 114.436 51.136C114.009 51.136 113.641 51.2373 113.332 51.44C113.023 51.6427 112.783 51.9307 112.612 52.304C112.452 52.6667 112.372 53.0987 112.372 53.6V58H111.076ZM128.251 58.144C127.43 58.144 126.721 57.984 126.123 57.664C125.537 57.3333 125.078 56.8693 124.747 56.272C124.427 55.6747 124.267 54.96 124.267 54.128C124.267 53.3173 124.427 52.6133 124.747 52.016C125.067 51.408 125.505 50.9333 126.059 50.592C126.625 50.2507 127.275 50.08 128.011 50.08C128.715 50.08 129.318 50.2347 129.819 50.544C130.321 50.8533 130.705 51.2907 130.971 51.856C131.249 52.4213 131.387 53.0987 131.387 53.888V54.384H125.259V53.536H130.523L130.267 53.744C130.267 52.8907 130.075 52.2293 129.691 51.76C129.318 51.28 128.769 51.04 128.043 51.04C127.499 51.04 127.035 51.168 126.651 51.424C126.278 51.6693 125.995 52.016 125.803 52.464C125.611 52.9013 125.515 53.4133 125.515 54V54.096C125.515 54.7467 125.617 55.296 125.819 55.744C126.033 56.192 126.347 56.5333 126.763 56.768C127.179 56.992 127.675 57.104 128.251 57.104C128.71 57.104 129.153 57.0347 129.579 56.896C130.017 56.7467 130.427 56.5067 130.811 56.176L131.259 57.088C130.907 57.408 130.459 57.664 129.915 57.856C129.371 58.048 128.817 58.144 128.251 58.144ZM133.263 58V50.224H134.527V51.952H134.351C134.575 51.3333 134.938 50.8693 135.439 50.56C135.951 50.24 136.538 50.08 137.199 50.08C137.818 50.08 138.33 50.192 138.735 50.416C139.151 50.6293 139.46 50.9653 139.663 51.424C139.866 51.8827 139.967 52.4587 139.967 53.152V58H138.671V53.232C138.671 52.752 138.607 52.3573 138.479 52.048C138.362 51.7387 138.17 51.5093 137.903 51.36C137.647 51.2107 137.311 51.136 136.895 51.136C136.426 51.136 136.015 51.2373 135.663 51.44C135.311 51.6427 135.039 51.9253 134.847 52.288C134.655 52.6507 134.559 53.0773 134.559 53.568V58H133.263ZM145.477 58.144C144.559 58.144 143.871 57.8987 143.413 57.408C142.954 56.9173 142.725 56.2187 142.725 55.312V51.232H141.205V50.224H142.725V47.84H144.021V50.224H146.485V51.232H144.021V55.184C144.021 55.792 144.149 56.256 144.405 56.576C144.661 56.8853 145.077 57.04 145.653 57.04C145.823 57.04 145.994 57.0187 146.165 56.976C146.335 56.9333 146.49 56.8907 146.629 56.848L146.853 57.84C146.714 57.9147 146.511 57.984 146.245 58.048C145.978 58.112 145.722 58.144 145.477 58.144ZM155.884 58.144C155.297 58.144 154.742 58.0907 154.22 57.984C153.708 57.8773 153.233 57.728 152.796 57.536C152.369 57.3333 151.98 57.088 151.628 56.8L152.092 55.744C152.454 56.0107 152.822 56.24 153.196 56.432C153.58 56.6133 153.99 56.752 154.428 56.848C154.876 56.9333 155.361 56.976 155.884 56.976C156.844 56.976 157.553 56.8 158.012 56.448C158.481 56.0853 158.716 55.6107 158.716 55.024C158.716 54.7147 158.641 54.448 158.492 54.224C158.353 54 158.118 53.808 157.788 53.648C157.468 53.488 157.046 53.3547 156.524 53.248L154.86 52.912C153.857 52.6987 153.105 52.352 152.604 51.872C152.113 51.3813 151.868 50.7307 151.868 49.92C151.868 49.248 152.038 48.6613 152.38 48.16C152.732 47.6587 153.217 47.2693 153.836 46.992C154.465 46.7147 155.18 46.576 155.98 46.576C156.492 46.576 156.977 46.6293 157.436 46.736C157.894 46.8427 158.316 47.0027 158.7 47.216C159.094 47.4187 159.441 47.6693 159.74 47.968L159.276 48.992C158.796 48.5547 158.289 48.24 157.756 48.048C157.222 47.8453 156.625 47.744 155.964 47.744C155.398 47.744 154.908 47.8293 154.492 48C154.086 48.1707 153.766 48.4213 153.532 48.752C153.308 49.072 153.196 49.4453 153.196 49.872C153.196 50.384 153.35 50.7893 153.66 51.088C153.98 51.3867 154.497 51.6053 155.212 51.744L156.876 52.096C157.953 52.32 158.748 52.6613 159.26 53.12C159.782 53.568 160.044 54.1813 160.044 54.96C160.044 55.5787 159.873 56.1333 159.532 56.624C159.201 57.104 158.721 57.4773 158.092 57.744C157.473 58.0107 156.737 58.144 155.884 58.144ZM165.136 58.144C164.378 58.144 163.722 57.9787 163.168 57.648C162.613 57.3173 162.181 56.8533 161.872 56.256C161.573 55.648 161.424 54.9333 161.424 54.112C161.424 53.2907 161.573 52.5813 161.872 51.984C162.181 51.376 162.613 50.9067 163.168 50.576C163.722 50.2453 164.378 50.08 165.136 50.08C165.893 50.08 166.549 50.2453 167.104 50.576C167.658 50.9067 168.085 51.376 168.384 51.984C168.693 52.5813 168.848 53.2907 168.848 54.112C168.848 54.9333 168.693 55.648 168.384 56.256C168.085 56.8533 167.658 57.3173 167.104 57.648C166.549 57.9787 165.893 58.144 165.136 58.144ZM165.136 57.104C165.872 57.104 166.453 56.848 166.88 56.336C167.317 55.8133 167.536 55.0667 167.536 54.096C167.536 53.136 167.317 52.4 166.88 51.888C166.453 51.376 165.872 51.12 165.136 51.12C164.41 51.12 163.829 51.376 163.392 51.888C162.954 52.4 162.736 53.136 162.736 54.096C162.736 55.0667 162.954 55.8133 163.392 56.336C163.829 56.848 164.41 57.104 165.136 57.104ZM173.178 58.144C172.389 58.144 171.791 57.9093 171.386 57.44C170.991 56.9707 170.794 56.2987 170.794 55.424V46.72H172.09V55.328C172.09 55.7013 172.138 56.016 172.234 56.272C172.341 56.528 172.495 56.72 172.698 56.848C172.901 56.976 173.151 57.04 173.45 57.04C173.578 57.04 173.701 57.0347 173.818 57.024C173.946 57.0027 174.063 56.976 174.17 56.944L174.138 58.032C173.967 58.064 173.802 58.0907 173.642 58.112C173.493 58.1333 173.338 58.144 173.178 58.144ZM178.281 58.144C177.651 58.144 177.129 58.032 176.713 57.808C176.307 57.5733 175.998 57.2267 175.785 56.768C175.582 56.3093 175.481 55.7387 175.481 55.056V50.224H176.777V55.04C176.777 55.4987 176.835 55.8827 176.953 56.192C177.081 56.4907 177.278 56.7147 177.545 56.864C177.811 57.0027 178.142 57.072 178.536 57.072C178.985 57.072 179.374 56.9707 179.705 56.768C180.035 56.5653 180.297 56.2827 180.489 55.92C180.681 55.5573 180.777 55.1307 180.777 54.64V50.224H182.073V58H180.809V56.208H181.017C180.803 56.8373 180.451 57.3173 179.961 57.648C179.481 57.9787 178.921 58.144 178.281 58.144ZM187.617 58.144C186.7 58.144 186.012 57.8987 185.553 57.408C185.095 56.9173 184.865 56.2187 184.865 55.312V51.232H183.345V50.224H184.865V47.84H186.161V50.224H188.625V51.232H186.161V55.184C186.161 55.792 186.289 56.256 186.545 56.576C186.801 56.8853 187.217 57.04 187.793 57.04C187.964 57.04 188.135 57.0187 188.305 56.976C188.476 56.9333 188.631 56.8907 188.769 56.848L188.993 57.84C188.855 57.9147 188.652 57.984 188.385 58.048C188.119 58.112 187.863 58.144 187.617 58.144ZM189.931 48.288V46.832H191.531V48.288H189.931ZM190.091 58V50.224H191.387V58H190.091ZM197.042 58.144C196.284 58.144 195.628 57.9787 195.074 57.648C194.519 57.3173 194.087 56.8533 193.778 56.256C193.479 55.648 193.33 54.9333 193.33 54.112C193.33 53.2907 193.479 52.5813 193.778 51.984C194.087 51.376 194.519 50.9067 195.074 50.576C195.628 50.2453 196.284 50.08 197.042 50.08C197.799 50.08 198.455 50.2453 199.01 50.576C199.564 50.9067 199.991 51.376 200.29 51.984C200.599 52.5813 200.754 53.2907 200.754 54.112C200.754 54.9333 200.599 55.648 200.29 56.256C199.991 56.8533 199.564 57.3173 199.01 57.648C198.455 57.9787 197.799 58.144 197.042 58.144ZM197.042 57.104C197.778 57.104 198.359 56.848 198.786 56.336C199.223 55.8133 199.442 55.0667 199.442 54.096C199.442 53.136 199.223 52.4 198.786 51.888C198.359 51.376 197.778 51.12 197.042 51.12C196.316 51.12 195.735 51.376 195.298 51.888C194.86 52.4 194.642 53.136 194.642 54.096C194.642 55.0667 194.86 55.8133 195.298 56.336C195.735 56.848 196.316 57.104 197.042 57.104ZM202.7 58V50.224H203.964V51.952H203.788C204.012 51.3333 204.375 50.8693 204.876 50.56C205.388 50.24 205.975 50.08 206.636 50.08C207.255 50.08 207.767 50.192 208.172 50.416C208.588 50.6293 208.898 50.9653 209.1 51.424C209.303 51.8827 209.404 52.4587 209.404 53.152V58H208.108V53.232C208.108 52.752 208.044 52.3573 207.916 52.048C207.799 51.7387 207.607 51.5093 207.34 51.36C207.084 51.2107 206.748 51.136 206.332 51.136C205.863 51.136 205.452 51.2373 205.1 51.44C204.748 51.6427 204.476 51.9253 204.284 52.288C204.092 52.6507 203.996 53.0773 203.996 53.568V58H202.7Z" fill="#707178"/>
</svg>
