<svg width="227" height="71" viewBox="0 0 227 71" fill="none" xmlns="http://www.w3.org/2000/svg">
<rect width="227" height="71" fill="white"/>
<path d="M79.464 48V25.44H83.56V48H79.464ZM88.08 48V32.352H91.984V35.488H91.632C92.1013 34.3573 92.8267 33.504 93.808 32.928C94.8107 32.3307 95.9413 32.032 97.2 32.032C98.4587 32.032 99.4933 32.2667 100.304 32.736C101.115 33.2053 101.723 33.92 102.128 34.88C102.533 35.8187 102.736 37.0133 102.736 38.464V48H98.736V38.656C98.736 37.8453 98.6293 37.184 98.416 36.672C98.224 36.16 97.9147 35.7867 97.488 35.552C97.0827 35.296 96.56 35.168 95.92 35.168C95.152 35.168 94.48 35.3387 93.904 35.68C93.328 36 92.88 36.4693 92.56 37.088C92.24 37.6853 92.08 38.3893 92.08 39.2V48H88.08ZM107.855 48V35.36H104.847V32.352H109.007L107.855 33.408V32.32C107.855 30.1013 108.431 28.4267 109.583 27.296C110.756 26.1653 112.569 25.5253 115.023 25.376L116.591 25.28L116.847 28.224L115.375 28.32C114.521 28.3627 113.839 28.5227 113.327 28.8C112.815 29.056 112.441 29.4187 112.207 29.888C111.972 30.3573 111.855 30.9547 111.855 31.68V32.864L111.343 32.352H116.111V35.36H111.855V48H107.855ZM125.185 48.32C123.563 48.32 122.155 47.9893 120.961 47.328C119.766 46.6667 118.838 45.728 118.177 44.512C117.515 43.2747 117.185 41.824 117.185 40.16C117.185 38.496 117.515 37.056 118.177 35.84C118.838 34.624 119.766 33.6853 120.961 33.024C122.155 32.3627 123.563 32.032 125.185 32.032C126.806 32.032 128.214 32.3627 129.409 33.024C130.603 33.6853 131.531 34.624 132.193 35.84C132.854 37.056 133.185 38.496 133.185 40.16C133.185 41.824 132.854 43.2747 132.193 44.512C131.531 45.728 130.603 46.6667 129.409 47.328C128.214 47.9893 126.806 48.32 125.185 48.32ZM125.185 45.28C126.379 45.28 127.339 44.8533 128.065 44C128.79 43.1253 129.153 41.8453 129.153 40.16C129.153 38.4533 128.79 37.184 128.065 36.352C127.339 35.4987 126.379 35.072 125.185 35.072C123.99 35.072 123.03 35.4987 122.305 36.352C121.579 37.184 121.217 38.4533 121.217 40.16C121.217 41.8453 121.579 43.1253 122.305 44C123.03 44.8533 123.99 45.28 125.185 45.28ZM143.498 48.32C141.407 48.32 139.85 47.7973 138.826 46.752C137.802 45.7067 137.29 44.1813 137.29 42.176V35.36H134.282V32.352H137.29V27.68H141.29V32.352H146.026V35.36H141.29V41.952C141.29 42.976 141.514 43.744 141.962 44.256C142.41 44.768 143.135 45.024 144.138 45.024C144.437 45.024 144.746 44.992 145.066 44.928C145.386 44.8427 145.717 44.7573 146.058 44.672L146.666 47.616C146.282 47.8293 145.791 48 145.194 48.128C144.618 48.256 144.053 48.32 143.498 48.32ZM156.167 48.32C154.396 48.32 152.871 47.9893 151.591 47.328C150.311 46.6667 149.319 45.728 148.615 44.512C147.932 43.296 147.591 41.856 147.591 40.192C147.591 38.5707 147.922 37.152 148.583 35.936C149.266 34.72 150.194 33.7707 151.367 33.088C152.562 32.384 153.916 32.032 155.431 32.032C156.924 32.032 158.204 32.352 159.271 32.992C160.338 33.632 161.159 34.5387 161.735 35.712C162.332 36.8853 162.631 38.2827 162.631 39.904V41.088H150.823V38.784H159.815L159.303 39.264C159.303 37.8133 158.983 36.704 158.343 35.936C157.703 35.1467 156.786 34.752 155.591 34.752C154.695 34.752 153.927 34.9653 153.287 35.392C152.668 35.7973 152.188 36.384 151.847 37.152C151.527 37.8987 151.367 38.7947 151.367 39.84V40.064C151.367 41.2373 151.548 42.208 151.911 42.976C152.274 43.744 152.818 44.32 153.543 44.704C154.268 45.088 155.164 45.28 156.231 45.28C157.106 45.28 157.98 45.152 158.855 44.896C159.73 44.6187 160.53 44.192 161.255 43.616L162.375 46.304C161.628 46.9227 160.69 47.4133 159.559 47.776C158.428 48.1387 157.298 48.32 156.167 48.32ZM173.031 48.32C171.388 48.32 169.959 47.9893 168.743 47.328C167.527 46.6453 166.588 45.6853 165.927 44.448C165.265 43.2107 164.935 41.76 164.935 40.096C164.935 38.432 165.265 37.0027 165.927 35.808C166.588 34.592 167.527 33.664 168.743 33.024C169.959 32.3627 171.388 32.032 173.031 32.032C174.033 32.032 175.025 32.192 176.007 32.512C176.988 32.832 177.799 33.28 178.439 33.856L177.255 36.64C176.7 36.1493 176.071 35.776 175.367 35.52C174.684 35.264 174.023 35.136 173.383 35.136C171.996 35.136 170.919 35.5733 170.151 36.448C169.404 37.3013 169.031 38.528 169.031 40.128C169.031 41.7067 169.404 42.9547 170.151 43.872C170.919 44.768 171.996 45.216 173.383 45.216C174.001 45.216 174.663 45.088 175.367 44.832C176.071 44.576 176.7 44.192 177.255 43.68L178.439 46.496C177.799 47.0507 176.977 47.4987 175.975 47.84C174.993 48.16 174.012 48.32 173.031 48.32ZM180.893 48V25.44H184.893V35.488H184.445C184.914 34.3573 185.639 33.504 186.621 32.928C187.623 32.3307 188.754 32.032 190.013 32.032C191.271 32.032 192.306 32.2667 193.117 32.736C193.927 33.2053 194.535 33.92 194.941 34.88C195.346 35.8187 195.549 37.0133 195.549 38.464V48H191.549V38.656C191.549 37.8453 191.442 37.184 191.229 36.672C191.037 36.16 190.727 35.7867 190.301 35.552C189.895 35.296 189.373 35.168 188.733 35.168C187.965 35.168 187.293 35.3387 186.717 35.68C186.141 36 185.693 36.4693 185.373 37.088C185.053 37.6853 184.893 38.3893 184.893 39.2V48H180.893Z" fill="black"/>
<path d="M52.012 22.728C52.108 23.16 52.108 23.604 52.012 24.06H49.96C49.432 25.14 48.976 26.184 48.592 27.192C48.208 28.2 47.836 29.256 47.476 30.36L43.768 41.484C43.456 42.42 43.096 43.56 42.688 44.904C42.304 46.224 42.028 47.496 41.86 48.72C41.62 48.744 41.284 48.756 40.852 48.756C40.444 48.78 40.024 48.78 39.592 48.756C39.184 48.756 38.86 48.744 38.62 48.72L42.076 41.484L45.784 30.36C46.168 29.232 46.456 28.176 46.648 27.192C46.864 26.184 46.996 25.14 47.044 24.06H43.768C43.744 23.916 43.732 23.7 43.732 23.412C43.732 23.1 43.744 22.872 43.768 22.728C44.752 22.752 45.688 22.776 46.576 22.8C47.488 22.8 48.148 22.8 48.556 22.8C48.988 22.8 49.456 22.8 49.96 22.8C50.488 22.776 51.172 22.752 52.012 22.728ZM29.296 24.06H27.784C27.688 23.604 27.688 23.16 27.784 22.728C28.36 22.752 28.852 22.776 29.26 22.8C29.692 22.8 30.172 22.8 30.7 22.8C31.228 22.8 31.912 22.8 32.752 22.8C33.952 22.8 34.984 22.8 35.848 22.8C36.736 22.776 37.588 22.752 38.404 22.728C38.5 23.16 38.5 23.604 38.404 24.06H36.028C36.22 25.14 36.484 26.184 36.82 27.192C37.156 28.176 37.528 29.232 37.936 30.36L42.076 41.484L38.62 48.72C38.476 47.904 38.26 47.076 37.972 46.236C37.708 45.372 37.408 44.484 37.072 43.572C36.736 42.66 36.388 41.736 36.028 40.8L32.068 30.36C31.612 29.088 31.18 27.972 30.772 27.012C30.388 26.052 29.896 25.068 29.296 24.06ZM61.3149 48.504C59.8509 48.504 58.4349 48.372 57.0669 48.108C55.6989 47.844 54.4749 47.46 53.3949 46.956V39.9C53.7789 39.828 54.1629 39.828 54.5469 39.9C54.7389 41.34 55.1589 42.6 55.8069 43.68C56.4789 44.736 57.3189 45.564 58.3269 46.164C59.3589 46.764 60.4869 47.064 61.7109 47.064C63.4389 47.064 64.7589 46.68 65.6709 45.912C66.5829 45.12 67.0389 44.124 67.0389 42.924C67.0389 41.988 66.7989 41.22 66.3189 40.62C65.8389 40.02 65.2029 39.516 64.4109 39.108C63.6429 38.676 62.7909 38.28 61.8549 37.92C60.9189 37.56 59.9709 37.164 59.0109 36.732C58.0749 36.3 57.2109 35.772 56.4189 35.148C55.6509 34.524 55.0269 33.744 54.5469 32.808C54.0669 31.848 53.8269 30.672 53.8269 29.28C53.8269 27.768 54.1989 26.496 54.9429 25.464C55.7109 24.408 56.7669 23.616 58.1109 23.088C59.4789 22.56 61.0509 22.296 62.8269 22.296C64.2909 22.296 65.5749 22.428 66.6789 22.692C67.8069 22.956 68.8149 23.328 69.7029 23.808V30.36C69.3189 30.432 68.9349 30.432 68.5509 30.36C68.2869 28.296 67.6629 26.676 66.6789 25.5C65.7189 24.324 64.3629 23.736 62.6109 23.736C61.1709 23.736 60.0309 24.048 59.1909 24.672C58.3749 25.272 57.9669 26.208 57.9669 27.48C57.9669 28.272 58.2069 28.932 58.6869 29.46C59.1909 29.988 59.8389 30.444 60.6309 30.828C61.4469 31.212 62.3349 31.584 63.2949 31.944C64.2789 32.28 65.2509 32.664 66.2109 33.096C67.1709 33.528 68.0469 34.068 68.8389 34.716C69.6549 35.34 70.3029 36.12 70.7829 37.056C71.2869 37.992 71.5389 39.156 71.5389 40.548C71.5389 42.132 71.1189 43.524 70.2789 44.724C69.4629 45.9 68.2869 46.824 66.7509 47.496C65.2389 48.168 63.4269 48.504 61.3149 48.504Z" fill="black"/>
</svg>
