<svg width="97" height="97" xmlns="http://www.w3.org/2000/svg" xmlns:xlink="http://www.w3.org/1999/xlink" overflow="hidden"><defs><filter id="fx0" x="-10%" y="-10%" width="120%" height="120%" filterUnits="userSpaceOnUse" primitiveUnits="userSpaceOnUse"><feComponentTransfer color-interpolation-filters="sRGB"><feFuncR type="discrete" tableValues="0 0"/><feFuncG type="discrete" tableValues="0 0"/><feFuncB type="discrete" tableValues="0 0"/><feFuncA type="linear" slope="0.4" intercept="0"/></feComponentTransfer><feGaussianBlur stdDeviation="1.77778 1.77778"/></filter><clipPath id="clip1"><rect x="579" y="237" width="97" height="97"/></clipPath><clipPath id="clip2"><rect x="3" y="7" width="92" height="84"/></clipPath><clipPath id="clip3"><rect x="0" y="0" width="99" height="98"/></clipPath><clipPath id="clip4"><rect x="6" y="6" width="86" height="85"/></clipPath><clipPath id="clip5"><rect x="6" y="6" width="86" height="85"/></clipPath><clipPath id="clip6"><rect x="6" y="6" width="86" height="85"/></clipPath><clipPath id="clip7"><rect x="582" y="241" width="85" height="84"/></clipPath><clipPath id="clip8"><rect x="582" y="241" width="85" height="84"/></clipPath><clipPath id="clip9"><rect x="582" y="241" width="85" height="84"/></clipPath></defs><g clip-path="url(#clip1)" transform="translate(-579 -237)"><g clip-path="url(#clip2)" filter="url(#fx0)" transform="translate(578 237)"><g clip-path="url(#clip3)"><g clip-path="url(#clip4)"><g clip-path="url(#clip5)"><g clip-path="url(#clip6)"><path d="M70 14.175C70 17.5577 67.2577 20.3 63.875 20.3 60.4923 20.3 57.75 17.5577 57.75 14.175 57.75 10.7923 60.4923 8.05 63.875 8.05 67.2577 8.05 70 10.7923 70 14.175Z" transform="matrix(1.0119 0 0 1 6.82843 6.82843)"/><path d="M26.25 14.175C26.25 17.5577 23.5077 20.3 20.125 20.3 16.7423 20.3 14 17.5577 14 14.175 14 10.7923 16.7423 8.05 20.125 8.05 23.5077 8.05 26.25 10.7923 26.25 14.175Z" transform="matrix(1.0119 0 0 1 6.82843 6.82843)"/><path d="M48.125 14.175C48.125 17.5577 45.3827 20.3 42 20.3 38.6173 20.3 35.875 17.5577 35.875 14.175 35.875 10.7923 38.6173 8.05 42 8.05 45.3827 8.05 48.125 10.7923 48.125 14.175Z" transform="matrix(1.0119 0 0 1 6.82843 6.82843)"/><path d="M57.575 42.7 53.6375 28.175C53.4625 27.65 53.2 27.125 52.85 26.775 51.1875 25.025 49.0875 23.7125 46.8125 22.925 45.325 22.4 43.75 22.1375 42.0875 22.1375 40.425 22.1375 38.85 22.4 37.3625 22.925 35 23.7125 32.9875 25.025 31.325 26.775 30.975 27.2125 30.7125 27.65 30.5375 28.175L26.6 42.7C26.25 44.1 26.95 45.675 28.4375 46.025 28.7 46.1125 28.875 46.1125 29.1375 46.1125 30.275 46.1125 31.325 45.325 31.675 44.1875L35.175 31.4125 35.175 75.95 40.425 75.95 40.425 50.925 43.925 50.925 43.925 75.8625 49.175 75.8625 49.175 31.4125 52.675 44.1875C53.025 45.325 54.075 46.1125 55.2125 46.1125 55.475 46.1125 55.65 46.1125 55.9125 46.025 57.1375 45.675 57.925 44.1 57.575 42.7Z" transform="matrix(1.0119 0 0 1 6.82843 6.82843)"/><path d="M24.7625 42.2625 28.7 27.7375C28.875 26.95 29.3125 26.25 29.75 25.6375 28.35 24.4125 26.6 23.45 24.7625 22.8375 23.275 22.3125 21.7 22.05 20.0375 22.05 18.375 22.05 16.8 22.3125 15.3125 22.8375 12.95 23.625 10.9375 24.9375 9.275 26.6875 8.925 27.125 8.6625 27.5625 8.4875 28.0875L4.55 42.7C4.2 44.1 4.9 45.675 6.3875 46.025 6.65 46.1125 6.825 46.1125 7.0875 46.1125 8.225 46.1125 9.275 45.325 9.625 44.1875L13.125 31.4125 13.125 75.95 18.375 75.95 18.375 50.925 21.875 50.925 21.875 75.8625 27.125 75.8625 27.125 47.5125C25.2875 46.6375 24.2375 44.45 24.7625 42.2625Z" transform="matrix(1.0119 0 0 1 6.82843 6.82843)"/><path d="M79.45 42.7 75.425 28.175C75.25 27.65 74.9875 27.125 74.6375 26.775 72.975 25.025 70.875 23.7125 68.6 22.925 67.1125 22.4 65.5375 22.1375 63.875 22.1375 62.2125 22.1375 60.6375 22.4 59.15 22.925 57.3125 23.5375 55.65 24.5 54.1625 25.725 54.6875 26.3375 55.0375 27.0375 55.2125 27.7375L59.15 42.2625C59.7625 44.45 58.625 46.6375 56.7875 47.5125L56.7875 75.95 62.0375 75.95 62.0375 50.925 65.5375 50.925 65.5375 75.8625 70.7875 75.8625 70.7875 31.4125 74.2875 44.1875C74.6375 45.325 75.6875 46.1125 76.825 46.1125 77.0875 46.1125 77.2625 46.1125 77.525 46.025 79.0125 45.675 79.8 44.1 79.45 42.7Z" transform="matrix(1.0119 0 0 1 6.82843 6.82843)"/></g></g></g></g></g><g clip-path="url(#clip7)"><g clip-path="url(#clip8)"><g clip-path="url(#clip9)"><path d="M70 14.175C70 17.5577 67.2577 20.3 63.875 20.3 60.4923 20.3 57.75 17.5577 57.75 14.175 57.75 10.7923 60.4923 8.05 63.875 8.05 67.2577 8.05 70 10.7923 70 14.175Z" transform="matrix(1.0119 0 0 1 582 241)"/><path d="M26.25 14.175C26.25 17.5577 23.5077 20.3 20.125 20.3 16.7423 20.3 14 17.5577 14 14.175 14 10.7923 16.7423 8.05 20.125 8.05 23.5077 8.05 26.25 10.7923 26.25 14.175Z" transform="matrix(1.0119 0 0 1 582 241)"/><path d="M48.125 14.175C48.125 17.5577 45.3827 20.3 42 20.3 38.6173 20.3 35.875 17.5577 35.875 14.175 35.875 10.7923 38.6173 8.05 42 8.05 45.3827 8.05 48.125 10.7923 48.125 14.175Z" transform="matrix(1.0119 0 0 1 582 241)"/><path d="M57.575 42.7 53.6375 28.175C53.4625 27.65 53.2 27.125 52.85 26.775 51.1875 25.025 49.0875 23.7125 46.8125 22.925 45.325 22.4 43.75 22.1375 42.0875 22.1375 40.425 22.1375 38.85 22.4 37.3625 22.925 35 23.7125 32.9875 25.025 31.325 26.775 30.975 27.2125 30.7125 27.65 30.5375 28.175L26.6 42.7C26.25 44.1 26.95 45.675 28.4375 46.025 28.7 46.1125 28.875 46.1125 29.1375 46.1125 30.275 46.1125 31.325 45.325 31.675 44.1875L35.175 31.4125 35.175 75.95 40.425 75.95 40.425 50.925 43.925 50.925 43.925 75.8625 49.175 75.8625 49.175 31.4125 52.675 44.1875C53.025 45.325 54.075 46.1125 55.2125 46.1125 55.475 46.1125 55.65 46.1125 55.9125 46.025 57.1375 45.675 57.925 44.1 57.575 42.7Z" transform="matrix(1.0119 0 0 1 582 241)"/><path d="M24.7625 42.2625 28.7 27.7375C28.875 26.95 29.3125 26.25 29.75 25.6375 28.35 24.4125 26.6 23.45 24.7625 22.8375 23.275 22.3125 21.7 22.05 20.0375 22.05 18.375 22.05 16.8 22.3125 15.3125 22.8375 12.95 23.625 10.9375 24.9375 9.275 26.6875 8.925 27.125 8.6625 27.5625 8.4875 28.0875L4.55 42.7C4.2 44.1 4.9 45.675 6.3875 46.025 6.65 46.1125 6.825 46.1125 7.0875 46.1125 8.225 46.1125 9.275 45.325 9.625 44.1875L13.125 31.4125 13.125 75.95 18.375 75.95 18.375 50.925 21.875 50.925 21.875 75.8625 27.125 75.8625 27.125 47.5125C25.2875 46.6375 24.2375 44.45 24.7625 42.2625Z" transform="matrix(1.0119 0 0 1 582 241)"/><path d="M79.45 42.7 75.425 28.175C75.25 27.65 74.9875 27.125 74.6375 26.775 72.975 25.025 70.875 23.7125 68.6 22.925 67.1125 22.4 65.5375 22.1375 63.875 22.1375 62.2125 22.1375 60.6375 22.4 59.15 22.925 57.3125 23.5375 55.65 24.5 54.1625 25.725 54.6875 26.3375 55.0375 27.0375 55.2125 27.7375L59.15 42.2625C59.7625 44.45 58.625 46.6375 56.7875 47.5125L56.7875 75.95 62.0375 75.95 62.0375 50.925 65.5375 50.925 65.5375 75.8625 70.7875 75.8625 70.7875 31.4125 74.2875 44.1875C74.6375 45.325 75.6875 46.1125 76.825 46.1125 77.0875 46.1125 77.2625 46.1125 77.525 46.025 79.0125 45.675 79.8 44.1 79.45 42.7Z" transform="matrix(1.0119 0 0 1 582 241)"/></g></g></g></g></svg>