<?xml version="1.0" standalone="no"?><svg xmlns="http://www.w3.org/2000/svg" viewBox="0 0 1440 320"><path fill="#0099ff" fill-opacity="1" d="M0,160L24,170.7C48,181,96,203,144,224C192,245,240,267,288,245.3C336,224,384,160,432,122.7C480,85,528,75,576,90.7C624,107,672,149,720,144C768,139,816,85,864,64C912,43,960,53,1008,69.3C1056,85,1104,107,1152,101.3C1200,96,1248,64,1296,48C1344,32,1392,32,1416,32L1440,32L1440,320L1416,320C1392,320,1344,320,1296,320C1248,320,1200,320,1152,320C1104,320,1056,320,1008,320C960,320,912,320,864,320C816,320,768,320,720,320C672,320,624,320,576,320C528,320,480,320,432,320C384,320,336,320,288,320C240,320,192,320,144,320C96,320,48,320,24,320L0,320Z"></path></svg>