<?xml version="1.0" standalone="no"?><svg xmlns="http://www.w3.org/2000/svg" viewBox="0 0 1440 320"><path fill="#0099ff" fill-opacity="1" d="M0,160L24,170.7C48,181,96,203,144,224C192,245,240,267,288,245.3C336,224,384,160,432,122.7C480,85,528,75,576,90.7C624,107,672,149,720,144C768,139,816,85,864,64C912,43,960,53,1008,69.3C1056,85,1104,107,1152,101.3C1200,96,1248,64,1296,48C1344,32,1392,32,1416,32L1440,32L1440,0L1416,0C1392,0,1344,0,1296,0C1248,0,1200,0,1152,0C1104,0,1056,0,1008,0C960,0,912,0,864,0C816,0,768,0,720,0C672,0,624,0,576,0C528,0,480,0,432,0C384,0,336,0,288,0C240,0,192,0,144,0C96,0,48,0,24,0L0,0Z"></path></svg>